<?xml version="1.0" standalone="no"?>
<!DOCTYPE svg PUBLIC "-//W3C//DTD SVG 1.1//EN" "http://www.w3.org/Graphics/SVG/1.1/DTD/svg11.dtd" >
<svg xmlns="http://www.w3.org/2000/svg" xmlns:xlink="http://www.w3.org/1999/xlink" version="1.1">
<metadata>
Created by FontForge 20201107 at Tue Feb 25 01:01:15 2025
 By 
Copyright (c) 2011 by Rene Bieder. All rights reserved.
</metadata>
<defs>
<font id="RBNo3.1-Ultra" horiz-adv-x="1320" >
  <font-face 
    font-family="RBNo3.1 Ultra"
    font-weight="450"
    font-stretch="normal"
    units-per-em="2048"
    panose-1="2 0 0 0 0 0 0 0 0 0"
    ascent="1536"
    descent="-512"
    x-height="1208"
    cap-height="1434"
    bbox="-250 -686 2677 2525"
    underline-thickness="102"
    underline-position="-225"
    unicode-range="U+0020-FB02"
  />
<missing-glyph horiz-adv-x="1024" 
d="M0 0v1434h1024v-1434h-1024zM489 717l-452 663v-1327zM532 717l455 -664v1327zM68 1397l444 -649l442 649h-886zM512 684l-444 -647h886z" />
    <glyph glyph-name="fi" unicode="fi" horiz-adv-x="1599" 
d="M25 848v360h157v27q0 46 3 84t12.5 79t24.5 72.5t41 60.5t61 48t84.5 30t111.5 11q73 0 176 -10t170 -20l66 -11l-35 -305h-197q-24 0 -38.5 -13.5t-14.5 -35.5v-33h297v-344h-297v-848h-465v848h-157zM1526 1208v-1208h-465v1208h465zM1055 1528q0 99 70 165t169 66
q101 0 170.5 -66t69.5 -165q0 -98 -70 -165t-170 -67q-99 0 -169 67t-70 165z" />
    <glyph glyph-name="fl" unicode="fl" horiz-adv-x="1599" 
d="M25 848v360h157v27q0 46 3 84t12.5 79t24.5 72.5t41 60.5t61 48t84.5 30t111.5 11q73 0 176 -10t170 -20l66 -11l-35 -305h-197q-24 0 -38.5 -13.5t-14.5 -35.5v-33h297v-344h-297v-848h-465v848h-157zM1526 1516v-1516h-465v1516h465z" />
    <glyph glyph-name=".notdef" horiz-adv-x="1024" 
d="M0 0v1434h1024v-1434h-1024zM489 717l-452 663v-1327zM532 717l455 -664v1327zM68 1397l444 -649l442 649h-886zM512 684l-444 -647h886z" />
    <glyph glyph-name=".null" horiz-adv-x="0" 
 />
    <glyph glyph-name="nonmarkingreturn" horiz-adv-x="682" 
 />
    <glyph glyph-name="space" unicode=" " horiz-adv-x="430" 
 />
    <glyph glyph-name="exclam" unicode="!" horiz-adv-x="663" 
d="M92 1147v287h479v-287l-102 -594h-274zM72 240q0 106 76 179t184 73t184 -73t76 -179t-76 -179t-184 -73t-184 73t-76 179z" />
    <glyph glyph-name="quotedbl" unicode="&#x22;" horiz-adv-x="1032" 
d="M61 1311v123h418v-123l-112 -615h-193zM553 1311v123h418v-123l-113 -615h-192z" />
    <glyph glyph-name="numbersign" unicode="#" horiz-adv-x="1830" 
d="M1743 635l-68 -389h-305l-49 -246h-438l49 246h-236l-49 -246h-438l49 246h-268l65 389h279l24 123h-272l68 389h282l58 287h438l-58 -287h236l57 287h439l-58 -287h293l-67 -389h-304l-24 -123h297zM807 807l-43 -213h235l43 213h-235z" />
    <glyph glyph-name="dollar" unicode="$" horiz-adv-x="1449" 
d="M541 -180l-17 186q-94 8 -199.5 18.5t-164.5 17.5l-58 7l4 336h521v150l-84 8q-87 7 -145 15.5t-114.5 25t-90.5 41t-61 63t-38.5 92.5t-11.5 127v154q0 56 13.5 109t45.5 103.5t79.5 88t121 60t164.5 22.5h31l16 184h356l17 -196l340 -27l-4 -356h-422v-125l190 -17
q107 -11 176 -40.5t103.5 -82t46.5 -112t12 -148.5v-151q0 -72 -23 -137t-70.5 -121t-133 -89.5t-199.5 -33.5l-33 -2l-12 -170h-356zM930 508l-90 8v-131h16q94 0 94 55v27v9v8v6t-0.5 5.5t-1.5 4t-2.5 3.5t-3.5 2.5t-5 2t-7 0.5zM553 950q14 -3 74 -6v105h-95
q-23 0 -27.5 -2.5t-4.5 -14.5v-53q0 -26 53 -29z" />
    <glyph glyph-name="percent" unicode="%" horiz-adv-x="1927" 
d="M348 141l1065 1315l166 -145l-1065 -1315zM549 1434q118 0 184 -64.5t66 -155.5v-352q0 -91 -66 -155t-184 -64h-230q-118 0 -183.5 64t-65.5 155v352q0 91 65.5 155.5t183.5 64.5h230zM471 879q55 0 55 51v217q0 51 -55 51h-76q-53 0 -53 -51v-217q0 -51 53 -51h76z
M1608 791q118 0 184 -64.5t66 -155.5v-352q0 -91 -66 -155t-184 -64h-230q-118 0 -184 64t-66 155v352q0 91 66 155.5t184 64.5h230zM1530 236q55 0 55 51v217q0 51 -55 51h-76q-53 0 -53 -51v-217q0 -51 53 -51h76z" />
    <glyph glyph-name="ampersand" unicode="&#x26;" horiz-adv-x="1579" 
d="M1157 1419l-16 -340h-273q-53 0 -57 -37v-4q0 -36 18 -57l150 -205l49 115h430l-8 -348h-168q-22 -60 -45 -115l33 -43h274v-385h-512q-22 25 -57 66l-23 -9q-56 -20 -86 -29t-118.5 -23t-188.5 -15h-10q-486 -10 -486 301v219q0 263 291 309l17 2q-76 132 -76 228v16
q6 191 129.5 286t327.5 95q70 0 171.5 -7t167.5 -13zM668 313h10q30 0 67 27l-165 199h-7q-4 0 -4 -7l11 -167q2 -24 20.5 -37.5t67.5 -14.5z" />
    <glyph glyph-name="quotesingle" unicode="'" horiz-adv-x="622" 
d="M102 1311v123h418v-123l-112 -615h-193z" />
    <glyph glyph-name="parenleft" unicode="(" horiz-adv-x="706" 
d="M78 238v718q0 167 178 390q45 56 98 111t83 81l30 27l184 -123q-49 -103 -94 -234q-70 -206 -70 -334v-555q0 -118 60 -296q21 -65 47 -133t42 -103l15 -35l-184 -123q-122 105 -231 246q-158 205 -158 363z" />
    <glyph glyph-name="parenright" unicode=")" horiz-adv-x="706" 
d="M629 238q0 -158 -158 -363q-48 -63 -106 -124.5t-91 -91.5l-34 -30l-185 123q58 124 105 271q59 175 59 296v555q0 131 -69 334q-20 58 -43.5 116.5t-37.5 87.5l-14 30l185 123q109 -92 211 -219q178 -223 178 -390v-718z" />
    <glyph glyph-name="asterisk" unicode="*" horiz-adv-x="999" 
d="M373 1391v43h254v-43l-68 -265l195 191l37 22l127 -221l-37 -20l-263 -74l263 -74l37 -20l-127 -221l-37 22l-195 189l68 -263v-43h-254v43l67 265l-194 -191l-37 -22l-127 221l37 20l262 74l-262 74l-37 20l127 221l37 -22l194 -191z" />
    <glyph glyph-name="plus" unicode="+" horiz-adv-x="1351" 
d="M481 166v373h-372v389h372v372h389v-372h373v-389h-373v-373h-389z" />
    <glyph glyph-name="comma" unicode="," horiz-adv-x="622" 
d="M100 451h453v-211q0 -57 -26 -134t-63.5 -146t-75 -130t-63.5 -97l-26 -36l-240 90q41 180 41 391v273z" />
    <glyph glyph-name="hyphen" unicode="-" horiz-adv-x="876" 
d="M61 487v390h754v-390h-754z" />
    <glyph glyph-name="period" unicode="." horiz-adv-x="622" 
d="M51 240q0 106 76 179t184 73t184 -73t76 -179t-76 -179t-184 -73t-184 73t-76 179z" />
    <glyph glyph-name="slash" unicode="/" horiz-adv-x="1105" 
d="M-78 -242l907 1897l281 -129l-907 -1897z" />
    <glyph glyph-name="zero" unicode="0" horiz-adv-x="1490" 
d="M510 0q-106 0 -192.5 41.5t-139 107.5t-80.5 143t-28 154v541q0 77 28 154t80.5 143.5t139 108t192.5 41.5h471q106 0 192.5 -41.5t139 -108t80.5 -143.5t28 -154v-541q0 -77 -28 -154t-80.5 -143t-139 -107.5t-192.5 -41.5h-471zM848 389q49 0 71.5 34t22.5 77v436
q0 43 -22.5 77t-71.5 34h-205q-49 0 -71.5 -34t-22.5 -77v-436q0 -43 22.5 -77t71.5 -34h205z" />
    <glyph glyph-name="one" unicode="1" horiz-adv-x="1118" 
d="M66 922l-103 327l479 185h398v-1045h227v-389h-1034v389h327v594z" />
    <glyph glyph-name="two" unicode="2" horiz-adv-x="1325" 
d="M745 944q54 18 54 55v33q0 12 -5 14.5t-28 2.5h-627l-4 356q428 41 625 41q518 0 518 -385v-86q0 -164 -6 -206q-13 -93 -77 -144q-75 -61 -296 -125l-291 -84q-16 -6 -16 -21v-6h676v-389h-1235v391q0 79 2.5 116.5t18.5 90.5t49 83.5t94 65.5t155 66z" />
    <glyph glyph-name="three" unicode="3" horiz-adv-x="1347" 
d="M74 1063l-4 354q437 35 764 35q107 0 192.5 -32t138.5 -86t81 -122.5t28 -144.5v-115q0 -73 -46.5 -122.5t-140.5 -100.5q90 -27 138.5 -83t48.5 -159v-114q0 -76 -28 -144.5t-81 -122.5t-138.5 -86t-192.5 -32q-146 0 -337 8.5t-309 17.5l-118 9l4 366h626q59 0 77 8
t18 41v39q0 32 -17.5 40.5t-66.5 8.5h-416v367h416q53 0 68.5 11.5t15.5 47.5v64q0 27 -10 37t-40 10h-671z" />
    <glyph glyph-name="four" unicode="4" horiz-adv-x="1417" 
d="M717 0v205h-686l-62 409l600 772q12 16 21.5 26.5t23 17t19 10t25.5 5t25.5 1.5h33.5h479v-852h207v-389h-207v-205h-479zM449 594h268v377z" />
    <glyph glyph-name="five" unicode="5" horiz-adv-x="1357" 
d="M96 651l76 783h1073v-381l-663 -13l-17 -118q58 10 109 10h303q87 0 148.5 -15.5t98 -41t57.5 -68.5t27.5 -88.5t6.5 -110.5v-235q0 -76 -28 -144.5t-81 -122.5t-139 -86t-193 -32q-146 0 -347 8.5t-329 17.5l-128 9l4 364h667q59 0 77 8t18 41v80q0 32 -27 38.5
t-143 6.5h-19h-153q-46 0 -122 -2.5t-129 -4.5l-53 -3z" />
    <glyph glyph-name="six" unicode="6" horiz-adv-x="1421" 
d="M1192 1405l-4 -356h-524q-57 0 -96.5 -31.5t-39.5 -87.5v-82q93 55 246 55h146q224 0 332 -87.5t108 -276.5v-133q0 -61 -17 -119t-53 -110t-87 -91.5t-124 -62.5t-159 -23h-431q-106 0 -192.5 41.5t-139 107.5t-80.5 143t-28 154v512q0 51 15 105.5t44 109.5t76.5 104
t107.5 87t143 60t177 22q100 0 245 -10t240 -20zM528 477q0 -41 22.5 -69.5t72.5 -28.5h184q58 0 76 8t18 41v90q0 37 -21 53.5t-73 16.5h-225q-14 0 -27.5 -4t-20.5 -8l-6 -3v-96z" />
    <glyph glyph-name="seven" unicode="7" horiz-adv-x="1247" 
d="M49 1044v390h1176v-422l-541 -1012h-520l518 1044h-633z" />
    <glyph glyph-name="eight" unicode="8" horiz-adv-x="1376" 
d="M399 -2q-85 0 -152.5 24.5t-109 62.5t-69 87.5t-38 96.5t-10.5 93v64q0 112 61.5 189t182.5 110q-203 67 -203 272v105q0 30 10.5 70t38.5 89t68.5 89.5t109 68t152.5 27.5h496q84 0 152.5 -27.5t109 -68t68.5 -89.5t38.5 -89t10.5 -70v-105q0 -204 -203 -272
q120 -33 182 -110.5t62 -188.5v-64q0 -46 -10.5 -93t-38 -96.5t-69 -87.5t-109 -62.5t-152.5 -24.5h-578zM573 557q-31 0 -52 -14.5t-21 -34.5v-72q0 -34 20.5 -51.5t52.5 -17.5h230q33 0 53.5 17.5t20.5 51.5v72q0 20 -21.5 34.5t-52.5 14.5h-230zM803 918q31 0 52.5 14.5
t21.5 34.5v71q0 34 -21 52t-53 18h-230q-32 0 -52.5 -18t-20.5 -52v-71q0 -20 21 -34.5t52 -14.5h230z" />
    <glyph glyph-name="nine" unicode="9" horiz-adv-x="1421" 
d="M188 29l5 356h565q135 0 135 98v43q-122 -37 -287 -37h-104q-78 0 -135.5 5.5t-109.5 20.5t-86.5 41t-60.5 66t-37.5 97.5t-11.5 134.5v186q0 76 28 147.5t81 130t139.5 93.5t192.5 35h389q481 0 481 -508v-463q0 -90 -11 -159t-31.5 -121t-56.5 -88t-78 -59.5
t-104 -36.5t-127.5 -18t-154.5 -5q-100 0 -255.5 10t-260.5 20zM635 1069q-52 0 -73 -16.5t-21 -53.5v-43q0 -18 0.5 -26.5t2.5 -27.5t8 -29.5t16 -23t27 -18.5t40 -6q52 0 116 1t78 1q17 0 33 3.5t24 7.5l7 4v116q0 43 -22.5 77t-71.5 34h-164z" />
    <glyph glyph-name="colon" unicode=":" horiz-adv-x="643" 
d="M61 240q0 106 76.5 179t184.5 73t184 -73t76 -179t-76 -179t-184 -73t-184.5 73t-76.5 179zM61 969q0 106 76.5 179t184.5 73t184 -73t76 -179t-76 -179t-184 -73t-184.5 73t-76.5 179z" />
    <glyph glyph-name="semicolon" unicode=";" horiz-adv-x="643" 
d="M61 969q0 106 76.5 179t184.5 73t184 -73t76 -179t-76 -179t-184 -73t-184.5 73t-76.5 179zM111 451h452v-211q0 -57 -26 -134t-63.5 -146t-75 -130t-63.5 -97l-26 -36l-239 90q41 180 41 391v273z" />
    <glyph glyph-name="less" unicode="&#x3c;" horiz-adv-x="1167" 
d="M1065 575v-442l-983 397v408l983 397v-432l-545 -164z" />
    <glyph glyph-name="equal" unicode="=" horiz-adv-x="1269" 
d="M109 758v389h1052v-389h-1052zM109 246v389h1052v-389h-1052z" />
    <glyph glyph-name="greater" unicode="&#x3e;" horiz-adv-x="1167" 
d="M102 133v442l545 164l-545 164v432l983 -397v-408z" />
    <glyph glyph-name="question" unicode="?" horiz-adv-x="1138" 
d="M49 1405q314 41 539 41q124 0 203.5 -7.5t141.5 -26t94 -53.5t47.5 -86.5t15.5 -129.5v-72q0 -43 -2 -74.5t-8.5 -68.5t-19 -65t-32.5 -55.5t-51 -49t-72 -37.5q-86 -34 -164 -55q-15 -5 -41 -12q-56 -16 -73 -23t-17 -15v-63h-397v145q0 41 4 63t22.5 50t59 53t109.5 54
q7 3 39.5 15.5t109.5 43.5q53 20 53 41v14q0 12 -4.5 14.5t-27.5 2.5h-525zM150 240q0 106 76 179t184 73t184 -73t76 -179t-76 -179t-184 -73t-184 73t-76 179z" />
    <glyph glyph-name="at" unicode="@" horiz-adv-x="1871" 
d="M1591 -41l4 -162l-909 -12q-81 -2 -146 2t-130.5 17t-114.5 35.5t-92 60t-69 89.5t-39.5 124t-10.5 163v467q5 110 27 197t55 148t85.5 104.5t108 69.5t132 41t147.5 19.5t166 4.5h442q98 0 168 -7t135.5 -26.5t107.5 -54t73.5 -89t45 -133t11.5 -183.5l-12 -410
q-3 -54 -5.5 -84t-9.5 -65t-16.5 -51.5t-30 -36t-45 -27.5t-65 -16.5t-87.5 -12t-116 -6.5q-125 -4 -584 -4q-68 0 -116.5 4.5t-91.5 16t-70 31.5t-46.5 51.5t-27.5 76t-6 105.5l10 288q2 70 24 122.5t56.5 85.5t86 54t107.5 29t125 8q258 0 508 -20l-18 -668h92q71 0 94 23
t23 104l14 445q3 71 -7 120t-39 85t-81 52.5t-131 16.5h-557q-89 0 -154.5 -9t-124 -33t-96 -65t-62.5 -105.5t-32 -154.5q-8 -111 -10 -243.5t0 -209.5l2 -77q0 -164 75 -229.5t252 -65.5h975zM862 346h135l17 408h-78q-65 0 -88 -32.5t-23 -92.5q0 -7 -2 -118t-2 -128
q0 -37 41 -37z" />
    <glyph glyph-name="A" unicode="A" horiz-adv-x="1564" 
d="M1075 0l-69 272h-447l-70 -272h-509q386 1245 423 1362q17 53 34 62.5t89 9.5h512q72 0 89 -9.5t34 -62.5l424 -1362h-510zM762 1077l-107 -415h254l-106 415h-41z" />
    <glyph glyph-name="B" unicode="B" horiz-adv-x="1470" 
d="M86 0v1434h854q107 0 192.5 -32t138.5 -86t81 -122.5t28 -144.5v-97q-5 -142 -166 -207q182 -98 187 -245v-115q0 -76 -28 -144.5t-81 -122.5t-138.5 -86t-192.5 -32h-875zM565 573v-217h283q94 0 94 90v37q0 90 -94 90h-283zM922 948v39q0 40 -22.5 65t-72.5 25h-262
v-219h262q50 0 72.5 25t22.5 65z" />
    <glyph glyph-name="C" unicode="C" horiz-adv-x="1314" 
d="M1253 1419l-4 -381h-606q-94 0 -94 -90v-463q0 -90 94 -90h606l4 -372q-416 -35 -743 -35q-107 0 -192.5 32t-138.5 86t-81 122.5t-28 144.5v688q0 76 28 144.5t81 122.5t138.5 86t192.5 32q146 0 331.5 -7t298.5 -13z" />
    <glyph glyph-name="D" unicode="D" horiz-adv-x="1511" 
d="M86 0v1434h915q107 0 193 -32t139 -86t81 -122.5t28 -144.5v-664q0 -76 -28 -144.5t-81 -122.5t-139 -86t-193 -32h-915zM963 467v500q0 40 -22.5 65t-72.5 25h-303v-680h303q50 0 72.5 25t22.5 65z" />
    <glyph glyph-name="E" unicode="E" horiz-adv-x="1333" 
d="M86 0v1434h1161v-379h-682v-140h557v-389h-557v-127h678v-399h-1157z" />
    <glyph glyph-name="F" unicode="F" horiz-adv-x="1271" 
d="M86 0v1434h1161v-390h-682v-178h537v-389h-537v-477h-479z" />
    <glyph glyph-name="G" unicode="G" horiz-adv-x="1445" 
d="M713 539v327h684l-21 -766q-1 -21 -8.5 -37t-17.5 -24t-20.5 -12.5t-17.5 -5.5l-7 -1q-468 -32 -795 -32q-107 0 -192.5 32t-138.5 86t-81 122.5t-28 144.5v688q0 76 28 144.5t81 122.5t138.5 86t192.5 32q146 0 347 -5t329 -11l129 -5l-4 -376h-668q-50 0 -72 -25.5
t-22 -65.5v-483q0 -90 94 -90h315v131z" />
    <glyph glyph-name="H" unicode="H" horiz-adv-x="1564" 
d="M86 0v1434h479v-506h434v506h480v-1434h-480v539h-434v-539h-479z" />
    <glyph glyph-name="I" unicode="I" horiz-adv-x="651" 
d="M565 1434v-1434h-479v1434h479z" />
    <glyph glyph-name="J" unicode="J" horiz-adv-x="1077" 
d="M0 29v346h434q94 0 94 90v969h480v-1061q0 -385 -441 -385q-146 0 -287.5 10t-210.5 20z" />
    <glyph glyph-name="K" unicode="K" horiz-adv-x="1480" 
d="M565 1434v-480h107l295 480h538l-420 -691l392 -743h-539l-229 455h-144v-455h-479v1434h479z" />
    <glyph glyph-name="L" unicode="L" horiz-adv-x="1224" 
d="M86 0v1434h479v-1045h639v-389h-1118z" />
    <glyph glyph-name="M" unicode="M" horiz-adv-x="1912" 
d="M961 737l258 674q0 3 1.5 6.5t8.5 10t18 6.5h580v-1434h-479v612h-25l-160 -581q-1 -3 -2.5 -8.5t-11 -14t-23.5 -8.5h-340q-14 0 -23 8t-11 16l-2 7l-160 581h-25v-612h-479v1434h580q11 0 18 -6t8 -12l2 -5l258 -674h9z" />
    <glyph glyph-name="N" unicode="N" horiz-adv-x="1568" 
d="M1483 1434v-1434h-381q-61 0 -87 12.5t-59 61.5q-32 45 -197 293t-177 266h-17v-633h-479v1434h385h30t24 -1.5t17.5 -2t14 -4t10 -4.5t8.5 -7t7 -8t7.5 -11t8.5 -12q2 -4 85 -123.5t176.5 -256.5t133.5 -199h11v629h479z" />
    <glyph glyph-name="O" unicode="O" horiz-adv-x="1511" 
d="M510 0q-107 0 -192.5 32t-138.5 86t-81 122.5t-28 144.5v664q0 76 28 144.5t81 122.5t138.5 86t192.5 32h491q107 0 193 -32t139 -86t81 -122.5t28 -144.5v-664q0 -76 -28 -144.5t-81 -122.5t-139 -86t-193 -32h-491zM643 1057q-94 0 -94 -90v-500q0 -90 94 -90h225
q50 0 72.5 25t22.5 65v500q0 40 -22.5 65t-72.5 25h-225z" />
    <glyph glyph-name="P" unicode="P" horiz-adv-x="1472" 
d="M565 377v-377h-479v1434h895q107 0 192.5 -32t138.5 -86t81 -122.5t28 -144.5v-287q0 -76 -28 -144.5t-81 -122.5t-138.5 -86t-192.5 -32h-416zM848 754q94 0 94 90v123q0 90 -94 90h-283v-303h283z" />
    <glyph glyph-name="Q" unicode="Q" horiz-adv-x="1511" 
d="M510 1434h491q107 0 193 -32t139 -86t81 -122.5t28 -144.5v-664q0 -98 -45.5 -182t-132.5 -137l-21 -13l131 -225l-346 -143l-268 315h-250q-107 0 -192.5 32t-138.5 86t-81 122.5t-28 144.5v664q0 76 28 144.5t81 122.5t138.5 86t192.5 32zM643 1057q-94 0 -94 -90v-500
q0 -90 94 -90h225q50 0 72.5 25t22.5 65v500q0 40 -22.5 65t-72.5 25h-225z" />
    <glyph glyph-name="R" unicode="R" horiz-adv-x="1486" 
d="M565 418v-418h-479v1434h895q107 0 192.5 -32t138.5 -86t81 -122.5t28 -144.5v-246q0 -99 -46.5 -184t-135.5 -138l197 -481h-496l-172 418h-203zM848 774q94 0 94 90v103q0 90 -94 90h-283v-283h283z" />
    <glyph glyph-name="S" unicode="S" horiz-adv-x="1302" 
d="M1192 1405l-4 -367h-676q-9 0 -10.5 -2t-1.5 -14v-8q0 -12 12.5 -18t40.5 -11l403 -72q86 -16 145 -40t95 -54t55.5 -76t26 -94t6.5 -119v-157q0 -78 -15.5 -137.5t-52 -107.5t-95.5 -78t-145.5 -46t-203.5 -16q-100 0 -286 10t-322 20l-135 11l4 366h676q94 0 94 56v18
q0 27 -21 31l-313 55q-205 36 -268 57q-115 38 -157 117q-36 69 -36 191v141q0 131 48.5 213.5t164.5 127t309 44.5q100 0 265.5 -10t280.5 -20z" />
    <glyph glyph-name="T" unicode="T" horiz-adv-x="1404" 
d="M1378 1434v-390h-436v-1044h-479v1044h-436v390h1351z" />
    <glyph glyph-name="U" unicode="U" horiz-adv-x="1490" 
d="M549 467q0 -90 94 -90h205q94 0 94 90v967h479v-1049q0 -76 -28 -144.5t-81 -122.5t-138.5 -86t-192.5 -32h-471q-107 0 -192.5 32t-138.5 86t-81 122.5t-28 144.5v1049h479v-967z" />
    <glyph glyph-name="V" unicode="V" horiz-adv-x="1464" 
d="M739 469l244 965h512q-336 -1208 -379 -1366q-12 -47 -29.5 -60.5t-48.5 -13.5h-612q-31 0 -48.5 13.5t-29.5 60.5l-379 1366h512l244 -965h14z" />
    <glyph glyph-name="W" unicode="W" horiz-adv-x="2121" 
d="M1468 467l123 967h541q-229 -1231 -258 -1381q-7 -36 -24 -47.5t-46 -11.5h-590q-60 0 -69 51l-82 610h-4q-66 -512 -82 -610q-9 -51 -70 -51h-590q-29 0 -45.5 11.5t-23.5 47.5l-258 1381h540l123 -967h2l146 967h520l145 -967h2z" />
    <glyph glyph-name="X" unicode="X" horiz-adv-x="1521" 
d="M1554 1434l-426 -723l385 -711h-540l-223 410h-2l-220 -410h-540l393 729l-414 705h582l209 -392h2l213 392h581z" />
    <glyph glyph-name="Y" unicode="Y" horiz-adv-x="1540" 
d="M508 1434l262 -480l262 480h541l-561 -1031v-403h-480v397l-565 1037h541z" />
    <glyph glyph-name="Z" unicode="Z" horiz-adv-x="1470" 
d="M106 1055v379h1278v-359l-643 -686h643v-389h-1298v389l602 666h-582z" />
    <glyph glyph-name="bracketleft" unicode="[" horiz-adv-x="880" 
d="M102 -307v1843h713v-307h-276v-1229h276v-307h-713z" />
    <glyph glyph-name="backslash" unicode="\" horiz-adv-x="1105" 
d="M264 1655l907 -1897l-280 -129l-907 1897z" />
    <glyph glyph-name="bracketright" unicode="]" horiz-adv-x="880" 
d="M778 1536v-1843h-712v307h276v1229h-276v307h712z" />
    <glyph glyph-name="asciicircum" unicode="^" horiz-adv-x="1181" 
d="M-10 733l397 799h408l397 -799h-442l-164 361l-164 -361h-432z" />
    <glyph glyph-name="underscore" unicode="_" horiz-adv-x="1228" 
d="M-4 -348v278h1237v-278h-1237z" />
    <glyph glyph-name="grave" unicode="`" horiz-adv-x="1024" 
d="M285 1788l565 -275l-115 -198l-583 147z" />
    <glyph glyph-name="a" unicode="a" horiz-adv-x="1312" 
d="M174 1180q280 41 627 41q116 0 194.5 -17t136 -59.5t84 -118t25.5 -190.5v-836h-465v70q-157 -82 -264 -82h-37h-57q-59 0 -87 1t-73 5t-65 14t-49.5 28t-42 46t-26.5 68.5t-19 95.5t-5 127v102q0 52 6 93t14.5 73t27 56t35.5 40.5t48 28t56.5 18t69.5 10t77.5 4.5
t89.5 1h37q34 0 61 -1.5t56 -6.5t43.5 -8t51.5 -12t52 -13v61q-3 44 -23 60t-71 16h-506zM776 510q-153 20 -188 20h-19q-24 0 -38.5 -13.5t-14.5 -35.5v-139q0 -22 14.5 -35.5t38.5 -13.5h19q35 0 188 20v197z" />
    <glyph glyph-name="b" unicode="b" 
d="M70 0v1516h465v-377q157 82 264 82h37q111 -1 186.5 -18.5t131 -60.5t81 -118t25.5 -188v-463q0 -113 -25.5 -188t-81 -118t-131 -60.5t-186.5 -18.5h-37q-107 0 -264 82v-70h-465zM535 834v-459q161 -21 188 -21h18q25 0 39.5 13.5t14.5 35.5v402q0 22 -14.5 35.5
t-39.5 13.5h-18q-35 0 -188 -20z" />
    <glyph glyph-name="c" unicode="c" horiz-adv-x="1169" 
d="M1116 346l2 -305q-30 -6 -84 -14.5t-215.5 -22.5t-316.5 -14q-116 0 -194 17t-136 59.5t-84.5 118t-26.5 190.5v461q0 115 26.5 190.5t84.5 118t136 59.5t194 17q155 0 309 -7.5t231 -15.5l76 -8v-326h-538q-25 0 -39.5 -13.5t-14.5 -35.5v-420q0 -22 14.5 -35.5
t39.5 -13.5h536z" />
    <glyph glyph-name="d" unicode="d" 
d="M786 1139v377h465v-1516h-465v70q-157 -82 -264 -82h-37q-111 1 -186.5 18.5t-131 60.5t-81 118t-25.5 188v463q0 113 25.5 188t81 118t131 60.5t186.5 18.5h37q107 0 264 -82zM598 354q27 0 188 21v459q-153 20 -188 20h-18q-25 0 -39.5 -13.5t-14.5 -35.5v-402
q0 -22 14.5 -35.5t39.5 -13.5h18z" />
    <glyph glyph-name="e" unicode="e" horiz-adv-x="1292" 
d="M1165 336l-6 -295q-35 -6 -95.5 -14.5t-233.5 -22.5t-328 -14q-116 0 -194 17t-136 59.5t-84.5 118t-26.5 190.5v448q0 76 28 144.5t81 122.5t139 86t193 32h289q107 0 192.5 -32t138.5 -86t81 -122.5t28 -144.5v-340q0 -21 -3 -25.5t-18 -4.5h-684v-68q0 -22 14.5 -35.5
t39.5 -13.5h585zM807 696v109q0 37 -22.5 58.5t-61.5 21.5h-113q-39 0 -61.5 -21.5t-22.5 -58.5v-117z" />
    <glyph glyph-name="f" unicode="f" horiz-adv-x="987" 
d="M25 848v360h157v27q0 46 3 84t12.5 79t24.5 72.5t41 60.5t61 48t84.5 30t111.5 11q73 0 176 -10t170 -20l66 -11l-35 -305h-197q-24 0 -38.5 -13.5t-14.5 -35.5v-33h297v-344h-297v-848h-465v848h-157z" />
    <glyph glyph-name="g" unicode="g" horiz-adv-x="1323" 
d="M1251 1208v-1169q1 -115 -25.5 -190.5t-84 -118t-136 -59.5t-194.5 -17q-155 0 -311.5 15t-235.5 31l-80 15l2 285h547q24 0 38.5 13.5t14.5 35.5v133q-78 -41 -134.5 -61.5t-108.5 -20.5h-58q-111 1 -186.5 18.5t-131 60.5t-81 118t-25.5 188v351q0 113 25.5 188t81 118
t131 60.5t186.5 18.5h37q107 0 264 -82v69h465zM526 805v-350q0 -22 14.5 -35.5t39.5 -13.5h18q35 0 188 20v408q-153 20 -188 20h-18q-25 0 -39.5 -13.5t-14.5 -35.5z" />
    <glyph glyph-name="h" unicode="h" 
d="M70 0v1516h465v-377q157 82 264 82h37q111 -1 186.5 -18.5t131 -60.5t81 -118t25.5 -188v-836h-465v805q0 22 -14.5 35.5t-39.5 13.5h-18q-35 0 -188 -20v-834h-465z" />
    <glyph glyph-name="i" unicode="i" horiz-adv-x="612" 
d="M539 1208v-1208h-465v1208h465zM68 1528q0 99 70 165t169 66q101 0 170.5 -66t69.5 -165q0 -98 -70 -165t-170 -67q-99 0 -169 67t-70 165z" />
    <glyph glyph-name="j" unicode="j" horiz-adv-x="612" 
d="M74 1208h465v-987q0 -77 -10.5 -134t-37.5 -113t-78.5 -101.5t-129.5 -83.5q-46 -23 -98.5 -41.5t-81.5 -25.5l-29 -7l-140 244q73 66 89 82q35 37 43 81.5t8 149.5v936zM68 1528q0 99 70 165t169 66q101 0 170.5 -66t69.5 -165q0 -98 -70 -165t-170 -67q-99 0 -169 67
t-70 165z" />
    <glyph glyph-name="k" unicode="k" horiz-adv-x="1296" 
d="M70 0v1516h465v-705h57l221 397h530l-344 -569v-25l336 -614h-528l-229 393h-43v-393h-465z" />
    <glyph glyph-name="l" unicode="l" horiz-adv-x="612" 
d="M539 1516v-1516h-465v1516h465z" />
    <glyph glyph-name="m" unicode="m" horiz-adv-x="1955" 
d="M70 1208h465v-59q71 38 115.5 55t92.5 17h37q240 -3 334 -97q79 43 161 70t138 27h37q111 -1 186.5 -18.5t131 -60.5t81 -118t25.5 -188v-836h-465v805q0 22 -14.5 35.5t-38.5 13.5h-19q-31 0 -135 -16q2 -6 2 -19v-819h-465v805q0 22 -14.5 35.5t-38.5 13.5h-18
q-19 0 -34.5 -2t-43 -7t-55.5 -9v-836h-465v1208z" />
    <glyph glyph-name="n" unicode="n" 
d="M70 0v1208h465v-69q157 82 264 82h37q111 -1 186.5 -18.5t131 -60.5t81 -118t25.5 -188v-836h-465v805q0 22 -14.5 35.5t-39.5 13.5h-18q-35 0 -188 -20v-834h-465z" />
    <glyph glyph-name="o" unicode="o" horiz-adv-x="1353" 
d="M852 1229q116 0 194 -17t135.5 -59.5t84 -118t26.5 -190.5v-471q0 -115 -26.5 -190.5t-84 -118t-135.5 -59.5t-194 -17h-350q-116 0 -194 17t-136 59.5t-84.5 118t-26.5 190.5v471q0 115 26.5 190.5t84.5 118t136 59.5t194 17h350zM774 324q24 0 38.5 13.5t14.5 35.5v471
q0 22 -14.5 35.5t-38.5 13.5h-194q-25 0 -39.5 -13.5t-14.5 -35.5v-471q0 -22 14.5 -35.5t39.5 -13.5h194z" />
    <glyph glyph-name="p" unicode="p" 
d="M535 70v-398h-465v1536h465v-69q157 82 264 82h37q111 -1 186.5 -18.5t131 -60.5t81 -118t25.5 -188v-463q0 -113 -25.5 -188t-81 -118t-131 -60.5t-186.5 -18.5h-37q-107 0 -264 82zM535 834v-459q161 -21 188 -21h18q25 0 39.5 13.5t14.5 35.5v402q0 22 -14.5 35.5
t-39.5 13.5h-18q-35 0 -188 -20z" />
    <glyph glyph-name="q" unicode="q" 
d="M1251 1208v-1536h-465v398q-157 -82 -264 -82h-37q-111 1 -186.5 18.5t-131 60.5t-81 118t-25.5 188v463q0 113 25.5 188t81 118t131 60.5t186.5 18.5h37q107 0 264 -82v69h465zM786 375v459q-153 20 -188 20h-18q-25 0 -39.5 -13.5t-14.5 -35.5v-402q0 -22 14.5 -35.5
t39.5 -13.5h18q27 0 188 21z" />
    <glyph glyph-name="r" unicode="r" horiz-adv-x="937" 
d="M70 0v1208h465v-69q157 82 264 82h119v-408h-195q-74 0 -188 -41v-772h-465z" />
    <glyph glyph-name="s" unicode="s" horiz-adv-x="1230" 
d="M1116 885h-571q-5 0 -6.5 -1t-1.5 -7v-17q0 -8 5.5 -13t11.5 -6l5 -1q61 -13 182 -33q189 -30 241 -45q114 -34 157 -108q41 -71 41 -205v-46q0 -226 -106.5 -320.5t-334.5 -94.5q-155 0 -327 12t-266 24l-95 13l2 307h568q73 0 84 6q10 6 10 23v18q0 9 -14.5 13
t-68.5 13q-68 11 -120 21q-138 24 -190 35q-65 14 -106.5 32t-76.5 50.5t-51 85t-16 129.5v98q0 77 11.5 133.5t37.5 95.5t59.5 63.5t87 38t109 18t135.5 4.5q155 0 306.5 -7.5t225.5 -14.5l74 -7z" />
    <glyph glyph-name="t" unicode="t" horiz-adv-x="993" 
d="M25 850v360h157v224h465v-224h297v-360h-297v-465q0 -22 14.5 -35.5t38.5 -13.5h258l-6 -285q-268 -61 -432 -61q-62 0 -111.5 11t-84.5 30t-61 48t-41 60.5t-24.5 72.5t-12.5 79t-3 84v475h-157z" />
    <glyph glyph-name="u" unicode="u" 
d="M1251 1208v-1208h-465v70q-157 -82 -264 -82h-37q-111 1 -186.5 18.5t-131 60.5t-81 118t-25.5 188v835h465v-805q0 -22 14.5 -35.5t39.5 -13.5h18q27 0 188 21v833h465z" />
    <glyph glyph-name="v" unicode="v" horiz-adv-x="1325" 
d="M1040 43q-9 -31 -21 -40t-40 -9h-633q-28 0 -40 9t-21 40l-316 1165h500l174 -829h39l174 829h500q-271 -1007 -316 -1165z" />
    <glyph glyph-name="w" unicode="w" horiz-adv-x="1826" 
d="M834 39q-8 -45 -60 -45h-522q-47 0 -55 45l-209 1169h510l75 -780h27q90 694 100 780h426l101 -780h26l76 780h510q-182 -1026 -209 -1169q-8 -45 -55 -45h-522q-52 0 -60 45l-78 407h-4q-65 -344 -77 -407z" />
    <glyph glyph-name="x" unicode="x" horiz-adv-x="1294" 
d="M1305 1208l-322 -628l336 -580h-526l-144 289h-4l-143 -289h-527l316 580l-301 628h520l133 -301h8l133 301h521z" />
    <glyph glyph-name="y" unicode="y" horiz-adv-x="1327" 
d="M258 -264l2 264h201q23 0 34.5 12.5t18.5 36.5l10 39h-73q-39 0 -72 28t-47 56l-13 27l-344 1009h521l174 -643h14l147 643h521l-365 -1169q-25 -81 -44 -130.5t-45.5 -94.5t-54.5 -68.5t-71.5 -41.5t-96 -24t-128.5 -6q-59 0 -131.5 15.5t-115.5 30.5z" />
    <glyph glyph-name="z" unicode="z" horiz-adv-x="1200" 
d="M84 872v336h1073v-336l-512 -536h512v-336h-1114v336l532 536h-491z" />
    <glyph glyph-name="braceleft" unicode="{" horiz-adv-x="776" 
d="M487 1626l185 -123q-35 -53 -66 -137q-66 -180 -37 -348q18 -105 18.5 -163t-20.5 -105q-18 -35 -54 -61t-99 -52l-80 -31q57 -22 84 -35q129 -61 157 -145q24 -77 -6 -229q-26 -126 25 -295q15 -48 34.5 -96t31.5 -72l12 -23l-185 -123q-98 72 -188 183
q-157 192 -139 364q8 77 13 146.5t6 100.5l1 30q0 24 -32.5 45t-127.5 53v195q95 32 127.5 53t32.5 45q-2 102 -20 276q-18 179 149 377q38 45 82.5 87.5t70.5 62.5z" />
    <glyph glyph-name="bar" unicode="|" horiz-adv-x="757" 
d="M195 -242v1876h368v-1876h-368z" />
    <glyph glyph-name="braceright" unicode="}" horiz-adv-x="776" 
d="M756 705v-195q-95 -32 -127.5 -53t-32.5 -45q2 -103 20 -277q18 -172 -139 -364q-40 -49 -87 -95t-74 -67l-27 -21l-185 123q45 82 78 191q51 169 25 295q-30 152 -6 229q28 84 157 145q27 13 84 35l-80 31q-63 26 -99 52t-54 61q-21 47 -20.5 105t18.5 163
q29 168 -37 348q-14 37 -30.5 71.5t-25.5 50.5l-10 15l185 123q92 -68 178 -170q167 -198 149 -377q-8 -77 -13 -146t-6 -99l-1 -31q0 -24 32.5 -45t127.5 -53z" />
    <glyph glyph-name="asciitilde" unicode="~" horiz-adv-x="1091" 
d="M831 846l162 -88q-79 -158 -118 -212q-69 -93 -144 -93q-59 0 -119 22l-209 78l-143 -100l-162 88q79 158 118 212q69 93 144 93q78 0 125 -19l203 -82z" />
    <glyph glyph-name="uni00A0" unicode="&#xa0;" horiz-adv-x="512" 
 />
    <glyph glyph-name="exclamdown" unicode="&#xa1;" horiz-adv-x="663" 
d="M92 -12v286l103 594h274l102 -594v-286h-479zM72 1182q0 106 76 179t184 73t184 -73t76 -179t-76 -179t-184 -73t-184 73t-76 179z" />
    <glyph glyph-name="cent" unicode="&#xa2;" horiz-adv-x="1169" 
d="M1116 432l2 -285q-106 -25 -264 -43l-14 -167h-336l-15 149h-6q-111 0 -186 17.5t-130 61t-80.5 118.5t-25.5 188v461q0 111 25 186t79 118.5t128 62t182 18.5h14l15 160h336l16 -181q71 -8 136.5 -18t95.5 -16l30 -7v-284h-342v-539h340zM465 922v-441q0 -22 14.5 -35.5
t38.5 -13.5h45v539h-45q-24 0 -38.5 -13.5t-14.5 -35.5z" />
    <glyph glyph-name="sterling" unicode="&#xa3;" horiz-adv-x="1431" 
d="M1346 0h-1287v365q33 20 54 35t52 44t47.5 65.5t16.5 78.5l-2 12h-151l-2 221h129l-17 209q0 226 101.5 321t318.5 95q96 0 264 -15.5t288 -30.5l120 -16l-14 -366h-449q-19 0 -30.5 -9t-16 -26.5t-5.5 -29t-1 -29.5l10 -103h348l2 -221h-319l2 -16q0 -42 -16 -79.5
t-39.5 -60.5t-41 -36t-28.5 -17l666 -2v-389z" />
    <glyph glyph-name="yen" unicode="&#xa5;" horiz-adv-x="1540" 
d="M508 1434l262 -480l262 480h541l-340 -623h143v-270h-291l-41 -78h332v-270h-364v-193h-480v193h-387v270h351l-41 78h-310v270h162l-340 623h541z" />
    <glyph glyph-name="section" unicode="&#xa7;" horiz-adv-x="1404" 
d="M1200 1477l-14 -308q-371 2 -461 2q-14 0 -14 -18v-16q0 -17 47 -25l43 -6q43 -6 82 -12.5t94 -16t108.5 -20.5t94.5 -23q92 -26 138 -108t46 -242v-4q0 -120 -25.5 -190.5t-83.5 -122.5q7 -44 7 -82v-9q0 -191 -102 -265t-357 -74q-67 0 -224 6t-281 12l-124 6l14 307
q396 -2 492 -2q14 0 14 15v20q0 17 -47 25l-401 69q-104 19 -153 101t-52 239v19q0 122 24.5 193.5t81.5 121.5q-4 27 -4 92v19q4 180 106.5 250.5t352.5 70.5q67 0 216.5 -6t265.5 -12zM903 674q34 -2 45 -10q10 10 10 24v31q0 18 -10 28.5t-35 14.5l-440 61q-9 1 -18 6
q-9 -3 -9 -16v-47q3 -21 6 -32.5t16 -22.5t36 -13z" />
    <glyph glyph-name="dieresis" unicode="&#xa8;" horiz-adv-x="1024" 
d="M559 1546q0 91 64.5 153t156.5 62q93 0 157 -61.5t64 -153.5q0 -90 -64 -151.5t-157 -61.5q-92 0 -156.5 61.5t-64.5 151.5zM20 1546q0 91 65 153t157 62q93 0 157 -61.5t64 -153.5q0 -90 -64 -151.5t-157 -61.5q-92 0 -157 61.5t-65 151.5z" />
    <glyph glyph-name="copyright" unicode="&#xa9;" horiz-adv-x="1781" 
d="M119 686q0 158 61.5 302t166 249t249 167t303.5 62q158 0 302 -62t249 -167t167 -249t62 -302q0 -159 -62 -303.5t-167 -249t-249 -166t-302 -61.5q-159 0 -303.5 61.5t-249 166t-166 249t-61.5 303.5zM334 686q0 -117 44 -223.5t119 -183.5t180 -122.5t222 -45.5
t222 45.5t180 122.5t119 183.5t44 223.5q0 156 -74.5 288.5t-204.5 210t-286 77.5t-286 -77.5t-204.5 -210t-74.5 -288.5zM1190 1081l-4 -209h-332q-53 0 -53 -49v-256q0 -49 53 -49h332l4 -205q-230 -18 -410 -18q-115 0 -178 61.5t-63 149.5v379q0 88 63 149.5t178 61.5
q80 0 182.5 -4t165.5 -8z" />
    <glyph glyph-name="ordfeminine" unicode="&#xaa;" horiz-adv-x="952" 
d="M166 1208l-2 189q185 26 414 26q155 0 223 -53.5t67 -200.5v-551h-307v46q-103 -54 -174 -54h-25q-124 1 -149 5q-76 12 -104 71q-27 56 -27 178v68q0 44 6.5 76.5t16 55.5t29.5 38t39 23.5t53 13t61.5 5.5t74.5 1h25q28 0 52.5 -2.5t38 -5.5t40.5 -9.5t43 -9.5v41
q-1 29 -14 39t-47 10h-334zM389 936v-92q0 -14 10 -23.5t25 -9.5h12q18 0 125 14v129q-114 15 -125 15h-12q-15 0 -25 -9.5t-10 -23.5zM90 233v220h772v-220h-772z" />
    <glyph glyph-name="guillemotleft" unicode="&#xab;" horiz-adv-x="1271" 
d="M672 262l-197 -160l-416 418v180l416 418l197 -160l-246 -348zM1225 262l-197 -160l-416 418v180l416 418l197 -160l-246 -348z" />
    <glyph glyph-name="registered" unicode="&#xae;" horiz-adv-x="999" 
d="M49 1016q0 187 131.5 318.5t319.5 131.5q123 0 226.5 -60t163.5 -163.5t60 -226.5q0 -188 -131.5 -319.5t-318.5 -131.5q-92 0 -175.5 35.5t-144 96t-96 144t-35.5 175.5zM170 1016q0 -142 95 -241t235 -99t234.5 99t94.5 241t-94.5 241t-234.5 99t-235 -99t-95 -241z
M455 928v-125h-144v430h269q63 0 97 -33.5t34 -81.5v-74q0 -63 -56 -98l60 -143h-148l-53 125h-59zM567 1063v31q0 26 -28 26h-84v-86h84q28 0 28 29z" />
    <glyph glyph-name="macron" unicode="&#xaf;" horiz-adv-x="1024" 
d="M113 1321v270h798v-270h-798z" />
    <glyph glyph-name="degree" unicode="&#xb0;" horiz-adv-x="909" 
d="M590 1434q118 0 184 -64.5t66 -155.5v-290q0 -91 -66 -155t-184 -64h-271q-118 0 -183.5 64t-65.5 155v290q0 91 65.5 155.5t183.5 64.5h271zM512 940q55 0 55 51v156q0 51 -55 51h-117q-53 0 -53 -51v-156q0 -51 53 -51h117z" />
    <glyph glyph-name="plusminus" unicode="&#xb1;" horiz-adv-x="1294" 
d="M1202 762h-366v-324h-377v324h-367v348h367v324h377v-324h366v-348zM1202 0h-1110v315h1110v-315z" />
    <glyph glyph-name="acute" unicode="&#xb4;" horiz-adv-x="1024" 
d="M152 1513l565 275l133 -326l-584 -147z" />
    <glyph glyph-name="paragraph" unicode="&#xb6;" horiz-adv-x="1228" 
d="M1034 0v1038l-166 -16v-1022h-286v616l-187 -6q-94 -2 -157 10.5t-109 46t-67 93t-21 151.5v224q0 92 21 152.5t67 94.5t109 47t157 11q132 0 330 -5t331 -9l132 -5v-1421h-154z" />
    <glyph glyph-name="periodcentered" unicode="&#xb7;" horiz-adv-x="622" 
d="M51 711q0 106 76 179t184 73t184 -73t76 -179t-76 -179t-184 -73t-184 73t-76 179z" />
    <glyph glyph-name="cedilla" unicode="&#xb8;" horiz-adv-x="1024" 
d="M307 -45h299q57 0 81.5 -1t58.5 -6.5t46 -17.5t26.5 -35t18 -57t3.5 -86v-90q0 -30 -4.5 -53.5t-16.5 -40.5t-23.5 -29t-35 -19.5t-41.5 -12t-52 -6.5t-56.5 -2.5t-65.5 -0.5q-55 0 -145 10t-153 20l-63 11l6 174h357q15 0 17.5 1t2.5 7v25q0 8 -2.5 9t-17.5 1h-240v199z
" />
    <glyph glyph-name="ordmasculine" unicode="&#xba;" horiz-adv-x="974" 
d="M604 1434q77 0 128 -11t89 -39t55 -78t17 -126v-312q0 -76 -17 -126t-55 -78t-89 -39t-128 -11h-231q-155 0 -223 53.5t-68 200.5v312q0 147 68 200.5t223 53.5h231zM551 836q17 0 27 9t10 23v312q0 14 -10 23t-27 9h-127q-17 0 -26 -9t-9 -23v-312q0 -14 9 -23t26 -9
h127zM102 233v220h772v-220h-772z" />
    <glyph glyph-name="guillemotright" unicode="&#xbb;" horiz-adv-x="1271" 
d="M244 102l-197 160l246 348l-246 348l197 160l415 -418v-180zM797 102l-197 160l246 348l-246 348l197 160l415 -418v-180z" />
    <glyph glyph-name="questiondown" unicode="&#xbf;" horiz-adv-x="1138" 
d="M1090 29q-314 -41 -539 -41q-124 0 -203.5 7.5t-141.5 26t-94 53.5t-47.5 86.5t-15.5 129.5v71q0 52 3 89t13.5 80.5t30 74t54 59.5t83.5 48q86 34 164 55q19 6 51 15q49 14 64.5 20t15.5 14v64h398v-146q0 -33 -2 -51t-12 -42t-31 -41.5t-57.5 -39t-92.5 -45.5
q-7 -3 -39.5 -15.5t-109.5 -43.5q-54 -20 -54 -41v-15q0 -12 4.5 -14t28.5 -2h524zM989 1194q0 -106 -76 -179t-184 -73t-184 73t-76 179t76 179t184 73t184 -73t76 -179z" />
    <glyph glyph-name="Agrave" unicode="&#xc0;" horiz-adv-x="1564" 
d="M1075 0l-69 272h-447l-70 -272h-509q386 1245 423 1362q17 53 34 62.5t89 9.5h512q72 0 89 -9.5t34 -62.5l424 -1362h-510zM762 1077l-107 -415h254l-106 415h-41zM565 2013l565 -274l-114 -199l-584 148z" />
    <glyph glyph-name="Aacute" unicode="&#xc1;" horiz-adv-x="1564" 
d="M1075 0l-69 272h-447l-70 -272h-509q386 1245 423 1362q17 53 34 62.5t89 9.5h512q72 0 89 -9.5t34 -62.5l424 -1362h-510zM762 1077l-107 -415h254l-106 415h-41zM432 1739l565 274l133 -325l-583 -148z" />
    <glyph glyph-name="Acircumflex" unicode="&#xc2;" horiz-adv-x="1564" 
d="M1075 0l-69 272h-447l-70 -272h-509q386 1245 423 1362q17 53 34 62.5t89 9.5h512q72 0 89 -9.5t34 -62.5l424 -1362h-510zM762 1077l-107 -415h254l-106 415h-41zM782 2044l467 -277l-98 -172l-371 127l-366 -127l-99 172z" />
    <glyph glyph-name="Atilde" unicode="&#xc3;" horiz-adv-x="1564" 
d="M1075 0l-69 272h-447l-70 -272h-509q386 1245 423 1362q17 53 34 62.5t89 9.5h512q72 0 89 -9.5t34 -62.5l424 -1362h-510zM762 1077l-107 -415h254l-106 415h-41zM1108 1956l160 -105q-45 -71 -71.5 -109t-65.5 -82t-77 -62t-81 -17q-65 3 -125 27l-238 108l-155 -106
l-158 104q33 53 56 87.5t53.5 73t57 60t59.5 36t67 14.5q61 0 127 -27l235 -109z" />
    <glyph glyph-name="Adieresis" unicode="&#xc4;" horiz-adv-x="1564" 
d="M1075 0l-69 272h-447l-70 -272h-509q386 1245 423 1362q17 53 34 62.5t89 9.5h512q72 0 89 -9.5t34 -62.5l424 -1362h-510zM762 1077l-107 -415h254l-106 415h-41zM829 1772q0 91 65 153t157 62q93 0 157 -61.5t64 -153.5q0 -90 -64 -151.5t-157 -61.5q-92 0 -157 61.5
t-65 151.5zM291 1772q0 91 64.5 153t156.5 62q93 0 157 -61.5t64 -153.5q0 -90 -64 -151.5t-157 -61.5q-92 0 -156.5 61.5t-64.5 151.5z" />
    <glyph glyph-name="Aring" unicode="&#xc5;" horiz-adv-x="1564" 
d="M1075 0l-69 272h-447l-70 -272h-509q386 1245 423 1362q17 53 34 62.5t89 9.5h512q72 0 89 -9.5t34 -62.5l424 -1362h-510zM762 1077l-107 -415h254l-106 415h-41zM903 2019q101 0 157 -57.5t56 -138.5v-86q0 -81 -56 -139t-157 -58h-241q-101 0 -157 58t-56 139v86
q0 81 56 138.5t157 57.5h241zM866 1726q23 0 23 21v65q0 19 -23 19h-170q-22 0 -22 -19v-65q0 -21 22 -21h170z" />
    <glyph glyph-name="AE" unicode="&#xc6;" horiz-adv-x="2191" 
d="M944 0v272h-346l-109 -272h-509q499 1208 567 1370q27 64 115 64h1443v-379h-682v-140h557v-389h-557v-127h678v-399h-1157zM905 1049l-164 -400h203v400h-39z" />
    <glyph glyph-name="Ccedilla" unicode="&#xc7;" horiz-adv-x="1314" 
d="M1253 1419l-4 -381h-606q-94 0 -94 -90v-463q0 -90 94 -90h606l4 -372q-416 -35 -743 -35q-107 0 -192.5 32t-138.5 86t-81 122.5t-28 144.5v688q0 76 28 144.5t81 122.5t138.5 86t192.5 32q146 0 331.5 -7t298.5 -13zM453 -45h299q83 0 115.5 -3t66.5 -22.5t42.5 -60
t8.5 -117.5v-90q0 -30 -4.5 -53.5t-16.5 -40.5t-23.5 -29t-35 -19.5t-41.5 -12t-52 -6.5t-56.5 -2.5t-65.5 -0.5q-55 0 -145 10t-153 20l-62 11l6 174h356q15 0 18 1t3 7v25q0 7 -3 8.5t-18 1.5h-239v199z" />
    <glyph glyph-name="Egrave" unicode="&#xc8;" horiz-adv-x="1333" 
d="M86 0v1434h1161v-379h-682v-140h557v-389h-557v-127h678v-399h-1157zM451 2013l565 -274l-115 -199l-584 148z" />
    <glyph glyph-name="Eacute" unicode="&#xc9;" horiz-adv-x="1333" 
d="M86 0v1434h1161v-379h-682v-140h557v-389h-557v-127h678v-399h-1157zM317 1739l566 274l133 -325l-584 -148z" />
    <glyph glyph-name="Ecircumflex" unicode="&#xca;" horiz-adv-x="1333" 
d="M86 0v1434h1161v-379h-682v-140h557v-389h-557v-127h678v-399h-1157zM666 2044l467 -277l-99 -172l-370 127l-367 -127l-98 172z" />
    <glyph glyph-name="Edieresis" unicode="&#xcb;" horiz-adv-x="1333" 
d="M86 0v1434h1161v-379h-682v-140h557v-389h-557v-127h678v-399h-1157zM715 1772q0 91 64.5 153t156.5 62q93 0 157 -61.5t64 -153.5q0 -90 -64 -151.5t-157 -61.5q-92 0 -156.5 61.5t-64.5 151.5zM176 1772q0 91 64.5 153t156.5 62q93 0 157 -61.5t64 -153.5
q0 -90 -64 -151.5t-157 -61.5q-92 0 -156.5 61.5t-64.5 151.5z" />
    <glyph glyph-name="Igrave" unicode="&#xcc;" horiz-adv-x="651" 
d="M565 1434v-1434h-479v1434h479zM70 2013l565 -274l-115 -199l-583 148z" />
    <glyph glyph-name="Iacute" unicode="&#xcd;" horiz-adv-x="651" 
d="M565 1434v-1434h-479v1434h479zM18 1739l566 274l133 -325l-584 -148z" />
    <glyph glyph-name="Icircumflex" unicode="&#xce;" horiz-adv-x="651" 
d="M565 1434v-1434h-479v1434h479zM326 2044l467 -277l-99 -172l-370 127l-367 -127l-98 172z" />
    <glyph glyph-name="Idieresis" unicode="&#xcf;" horiz-adv-x="651" 
d="M565 1434v-1434h-479v1434h479zM375 1772q0 91 64.5 153t156.5 62q93 0 157 -61.5t64 -153.5q0 -90 -64 -151.5t-157 -61.5q-92 0 -156.5 61.5t-64.5 151.5zM-164 1772q0 91 64.5 153t156.5 62q93 0 157.5 -61.5t64.5 -153.5q0 -90 -64.5 -151.5t-157.5 -61.5
q-92 0 -156.5 61.5t-64.5 151.5z" />
    <glyph glyph-name="Eth" unicode="&#xd0;" horiz-adv-x="1613" 
d="M47 549v346h141v539h916q107 0 192.5 -32t138.5 -86t81 -122.5t28 -144.5v-664q0 -76 -28 -144.5t-81 -122.5t-138.5 -86t-192.5 -32h-916v549h-141zM1065 467v500q0 90 -94 90h-303v-162h229v-346h-229v-172h303q94 0 94 90z" />
    <glyph glyph-name="Ntilde" unicode="&#xd1;" horiz-adv-x="1568" 
d="M1483 1434v-1434h-381q-61 0 -87 12.5t-59 61.5q-32 45 -197 293t-177 266h-17v-633h-479v1434h385h30t24 -1.5t17.5 -2t14 -4t10 -4.5t8.5 -7t7 -8t7.5 -11t8.5 -12q2 -4 85 -123.5t176.5 -256.5t133.5 -199h11v629h479zM1110 1956l160 -105q-45 -71 -71.5 -109
t-65.5 -82t-77 -62t-81 -17q-65 3 -125 27l-238 108l-155 -106l-158 104q33 53 56 87.5t53.5 73t57 60t59.5 36t67 14.5q61 0 127 -27l235 -109z" />
    <glyph glyph-name="Ograve" unicode="&#xd2;" horiz-adv-x="1511" 
d="M510 0q-107 0 -192.5 32t-138.5 86t-81 122.5t-28 144.5v664q0 76 28 144.5t81 122.5t138.5 86t192.5 32h491q107 0 193 -32t139 -86t81 -122.5t28 -144.5v-664q0 -76 -28 -144.5t-81 -122.5t-139 -86t-193 -32h-491zM643 1057q-94 0 -94 -90v-500q0 -90 94 -90h225
q50 0 72.5 25t22.5 65v500q0 40 -22.5 65t-72.5 25h-225zM539 2013l565 -274l-115 -199l-583 148z" />
    <glyph glyph-name="Oacute" unicode="&#xd3;" horiz-adv-x="1511" 
d="M510 0q-107 0 -192.5 32t-138.5 86t-81 122.5t-28 144.5v664q0 76 28 144.5t81 122.5t138.5 86t192.5 32h491q107 0 193 -32t139 -86t81 -122.5t28 -144.5v-664q0 -76 -28 -144.5t-81 -122.5t-139 -86t-193 -32h-491zM643 1057q-94 0 -94 -90v-500q0 -90 94 -90h225
q50 0 72.5 25t22.5 65v500q0 40 -22.5 65t-72.5 25h-225zM406 1739l565 274l133 -325l-584 -148z" />
    <glyph glyph-name="Ocircumflex" unicode="&#xd4;" horiz-adv-x="1511" 
d="M510 0q-107 0 -192.5 32t-138.5 86t-81 122.5t-28 144.5v664q0 76 28 144.5t81 122.5t138.5 86t192.5 32h491q107 0 193 -32t139 -86t81 -122.5t28 -144.5v-664q0 -76 -28 -144.5t-81 -122.5t-139 -86t-193 -32h-491zM643 1057q-94 0 -94 -90v-500q0 -90 94 -90h225
q50 0 72.5 25t22.5 65v500q0 40 -22.5 65t-72.5 25h-225zM756 2044l467 -277l-99 -172l-370 127l-367 -127l-98 172z" />
    <glyph glyph-name="Otilde" unicode="&#xd5;" horiz-adv-x="1511" 
d="M510 0q-107 0 -192.5 32t-138.5 86t-81 122.5t-28 144.5v664q0 76 28 144.5t81 122.5t138.5 86t192.5 32h491q107 0 193 -32t139 -86t81 -122.5t28 -144.5v-664q0 -76 -28 -144.5t-81 -122.5t-139 -86t-193 -32h-491zM643 1057q-94 0 -94 -90v-500q0 -90 94 -90h225
q50 0 72.5 25t22.5 65v500q0 40 -22.5 65t-72.5 25h-225zM1081 1956l160 -105q-45 -71 -71.5 -109t-65.5 -82t-77 -62t-81 -17q-65 3 -125 27l-237 108l-156 -106l-158 104q33 53 56 87.5t53.5 73t57 60t59.5 36t67 14.5q61 0 127 -27l236 -109z" />
    <glyph glyph-name="Odieresis" unicode="&#xd6;" horiz-adv-x="1511" 
d="M510 0q-107 0 -192.5 32t-138.5 86t-81 122.5t-28 144.5v664q0 76 28 144.5t81 122.5t138.5 86t192.5 32h491q107 0 193 -32t139 -86t81 -122.5t28 -144.5v-664q0 -76 -28 -144.5t-81 -122.5t-139 -86t-193 -32h-491zM643 1057q-94 0 -94 -90v-500q0 -90 94 -90h225
q50 0 72.5 25t22.5 65v500q0 40 -22.5 65t-72.5 25h-225zM803 1772q0 91 64.5 153t156.5 62q93 0 157 -61.5t64 -153.5q0 -90 -64 -151.5t-157 -61.5q-92 0 -156.5 61.5t-64.5 151.5zM264 1772q0 91 64.5 153t156.5 62q93 0 157.5 -61.5t64.5 -153.5q0 -90 -64.5 -151.5
t-157.5 -61.5q-92 0 -156.5 61.5t-64.5 151.5z" />
    <glyph glyph-name="multiply" unicode="&#xd7;" horiz-adv-x="1304" 
d="M84 403l301 293l-303 293l280 281l295 -301l293 301l273 -273l-301 -292l301 -293l-281 -281l-293 301l-293 -301z" />
    <glyph glyph-name="Oslash" unicode="&#xd8;" horiz-adv-x="1511" 
d="M510 0q-52 0 -96 6l-115 -160l-211 154l86 121q-104 107 -104 264v664q0 76 28 144.5t81 122.5t138.5 86t192.5 32h491q49 0 109 -11l113 158l213 -145l-95 -131q101 -107 101 -256v-664q0 -76 -28 -144.5t-81 -122.5t-139 -86t-193 -32h-491zM643 1057q-94 0 -94 -90
v-408l350 494q-20 4 -31 4h-225zM868 377q50 0 72.5 25t22.5 65v375l-326 -465h6h225z" />
    <glyph glyph-name="Ugrave" unicode="&#xd9;" horiz-adv-x="1490" 
d="M549 467q0 -90 94 -90h205q94 0 94 90v967h479v-1049q0 -76 -28 -144.5t-81 -122.5t-138.5 -86t-192.5 -32h-471q-107 0 -192.5 32t-138.5 86t-81 122.5t-28 144.5v1049h479v-967zM528 2013l566 -274l-115 -199l-584 148z" />
    <glyph glyph-name="Uacute" unicode="&#xda;" horiz-adv-x="1490" 
d="M549 467q0 -90 94 -90h205q94 0 94 90v967h479v-1049q0 -76 -28 -144.5t-81 -122.5t-138.5 -86t-192.5 -32h-471q-107 0 -192.5 32t-138.5 86t-81 122.5t-28 144.5v1049h479v-967zM395 1739l566 274l133 -325l-584 -148z" />
    <glyph glyph-name="Ucircumflex" unicode="&#xdb;" horiz-adv-x="1490" 
d="M549 467q0 -90 94 -90h205q94 0 94 90v967h479v-1049q0 -76 -28 -144.5t-81 -122.5t-138.5 -86t-192.5 -32h-471q-107 0 -192.5 32t-138.5 86t-81 122.5t-28 144.5v1049h479v-967zM745 2044l467 -277l-98 -172l-371 127l-366 -127l-98 172z" />
    <glyph glyph-name="Udieresis" unicode="&#xdc;" horiz-adv-x="1490" 
d="M549 467q0 -90 94 -90h205q94 0 94 90v967h479v-1049q0 -76 -28 -144.5t-81 -122.5t-138.5 -86t-192.5 -32h-471q-107 0 -192.5 32t-138.5 86t-81 122.5t-28 144.5v1049h479v-967zM793 1772q0 91 64.5 153t156.5 62q93 0 157 -61.5t64 -153.5q0 -90 -64 -151.5
t-157 -61.5q-92 0 -156.5 61.5t-64.5 151.5zM254 1772q0 91 64.5 153t156.5 62q93 0 157 -61.5t64 -153.5q0 -90 -64 -151.5t-157 -61.5q-92 0 -156.5 61.5t-64.5 151.5z" />
    <glyph glyph-name="Yacute" unicode="&#xdd;" horiz-adv-x="1540" 
d="M508 1434l262 -480l262 480h541l-561 -1031v-403h-480v397l-565 1037h541zM420 1739l565 274l133 -325l-583 -148z" />
    <glyph glyph-name="Thorn" unicode="&#xde;" horiz-adv-x="1472" 
d="M565 172v-172h-479v1434h479v-205h416q107 0 192.5 -32t138.5 -86t81 -122.5t28 -144.5v-287q0 -76 -28 -144.5t-81 -122.5t-138.5 -86t-192.5 -32h-416zM942 639v123q0 90 -94 90h-283v-303h283q94 0 94 90z" />
    <glyph glyph-name="germandbls" unicode="&#xdf;" horiz-adv-x="1341" 
d="M0 1210h70v17q0 157 114 233t326 76h281q116 0 194 -17t135.5 -59.5t84 -118t26.5 -190.5v-96q0 -29 -3.5 -54t-8 -43.5t-15 -34.5t-17.5 -26.5t-22.5 -20t-23.5 -14.5t-26.5 -10t-26.5 -7t-28 -6t-26 -5q44 -1 77.5 -5.5t69.5 -19.5t58.5 -39.5t37.5 -67.5t15 -102v-215
q0 -153 -37 -238t-118 -121.5t-226 -37.5q-69 0 -143.5 13t-113.5 27l-40 13l-6 262l166 21q53 6 53 49v227q0 22 -14.5 35.5t-38.5 13.5h-149l-7 295h95q24 0 38.5 13.5t14.5 35.5v158q0 22 -14.5 35.5t-38.5 13.5h-125q-24 0 -38.5 -13.5t-14.5 -35.5v-1151h-465v850h-70
v360z" />
    <glyph glyph-name="agrave" unicode="&#xe0;" horiz-adv-x="1312" 
d="M174 1180q280 41 627 41q116 0 194.5 -17t136 -59.5t84 -118t25.5 -190.5v-836h-465v70q-157 -82 -264 -82h-37h-57q-59 0 -87 1t-73 5t-65 14t-49.5 28t-42 46t-26.5 68.5t-19 95.5t-5 127v102q0 52 6 93t14.5 73t27 56t35.5 40.5t48 28t56.5 18t69.5 10t77.5 4.5
t89.5 1h37q34 0 61 -1.5t56 -6.5t43.5 -8t51.5 -12t52 -13v61q-3 44 -23 60t-71 16h-506zM776 510q-153 20 -188 20h-19q-24 0 -38.5 -13.5t-14.5 -35.5v-139q0 -22 14.5 -35.5t38.5 -13.5h19q35 0 188 20v197zM440 1788l566 -275l-115 -198l-584 147z" />
    <glyph glyph-name="aacute" unicode="&#xe1;" horiz-adv-x="1312" 
d="M174 1180q280 41 627 41q116 0 194.5 -17t136 -59.5t84 -118t25.5 -190.5v-836h-465v70q-157 -82 -264 -82h-37h-57q-59 0 -87 1t-73 5t-65 14t-49.5 28t-42 46t-26.5 68.5t-19 95.5t-5 127v102q0 52 6 93t14.5 73t27 56t35.5 40.5t48 28t56.5 18t69.5 10t77.5 4.5
t89.5 1h37q34 0 61 -1.5t56 -6.5t43.5 -8t51.5 -12t52 -13v61q-3 44 -23 60t-71 16h-506zM776 510q-153 20 -188 20h-19q-24 0 -38.5 -13.5t-14.5 -35.5v-139q0 -22 14.5 -35.5t38.5 -13.5h19q35 0 188 20v197zM307 1513l565 275l134 -326l-584 -147z" />
    <glyph glyph-name="acircumflex" unicode="&#xe2;" horiz-adv-x="1312" 
d="M174 1180q280 41 627 41q116 0 194.5 -17t136 -59.5t84 -118t25.5 -190.5v-836h-465v70q-157 -82 -264 -82h-37h-57q-59 0 -87 1t-73 5t-65 14t-49.5 28t-42 46t-26.5 68.5t-19 95.5t-5 127v102q0 52 6 93t14.5 73t27 56t35.5 40.5t48 28t56.5 18t69.5 10t77.5 4.5
t89.5 1h37q34 0 61 -1.5t56 -6.5t43.5 -8t51.5 -12t52 -13v61q-3 44 -23 60t-71 16h-506zM776 510q-153 20 -188 20h-19q-24 0 -38.5 -13.5t-14.5 -35.5v-139q0 -22 14.5 -35.5t38.5 -13.5h19q35 0 188 20v197zM696 1819l467 -277l-98 -172l-371 127l-366 -127l-99 172z" />
    <glyph glyph-name="atilde" unicode="&#xe3;" horiz-adv-x="1312" 
d="M174 1180q280 41 627 41q116 0 194.5 -17t136 -59.5t84 -118t25.5 -190.5v-836h-465v70q-157 -82 -264 -82h-37h-57q-59 0 -87 1t-73 5t-65 14t-49.5 28t-42 46t-26.5 68.5t-19 95.5t-5 127v102q0 52 6 93t14.5 73t27 56t35.5 40.5t48 28t56.5 18t69.5 10t77.5 4.5
t89.5 1h37q34 0 61 -1.5t56 -6.5t43.5 -8t51.5 -12t52 -13v61q-3 44 -23 60t-71 16h-506zM776 510q-153 20 -188 20h-19q-24 0 -38.5 -13.5t-14.5 -35.5v-139q0 -22 14.5 -35.5t38.5 -13.5h19q35 0 188 20v197zM1022 1731l160 -105q-45 -71 -71.5 -109t-65.5 -82t-77 -62
t-81 -17q-68 3 -125 26l-238 109l-155 -107l-158 105q41 67 70 108t66.5 82.5t76 60.5t80.5 19q63 0 127 -26l235 -109z" />
    <glyph glyph-name="adieresis" unicode="&#xe4;" horiz-adv-x="1312" 
d="M174 1180q280 41 627 41q116 0 194.5 -17t136 -59.5t84 -118t25.5 -190.5v-836h-465v70q-157 -82 -264 -82h-37h-57q-59 0 -87 1t-73 5t-65 14t-49.5 28t-42 46t-26.5 68.5t-19 95.5t-5 127v102q0 52 6 93t14.5 73t27 56t35.5 40.5t48 28t56.5 18t69.5 10t77.5 4.5
t89.5 1h37q34 0 61 -1.5t56 -6.5t43.5 -8t51.5 -12t52 -13v61q-3 44 -23 60t-71 16h-506zM776 510q-153 20 -188 20h-19q-24 0 -38.5 -13.5t-14.5 -35.5v-139q0 -22 14.5 -35.5t38.5 -13.5h19q35 0 188 20v197zM715 1546q0 91 64.5 153t156.5 62q93 0 157 -61.5t64 -153.5
q0 -90 -64 -151.5t-157 -61.5q-92 0 -156.5 61.5t-64.5 151.5zM176 1546q0 91 64.5 153t156.5 62q93 0 157 -61.5t64 -153.5q0 -90 -64 -151.5t-157 -61.5q-92 0 -156.5 61.5t-64.5 151.5z" />
    <glyph glyph-name="aring" unicode="&#xe5;" horiz-adv-x="1312" 
d="M174 1180q280 41 627 41q116 0 194.5 -17t136 -59.5t84 -118t25.5 -190.5v-836h-465v70q-157 -82 -264 -82h-37h-57q-59 0 -87 1t-73 5t-65 14t-49.5 28t-42 46t-26.5 68.5t-19 95.5t-5 127v102q0 52 6 93t14.5 73t27 56t35.5 40.5t48 28t56.5 18t69.5 10t77.5 4.5
t89.5 1h37q34 0 61 -1.5t56 -6.5t43.5 -8t51.5 -12t52 -13v61q-3 44 -23 60t-71 16h-506zM776 510q-153 20 -188 20h-19q-24 0 -38.5 -13.5t-14.5 -35.5v-139q0 -22 14.5 -35.5t38.5 -13.5h19q35 0 188 20v197zM827 1794q101 0 157 -58t56 -139v-86q0 -81 -56 -138.5
t-157 -57.5h-241q-101 0 -157 57.5t-56 138.5v86q0 81 56 139t157 58h241zM791 1501q22 0 22 21v65q0 19 -22 19h-170q-23 0 -23 -19v-65q0 -21 23 -21h170z" />
    <glyph glyph-name="ae" unicode="&#xe6;" horiz-adv-x="2007" 
d="M176 895l-2 285q259 41 606 41q88 0 147 -15t105 -61q56 63 205 63h268q107 0 193 -32t139 -86t81 -122.5t28 -144.5v-299q0 -21 -3 -25.5t-18 -4.5h-684v-109q0 -22 14.5 -35.5t38.5 -13.5h586l-6 -285q-35 -7 -95.5 -17t-233.5 -27t-328 -17q-129 0 -214 21t-137 73
q-71 -35 -185 -65.5t-169 -30.5h-37h-57q-59 0 -87 1t-73 5t-65 14t-49.5 28t-42 46t-26.5 68.5t-19 95.5t-5 127v102q0 52 6 93t14.5 73t27 56t35.5 40.5t48 28t56.5 18t69.5 10t77.5 4.5t89.5 1h37q107 0 264 -82v88q0 54 -19 72t-75 18h-506zM778 367l-2 147
q-161 21 -188 21h-19q-24 0 -38.5 -14t-14.5 -36v-143q0 -22 14.5 -35.5t38.5 -13.5h19q21 0 46.5 2t70 6.5t77.5 7.5q-4 44 -4 58zM1458 915h-133q-38 0 -60 -19.5t-24 -53.5v-133l301 6v121q0 37 -22 58t-62 21z" />
    <glyph glyph-name="ccedilla" unicode="&#xe7;" horiz-adv-x="1169" 
d="M1116 346l2 -305q-30 -6 -84 -14.5t-215.5 -22.5t-316.5 -14q-116 0 -194 17t-136 59.5t-84.5 118t-26.5 190.5v461q0 115 26.5 190.5t84.5 118t136 59.5t194 17q155 0 309 -7.5t231 -15.5l76 -8v-326h-538q-25 0 -39.5 -13.5t-14.5 -35.5v-420q0 -22 14.5 -35.5
t39.5 -13.5h536zM399 -45h299q57 0 81.5 -1t58.5 -6.5t46 -17.5t26.5 -35t18 -57t3.5 -86v-90q0 -30 -4.5 -53.5t-16.5 -40.5t-23.5 -29t-35 -19.5t-41.5 -12t-52 -6.5t-56.5 -2.5t-65.5 -0.5q-55 0 -145 10t-153 20l-63 11l7 174h356q15 0 17.5 1t2.5 7v25q0 8 -2.5 9
t-17.5 1h-240v199z" />
    <glyph glyph-name="egrave" unicode="&#xe8;" horiz-adv-x="1292" 
d="M1165 336l-6 -295q-35 -6 -95.5 -14.5t-233.5 -22.5t-328 -14q-116 0 -194 17t-136 59.5t-84.5 118t-26.5 190.5v448q0 76 28 144.5t81 122.5t139 86t193 32h289q107 0 192.5 -32t138.5 -86t81 -122.5t28 -144.5v-340q0 -21 -3 -25.5t-18 -4.5h-684v-68q0 -22 14.5 -35.5
t39.5 -13.5h585zM807 696v109q0 37 -22.5 58.5t-61.5 21.5h-113q-39 0 -61.5 -21.5t-22.5 -58.5v-117zM430 1788l565 -275l-114 -198l-584 147z" />
    <glyph glyph-name="eacute" unicode="&#xe9;" horiz-adv-x="1292" 
d="M1165 336l-6 -295q-35 -6 -95.5 -14.5t-233.5 -22.5t-328 -14q-116 0 -194 17t-136 59.5t-84.5 118t-26.5 190.5v448q0 76 28 144.5t81 122.5t139 86t193 32h289q107 0 192.5 -32t138.5 -86t81 -122.5t28 -144.5v-340q0 -21 -3 -25.5t-18 -4.5h-684v-68q0 -22 14.5 -35.5
t39.5 -13.5h585zM807 696v109q0 37 -22.5 58.5t-61.5 21.5h-113q-39 0 -61.5 -21.5t-22.5 -58.5v-117zM299 1513l565 275l133 -326l-583 -147z" />
    <glyph glyph-name="ecircumflex" unicode="&#xea;" horiz-adv-x="1292" 
d="M1165 336l-6 -295q-35 -6 -95.5 -14.5t-233.5 -22.5t-328 -14q-116 0 -194 17t-136 59.5t-84.5 118t-26.5 190.5v448q0 76 28 144.5t81 122.5t139 86t193 32h289q107 0 192.5 -32t138.5 -86t81 -122.5t28 -144.5v-340q0 -21 -3 -25.5t-18 -4.5h-684v-68q0 -22 14.5 -35.5
t39.5 -13.5h585zM807 696v109q0 37 -22.5 58.5t-61.5 21.5h-113q-39 0 -61.5 -21.5t-22.5 -58.5v-117zM645 1819l467 -277l-98 -172l-371 127l-367 -127l-98 172z" />
    <glyph glyph-name="edieresis" unicode="&#xeb;" horiz-adv-x="1292" 
d="M1165 336l-6 -295q-35 -6 -95.5 -14.5t-233.5 -22.5t-328 -14q-116 0 -194 17t-136 59.5t-84.5 118t-26.5 190.5v448q0 76 28 144.5t81 122.5t139 86t193 32h289q107 0 192.5 -32t138.5 -86t81 -122.5t28 -144.5v-340q0 -21 -3 -25.5t-18 -4.5h-684v-68q0 -22 14.5 -35.5
t39.5 -13.5h585zM807 696v109q0 37 -22.5 58.5t-61.5 21.5h-113q-39 0 -61.5 -21.5t-22.5 -58.5v-117zM694 1546q0 91 64.5 153t156.5 62q93 0 157.5 -61.5t64.5 -153.5q0 -90 -64.5 -151.5t-157.5 -61.5q-92 0 -156.5 61.5t-64.5 151.5zM156 1546q0 91 64.5 153t156.5 62
q93 0 157 -61.5t64 -153.5q0 -90 -64 -151.5t-157 -61.5q-92 0 -156.5 61.5t-64.5 151.5z" />
    <glyph glyph-name="igrave" unicode="&#xec;" horiz-adv-x="612" 
d="M539 1208v-1208h-465v1208h465zM49 1788l565 -275l-114 -198l-584 147z" />
    <glyph glyph-name="iacute" unicode="&#xed;" horiz-adv-x="612" 
d="M539 1208v-1208h-465v1208h465zM-2 1513l565 275l133 -326l-583 -147z" />
    <glyph glyph-name="icircumflex" unicode="&#xee;" horiz-adv-x="612" 
d="M539 1208v-1208h-465v1208h465zM307 1819l467 -277l-98 -172l-371 127l-366 -127l-99 172z" />
    <glyph glyph-name="idieresis" unicode="&#xef;" horiz-adv-x="612" 
d="M539 1208v-1208h-465v1208h465zM354 1546q0 91 64.5 153t156.5 62q93 0 157.5 -61.5t64.5 -153.5q0 -90 -64.5 -151.5t-157.5 -61.5q-92 0 -156.5 61.5t-64.5 151.5zM-184 1546q0 91 64.5 153t156.5 62q93 0 157 -61.5t64 -153.5q0 -90 -64 -151.5t-157 -61.5
q-92 0 -156.5 61.5t-64.5 151.5z" />
    <glyph glyph-name="eth" unicode="&#xf0;" 
d="M786 1139v102l-4 29l-231 -21l-16 197l210 18q-16 34 -27 61.5t-14 38.5l-4 11l322 41q49 -49 111 -115l196 19l17 -197l-103 -10q0 -4 2.5 -15.5t4 -25t1.5 -31.5v-1241h-465v70q-157 -82 -264 -82h-37q-111 1 -186.5 18.5t-131 60.5t-81 118t-25.5 188v463
q0 113 25.5 188t81 118t131 60.5t186.5 18.5h37q107 0 264 -82zM598 354q27 0 188 21v459q-153 20 -188 20h-18q-25 0 -39.5 -13.5t-14.5 -35.5v-402q0 -22 14.5 -35.5t39.5 -13.5h18z" />
    <glyph glyph-name="ntilde" unicode="&#xf1;" 
d="M70 0v1208h465v-69q157 82 264 82h37q111 -1 186.5 -18.5t131 -60.5t81 -118t25.5 -188v-836h-465v805q0 22 -14.5 35.5t-39.5 13.5h-18q-35 0 -188 -20v-834h-465zM985 1731l160 -105q-45 -71 -71.5 -109t-65.5 -82t-77 -62t-81 -17q-68 3 -125 26l-238 109l-155 -107
l-158 105q41 67 70 108t66.5 82.5t76 60.5t80.5 19q63 0 127 -26l235 -109z" />
    <glyph glyph-name="ograve" unicode="&#xf2;" horiz-adv-x="1333" 
d="M852 1229q116 0 194 -17t135.5 -59.5t84 -118t26.5 -190.5v-471q0 -115 -26.5 -190.5t-84 -118t-135.5 -59.5t-194 -17h-350q-116 0 -194 17t-136 59.5t-84.5 118t-26.5 190.5v471q0 115 26.5 190.5t84.5 118t136 59.5t194 17h350zM774 324q24 0 38.5 13.5t14.5 35.5v471
q0 22 -14.5 35.5t-38.5 13.5h-194q-25 0 -39.5 -13.5t-14.5 -35.5v-471q0 -22 14.5 -35.5t39.5 -13.5h194zM451 1788l565 -275l-115 -198l-584 147z" />
    <glyph glyph-name="oacute" unicode="&#xf3;" horiz-adv-x="1333" 
d="M852 1229q116 0 194 -17t135.5 -59.5t84 -118t26.5 -190.5v-471q0 -115 -26.5 -190.5t-84 -118t-135.5 -59.5t-194 -17h-350q-116 0 -194 17t-136 59.5t-84.5 118t-26.5 190.5v471q0 115 26.5 190.5t84.5 118t136 59.5t194 17h350zM774 324q24 0 38.5 13.5t14.5 35.5v471
q0 22 -14.5 35.5t-38.5 13.5h-194q-25 0 -39.5 -13.5t-14.5 -35.5v-471q0 -22 14.5 -35.5t39.5 -13.5h194zM317 1513l566 275l133 -326l-584 -147z" />
    <glyph glyph-name="ocircumflex" unicode="&#xf4;" horiz-adv-x="1333" 
d="M852 1229q116 0 194 -17t135.5 -59.5t84 -118t26.5 -190.5v-471q0 -115 -26.5 -190.5t-84 -118t-135.5 -59.5t-194 -17h-350q-116 0 -194 17t-136 59.5t-84.5 118t-26.5 190.5v471q0 115 26.5 190.5t84.5 118t136 59.5t194 17h350zM774 324q24 0 38.5 13.5t14.5 35.5v471
q0 22 -14.5 35.5t-38.5 13.5h-194q-25 0 -39.5 -13.5t-14.5 -35.5v-471q0 -22 14.5 -35.5t39.5 -13.5h194zM666 1819l467 -277l-99 -172l-370 127l-367 -127l-98 172z" />
    <glyph glyph-name="otilde" unicode="&#xf5;" horiz-adv-x="1333" 
d="M852 1229q116 0 194 -17t135.5 -59.5t84 -118t26.5 -190.5v-471q0 -115 -26.5 -190.5t-84 -118t-135.5 -59.5t-194 -17h-350q-116 0 -194 17t-136 59.5t-84.5 118t-26.5 190.5v471q0 115 26.5 190.5t84.5 118t136 59.5t194 17h350zM774 324q24 0 38.5 13.5t14.5 35.5v471
q0 22 -14.5 35.5t-38.5 13.5h-194q-25 0 -39.5 -13.5t-14.5 -35.5v-471q0 -22 14.5 -35.5t39.5 -13.5h194zM991 1731l160 -105q-45 -71 -71.5 -109t-65.5 -82t-77 -62t-81 -17q-68 3 -125 26l-237 109l-156 -107l-158 105q41 67 70 108t66.5 82.5t76 60.5t80.5 19
q63 0 127 -26l236 -109z" />
    <glyph glyph-name="odieresis" unicode="&#xf6;" horiz-adv-x="1333" 
d="M852 1229q116 0 194 -17t135.5 -59.5t84 -118t26.5 -190.5v-471q0 -115 -26.5 -190.5t-84 -118t-135.5 -59.5t-194 -17h-350q-116 0 -194 17t-136 59.5t-84.5 118t-26.5 190.5v471q0 115 26.5 190.5t84.5 118t136 59.5t194 17h350zM774 324q24 0 38.5 13.5t14.5 35.5v471
q0 22 -14.5 35.5t-38.5 13.5h-194q-25 0 -39.5 -13.5t-14.5 -35.5v-471q0 -22 14.5 -35.5t39.5 -13.5h194zM725 1546q0 91 64.5 153t156.5 62q93 0 157 -61.5t64 -153.5q0 -90 -64 -151.5t-157 -61.5q-92 0 -156.5 61.5t-64.5 151.5zM186 1546q0 91 65 153t157 62
q93 0 157 -61.5t64 -153.5q0 -90 -64 -151.5t-157 -61.5q-92 0 -157 61.5t-65 151.5z" />
    <glyph glyph-name="divide" unicode="&#xf7;" horiz-adv-x="1310" 
d="M1217 541h-1123v360h1123v-360zM393 1184q0 106 76 179t184 73t184 -73t76 -179t-76 -179t-184 -73t-184 73t-76 179zM393 260q0 106 76 179t184 73t184 -73t76 -179t-76 -179t-184 -73t-184 73t-76 179z" />
    <glyph glyph-name="oslash" unicode="&#xf8;" horiz-adv-x="1357" 
d="M852 1229q64 0 123 -6l108 151l213 -145l-79 -111q75 -87 75 -274v-471q0 -115 -26.5 -190.5t-84 -118t-135.5 -59.5t-194 -17h-350q-36 0 -94 4l-109 -152l-211 154l64 88q-91 88 -91 291v471q0 115 26.5 190.5t84.5 118t136 59.5t194 17h350zM526 844v-324l262 371
q-4 2 -14 2h-194q-25 0 -39.5 -13.5t-14.5 -35.5zM774 324q24 0 38.5 13.5t14.5 35.5v270l-223 -319h170z" />
    <glyph glyph-name="ugrave" unicode="&#xf9;" 
d="M1251 1208v-1208h-465v70q-157 -82 -264 -82h-37q-111 1 -186.5 18.5t-131 60.5t-81 118t-25.5 188v835h465v-805q0 -22 14.5 -35.5t39.5 -13.5h18q27 0 188 21v833h465zM444 1788l566 -275l-115 -198l-584 147z" />
    <glyph glyph-name="uacute" unicode="&#xfa;" 
d="M1251 1208v-1208h-465v70q-157 -82 -264 -82h-37q-111 1 -186.5 18.5t-131 60.5t-81 118t-25.5 188v835h465v-805q0 -22 14.5 -35.5t39.5 -13.5h18q27 0 188 21v833h465zM311 1513l566 275l133 -326l-584 -147z" />
    <glyph glyph-name="ucircumflex" unicode="&#xfb;" 
d="M1251 1208v-1208h-465v70q-157 -82 -264 -82h-37q-111 1 -186.5 18.5t-131 60.5t-81 118t-25.5 188v835h465v-805q0 -22 14.5 -35.5t39.5 -13.5h18q27 0 188 21v833h465zM659 1819l467 -277l-98 -172l-371 127l-366 -127l-98 172z" />
    <glyph glyph-name="udieresis" unicode="&#xfc;" 
d="M1251 1208v-1208h-465v70q-157 -82 -264 -82h-37q-111 1 -186.5 18.5t-131 60.5t-81 118t-25.5 188v835h465v-805q0 -22 14.5 -35.5t39.5 -13.5h18q27 0 188 21v833h465zM694 1546q0 91 64.5 153t156.5 62q93 0 157.5 -61.5t64.5 -153.5q0 -90 -64.5 -151.5t-157.5 -61.5
q-92 0 -156.5 61.5t-64.5 151.5zM156 1546q0 91 64.5 153t156.5 62q93 0 157 -61.5t64 -153.5q0 -90 -64 -151.5t-157 -61.5q-92 0 -156.5 61.5t-64.5 151.5z" />
    <glyph glyph-name="yacute" unicode="&#xfd;" horiz-adv-x="1327" 
d="M258 -264l2 264h201q23 0 34.5 12.5t18.5 36.5l10 39h-73q-39 0 -72 28t-47 56l-13 27l-344 1009h521l174 -643h14l147 643h521l-365 -1169q-25 -81 -44 -130.5t-45.5 -94.5t-54.5 -68.5t-71.5 -41.5t-96 -24t-128.5 -6q-59 0 -131.5 15.5t-115.5 30.5zM313 1513l566 275
l133 -326l-584 -147z" />
    <glyph glyph-name="thorn" unicode="&#xfe;" 
d="M70 -303v1819h465v-377q157 82 264 82h37q111 -1 186.5 -18.5t131 -60.5t81 -118t25.5 -188v-463q0 -113 -25.5 -188t-81 -118t-131 -60.5t-186.5 -18.5h-37q-107 0 -264 82v-373h-465zM535 834v-459q161 -21 188 -21h18q25 0 39.5 13.5t14.5 35.5v402q0 22 -14.5 35.5
t-39.5 13.5h-18q-35 0 -188 -20z" />
    <glyph glyph-name="ydieresis" unicode="&#xff;" horiz-adv-x="1327" 
d="M258 -264l2 264h201q23 0 34.5 12.5t18.5 36.5l10 39h-73q-39 0 -72 28t-47 56l-13 27l-344 1009h521l174 -643h14l147 643h521l-365 -1169q-25 -81 -44 -130.5t-45.5 -94.5t-54.5 -68.5t-71.5 -41.5t-96 -24t-128.5 -6q-59 0 -131.5 15.5t-115.5 30.5zM711 1546
q0 91 64.5 153t156.5 62q93 0 157 -61.5t64 -153.5q0 -90 -64 -151.5t-157 -61.5q-92 0 -156.5 61.5t-64.5 151.5zM172 1546q0 91 64.5 153t156.5 62q93 0 157 -61.5t64 -153.5q0 -90 -64 -151.5t-157 -61.5q-92 0 -156.5 61.5t-64.5 151.5z" />
    <glyph glyph-name="Amacron" unicode="&#x100;" horiz-adv-x="1564" 
d="M1075 0l-69 272h-447l-70 -272h-509q386 1245 423 1362q17 53 34 62.5t89 9.5h512q72 0 89 -9.5t34 -62.5l424 -1362h-510zM762 1077l-107 -415h254l-106 415h-41zM383 1546v271h799v-271h-799z" />
    <glyph glyph-name="amacron" unicode="&#x101;" horiz-adv-x="1312" 
d="M174 1180q280 41 627 41q116 0 194.5 -17t136 -59.5t84 -118t25.5 -190.5v-836h-465v70q-157 -82 -264 -82h-37h-57q-59 0 -87 1t-73 5t-65 14t-49.5 28t-42 46t-26.5 68.5t-19 95.5t-5 127v102q0 52 6 93t14.5 73t27 56t35.5 40.5t48 28t56.5 18t69.5 10t77.5 4.5
t89.5 1h37q34 0 61 -1.5t56 -6.5t43.5 -8t51.5 -12t52 -13v61q-3 44 -23 60t-71 16h-506zM776 510q-153 20 -188 20h-19q-24 0 -38.5 -13.5t-14.5 -35.5v-139q0 -22 14.5 -35.5t38.5 -13.5h19q35 0 188 20v197zM256 1321v270h799v-270h-799z" />
    <glyph glyph-name="Abreve" unicode="&#x102;" horiz-adv-x="1564" 
d="M1075 0l-69 272h-447l-70 -272h-509q386 1245 423 1362q17 53 34 62.5t89 9.5h512q72 0 89 -9.5t34 -62.5l424 -1362h-510zM762 1077l-107 -415h254l-106 415h-41zM905 1823h258v-62q0 -98 -67 -166.5t-189 -68.5h-250q-122 0 -189 68.5t-67 166.5v62h258v-41
q0 -16 16 -27.5t44 -11.5h127q28 0 43.5 11.5t15.5 27.5v41z" />
    <glyph glyph-name="abreve" unicode="&#x103;" horiz-adv-x="1312" 
d="M174 1180q280 41 627 41q116 0 194.5 -17t136 -59.5t84 -118t25.5 -190.5v-836h-465v70q-157 -82 -264 -82h-37h-57q-59 0 -87 1t-73 5t-65 14t-49.5 28t-42 46t-26.5 68.5t-19 95.5t-5 127v102q0 52 6 93t14.5 73t27 56t35.5 40.5t48 28t56.5 18t69.5 10t77.5 4.5
t89.5 1h37q34 0 61 -1.5t56 -6.5t43.5 -8t51.5 -12t52 -13v61q-3 44 -23 60t-71 16h-506zM776 510q-153 20 -188 20h-19q-24 0 -38.5 -13.5t-14.5 -35.5v-139q0 -22 14.5 -35.5t38.5 -13.5h19q35 0 188 20v197zM778 1597h258v-61q0 -98 -67 -167t-189 -69h-250
q-122 0 -189 69t-67 167v61h258v-41q0 -16 16 -27t44 -11h127q28 0 43.5 11t15.5 27v41z" />
    <glyph glyph-name="Aogonek" unicode="&#x104;" horiz-adv-x="1564" 
d="M1075 0l-69 272h-447l-70 -272h-509q386 1245 423 1362q17 53 34 62.5t89 9.5h512q72 0 89 -9.5t34 -62.5l424 -1362h-274q-66 -74 -66 -115v-30q1 -13 19 -13h26q15 0 23.5 2t11.5 9.5t3.5 12t0.5 17.5v49h230v-163q0 -67 -54.5 -109.5t-142.5 -42.5h-234
q-105 0 -140.5 41.5t-35.5 163.5v28q0 89 125 150h-2zM762 1077l-107 -415h254l-106 415h-41z" />
    <glyph glyph-name="aogonek" unicode="&#x105;" horiz-adv-x="1312" 
d="M174 1180q280 41 627 41q116 0 194.5 -17t136 -59.5t84 -118t25.5 -190.5v-836h-246q-65 -72 -65 -115v-30q0 -13 18 -13h27q15 0 23.5 2t11.5 9.5t3.5 12t0.5 17.5v49h229v-163q0 -67 -54 -109.5t-142 -42.5h-234q-105 0 -140.5 41.5t-35.5 163.5v28q0 92 139 156v64
q-157 -82 -264 -82h-37h-57q-59 0 -87 1t-73 5t-65 14t-49.5 28t-42 46t-26.5 68.5t-19 95.5t-5 127v102q0 52 6 93t14.5 73t27 56t35.5 40.5t48 28t56.5 18t69.5 10t77.5 4.5t89.5 1h37q34 0 61 -1.5t56 -6.5t43.5 -8t51.5 -12t52 -13v61q-3 44 -23 60t-71 16h-506z
M776 510q-153 20 -188 20h-19q-24 0 -38.5 -13.5t-14.5 -35.5v-139q0 -22 14.5 -35.5t38.5 -13.5h19q35 0 188 20v197z" />
    <glyph glyph-name="Cacute" unicode="&#x106;" horiz-adv-x="1314" 
d="M1253 1419l-4 -381h-606q-94 0 -94 -90v-463q0 -90 94 -90h606l4 -372q-416 -35 -743 -35q-107 0 -192.5 32t-138.5 86t-81 122.5t-28 144.5v688q0 76 28 144.5t81 122.5t138.5 86t192.5 32q146 0 331.5 -7t298.5 -13zM369 1739l565 274l133 -325l-584 -148z" />
    <glyph glyph-name="cacute" unicode="&#x107;" horiz-adv-x="1169" 
d="M1116 346l2 -305q-30 -6 -84 -14.5t-215.5 -22.5t-316.5 -14q-116 0 -194 17t-136 59.5t-84.5 118t-26.5 190.5v461q0 115 26.5 190.5t84.5 118t136 59.5t194 17q155 0 309 -7.5t231 -15.5l76 -8v-326h-538q-25 0 -39.5 -13.5t-14.5 -35.5v-420q0 -22 14.5 -35.5
t39.5 -13.5h536zM276 1513l566 275l133 -326l-584 -147z" />
    <glyph glyph-name="Cdotaccent" unicode="&#x10a;" horiz-adv-x="1314" 
d="M1253 1419l-4 -381h-606q-94 0 -94 -90v-463q0 -90 94 -90h606l4 -372q-416 -35 -743 -35q-107 0 -192.5 32t-138.5 86t-81 122.5t-28 144.5v688q0 76 28 144.5t81 122.5t138.5 86t192.5 32q146 0 331.5 -7t298.5 -13zM498 1731q0 91 64.5 153t156.5 62q93 0 157 -61.5
t64 -153.5q0 -90 -64 -151.5t-157 -61.5q-92 0 -156.5 61.5t-64.5 151.5z" />
    <glyph glyph-name="cdotaccent" unicode="&#x10b;" horiz-adv-x="1169" 
d="M1116 346l2 -305q-30 -6 -84 -14.5t-215.5 -22.5t-316.5 -14q-116 0 -194 17t-136 59.5t-84.5 118t-26.5 190.5v461q0 115 26.5 190.5t84.5 118t136 59.5t194 17q155 0 309 -7.5t231 -15.5l76 -8v-326h-538q-25 0 -39.5 -13.5t-14.5 -35.5v-420q0 -22 14.5 -35.5
t39.5 -13.5h536zM403 1505q0 91 65 153t157 62q93 0 157 -61.5t64 -153.5q0 -90 -64 -151.5t-157 -61.5q-92 0 -157 61.5t-65 151.5z" />
    <glyph glyph-name="Ccaron" unicode="&#x10c;" horiz-adv-x="1314" 
d="M1253 1419l-4 -381h-606q-94 0 -94 -90v-463q0 -90 94 -90h606l4 -372q-416 -35 -743 -35q-107 0 -192.5 32t-138.5 86t-81 122.5t-28 144.5v688q0 76 28 144.5t81 122.5t138.5 86t192.5 32q146 0 331.5 -7t298.5 -13zM1165 1851l-467 -276l-467 276l99 172l366 -129
l371 129z" />
    <glyph glyph-name="ccaron" unicode="&#x10d;" horiz-adv-x="1169" 
d="M1116 346l2 -305q-30 -6 -84 -14.5t-215.5 -22.5t-316.5 -14q-116 0 -194 17t-136 59.5t-84.5 118t-26.5 190.5v461q0 115 26.5 190.5t84.5 118t136 59.5t194 17q155 0 309 -7.5t231 -15.5l76 -8v-326h-538q-25 0 -39.5 -13.5t-14.5 -35.5v-420q0 -22 14.5 -35.5
t39.5 -13.5h536zM1081 1626l-467 -276l-467 276l99 172l366 -129l371 129z" />
    <glyph glyph-name="Dcaron" unicode="&#x10e;" horiz-adv-x="1511" 
d="M86 0v1434h915q107 0 193 -32t139 -86t81 -122.5t28 -144.5v-664q0 -76 -28 -144.5t-81 -122.5t-139 -86t-193 -32h-915zM963 467v500q0 40 -22.5 65t-72.5 25h-303v-680h303q50 0 72.5 25t22.5 65zM1182 1851l-467 -276l-467 276l98 172l367 -129l370 129z" />
    <glyph glyph-name="dcaron" unicode="&#x10f;" horiz-adv-x="1406" 
d="M786 1139v377h465v-1516h-465v70q-157 -82 -264 -82h-37q-111 1 -186.5 18.5t-131 60.5t-81 118t-25.5 188v463q0 113 25.5 188t81 118t131 60.5t186.5 18.5h37q107 0 264 -82zM598 354q27 0 188 21v459q-153 20 -188 20h-18q-25 0 -39.5 -13.5t-14.5 -35.5v-402
q0 -22 14.5 -35.5t39.5 -13.5h18zM1405 1516h354v-166q0 -45 -20.5 -105t-49.5 -113.5t-58 -100.5t-49 -75l-21 -28l-187 69l31 306v213z" />
    <glyph glyph-name="Dcroat" unicode="&#x110;" horiz-adv-x="1613" 
d="M188 0v549h-141v346h141v539h916q107 0 192.5 -32t138.5 -86t81 -122.5t28 -144.5v-664q0 -76 -28 -144.5t-81 -122.5t-138.5 -86t-192.5 -32h-916zM1065 467v500q0 90 -94 90h-303v-162h229v-346h-229v-172h303q94 0 94 90z" />
    <glyph glyph-name="dcroat" unicode="&#x111;" 
d="M786 1139v121h-292v194h292v113h465v-113h123v-194h-123v-1260h-465v70q-157 -82 -264 -82h-37q-111 1 -186.5 18.5t-131 60.5t-81 118t-25.5 188v463q0 113 25.5 188t81 118t131 60.5t186.5 18.5h37q107 0 264 -82zM598 354q27 0 188 21v459q-153 20 -188 20h-18
q-25 0 -39.5 -13.5t-14.5 -35.5v-402q0 -22 14.5 -35.5t39.5 -13.5h18z" />
    <glyph glyph-name="Emacron" unicode="&#x112;" horiz-adv-x="1333" 
d="M86 0v1434h1161v-379h-682v-140h557v-389h-557v-127h678v-399h-1157zM266 1546v271h799v-271h-799z" />
    <glyph glyph-name="emacron" unicode="&#x113;" horiz-adv-x="1292" 
d="M1165 336l-6 -295q-35 -6 -95.5 -14.5t-233.5 -22.5t-328 -14q-116 0 -194 17t-136 59.5t-84.5 118t-26.5 190.5v448q0 76 28 144.5t81 122.5t139 86t193 32h289q107 0 192.5 -32t138.5 -86t81 -122.5t28 -144.5v-340q0 -21 -3 -25.5t-18 -4.5h-684v-68q0 -22 14.5 -35.5
t39.5 -13.5h585zM807 696v109q0 37 -22.5 58.5t-61.5 21.5h-113q-39 0 -61.5 -21.5t-22.5 -58.5v-117zM246 1321v270h798v-270h-798z" />
    <glyph glyph-name="Ebreve" unicode="&#x114;" horiz-adv-x="1333" 
d="M86 0v1434h1161v-379h-682v-140h557v-389h-557v-127h678v-399h-1157zM788 1823h259v-62q0 -98 -67 -166.5t-189 -68.5h-250q-122 0 -189 68.5t-67 166.5v62h258v-41q0 -16 15.5 -27.5t43.5 -11.5h127q28 0 43.5 11.5t15.5 27.5v41z" />
    <glyph glyph-name="ebreve" unicode="&#x115;" horiz-adv-x="1292" 
d="M1165 336l-6 -295q-35 -6 -95.5 -14.5t-233.5 -22.5t-328 -14q-116 0 -194 17t-136 59.5t-84.5 118t-26.5 190.5v448q0 76 28 144.5t81 122.5t139 86t193 32h289q107 0 192.5 -32t138.5 -86t81 -122.5t28 -144.5v-340q0 -21 -3 -25.5t-18 -4.5h-684v-68q0 -22 14.5 -35.5
t39.5 -13.5h585zM807 696v109q0 37 -22.5 58.5t-61.5 21.5h-113q-39 0 -61.5 -21.5t-22.5 -58.5v-117zM768 1597h258v-61q0 -98 -67 -167t-189 -69h-250q-122 0 -189 69t-67 167v61h258v-41q0 -16 16 -27t44 -11h127q28 0 43.5 11t15.5 27v41z" />
    <glyph glyph-name="Edotaccent" unicode="&#x116;" horiz-adv-x="1333" 
d="M86 0v1434h1161v-379h-682v-140h557v-389h-557v-127h678v-399h-1157zM444 1731q0 91 65 153t157 62q93 0 157 -61.5t64 -153.5q0 -90 -64 -151.5t-157 -61.5q-92 0 -157 61.5t-65 151.5z" />
    <glyph glyph-name="edotaccent" unicode="&#x117;" horiz-adv-x="1292" 
d="M1165 336l-6 -295q-35 -6 -95.5 -14.5t-233.5 -22.5t-328 -14q-116 0 -194 17t-136 59.5t-84.5 118t-26.5 190.5v448q0 76 28 144.5t81 122.5t139 86t193 32h289q107 0 192.5 -32t138.5 -86t81 -122.5t28 -144.5v-340q0 -21 -3 -25.5t-18 -4.5h-684v-68q0 -22 14.5 -35.5
t39.5 -13.5h585zM807 696v109q0 37 -22.5 58.5t-61.5 21.5h-113q-39 0 -61.5 -21.5t-22.5 -58.5v-117zM424 1505q0 91 64.5 153t156.5 62q93 0 157 -61.5t64 -153.5q0 -90 -64 -151.5t-157 -61.5q-92 0 -156.5 61.5t-64.5 151.5z" />
    <glyph glyph-name="Eogonek" unicode="&#x118;" horiz-adv-x="1333" 
d="M86 0v1434h1161v-379h-682v-140h557v-389h-557v-127h678v-399h-244q-65 -72 -65 -115v-30q0 -13 18 -13h27q15 0 23.5 2t11.5 9.5t3.5 12t0.5 17.5v49h229v-163q0 -67 -54 -109.5t-142 -42.5h-234q-105 0 -140.5 41.5t-35.5 163.5v28q0 89 125 150h-680z" />
    <glyph glyph-name="eogonek" unicode="&#x119;" horiz-adv-x="1292" 
d="M1165 336l-6 -295q-62 -11 -158 -21l-6 -8q-77 -85 -77 -127v-30q0 -13 18 -13h27q12 0 19.5 2.5t11.5 4t5.5 10t1.5 10v14.5v49h230v-163q0 -67 -54.5 -109.5t-142.5 -42.5h-233q-105 0 -140.5 41.5t-35.5 163.5v28q0 86 118 148q-152 -8 -241 -8q-116 0 -194 17
t-136 59.5t-84.5 118t-26.5 190.5v448q0 76 28 144.5t81 122.5t139 86t193 32h289q107 0 192.5 -32t138.5 -86t81 -122.5t28 -144.5v-340q0 -21 -3 -25.5t-18 -4.5h-684v-68q0 -22 14.5 -35.5t39.5 -13.5h585zM807 696v109q0 37 -22.5 58.5t-61.5 21.5h-113
q-39 0 -61.5 -21.5t-22.5 -58.5v-117z" />
    <glyph glyph-name="Ecaron" unicode="&#x11a;" horiz-adv-x="1333" 
d="M86 0v1434h1161v-379h-682v-140h557v-389h-557v-127h678v-399h-1157zM1133 1851l-467 -276l-467 276l98 172l367 -129l370 129z" />
    <glyph glyph-name="ecaron" unicode="&#x11b;" horiz-adv-x="1292" 
d="M1165 336l-6 -295q-35 -6 -95.5 -14.5t-233.5 -22.5t-328 -14q-116 0 -194 17t-136 59.5t-84.5 118t-26.5 190.5v448q0 76 28 144.5t81 122.5t139 86t193 32h289q107 0 192.5 -32t138.5 -86t81 -122.5t28 -144.5v-340q0 -21 -3 -25.5t-18 -4.5h-684v-68q0 -22 14.5 -35.5
t39.5 -13.5h585zM807 696v109q0 37 -22.5 58.5t-61.5 21.5h-113q-39 0 -61.5 -21.5t-22.5 -58.5v-117zM1112 1626l-467 -276l-467 276l98 172l367 -129l371 129z" />
    <glyph glyph-name="gcircumflex" unicode="&#x11d;" horiz-adv-x="1323" 
d="M1251 1208v-1169q1 -115 -25.5 -190.5t-84 -118t-136 -59.5t-194.5 -17q-155 0 -311.5 15t-235.5 31l-80 15l2 285h547q24 0 38.5 13.5t14.5 35.5v133q-78 -41 -134.5 -61.5t-108.5 -20.5h-58q-111 1 -186.5 18.5t-131 60.5t-81 118t-25.5 188v351q0 113 25.5 188t81 118
t131 60.5t186.5 18.5h37q107 0 264 -82v69h465zM526 805v-350q0 -22 14.5 -35.5t39.5 -13.5h18q35 0 188 20v408q-153 20 -188 20h-18q-25 0 -39.5 -13.5t-14.5 -35.5zM662 1819l466 -277l-98 -172l-371 127l-366 -127l-98 172z" />
    <glyph glyph-name="Gbreve" unicode="&#x11e;" horiz-adv-x="1445" 
d="M713 539v327h684l-21 -766q-1 -21 -8.5 -37t-17.5 -24t-20.5 -12.5t-17.5 -5.5l-7 -1q-468 -32 -795 -32q-107 0 -192.5 32t-138.5 86t-81 122.5t-28 144.5v688q0 76 28 144.5t81 122.5t138.5 86t192.5 32q146 0 347 -5t329 -11l129 -5l-4 -376h-668q-50 0 -72 -25.5
t-22 -65.5v-483q0 -90 94 -90h315v131zM846 1823h258v-62q0 -98 -67 -166.5t-189 -68.5h-250q-122 0 -189 68.5t-67 166.5v62h258v-41q0 -16 15.5 -27.5t43.5 -11.5h127q28 0 44 11.5t16 27.5v41z" />
    <glyph glyph-name="gbreve" unicode="&#x11f;" horiz-adv-x="1323" 
d="M1251 1208v-1169q1 -115 -25.5 -190.5t-84 -118t-136 -59.5t-194.5 -17q-155 0 -311.5 15t-235.5 31l-80 15l2 285h547q24 0 38.5 13.5t14.5 35.5v133q-78 -41 -134.5 -61.5t-108.5 -20.5h-58q-111 1 -186.5 18.5t-131 60.5t-81 118t-25.5 188v351q0 113 25.5 188t81 118
t131 60.5t186.5 18.5h37q107 0 264 -82v69h465zM526 805v-350q0 -22 14.5 -35.5t39.5 -13.5h18q35 0 188 20v408q-153 20 -188 20h-18q-25 0 -39.5 -13.5t-14.5 -35.5zM784 1597h258v-61q0 -98 -67 -167t-189 -69h-249q-122 0 -189 69t-67 167v61h258v-41q0 -16 15.5 -27
t43.5 -11h127q28 0 43.5 11t15.5 27v41z" />
    <glyph glyph-name="Gdotaccent" unicode="&#x120;" horiz-adv-x="1445" 
d="M713 539v327h684l-21 -766q-1 -21 -8.5 -37t-17.5 -24t-20.5 -12.5t-17.5 -5.5l-7 -1q-468 -32 -795 -32q-107 0 -192.5 32t-138.5 86t-81 122.5t-28 144.5v688q0 76 28 144.5t81 122.5t138.5 86t192.5 32q146 0 347 -5t329 -11l129 -5l-4 -376h-668q-50 0 -72 -25.5
t-22 -65.5v-483q0 -90 94 -90h315v131zM502 1731q0 91 64.5 153t156.5 62q93 0 157 -61.5t64 -153.5q0 -90 -64 -151.5t-157 -61.5q-92 0 -156.5 61.5t-64.5 151.5z" />
    <glyph glyph-name="gdotaccent" unicode="&#x121;" horiz-adv-x="1323" 
d="M1251 1208v-1169q1 -115 -25.5 -190.5t-84 -118t-136 -59.5t-194.5 -17q-155 0 -311.5 15t-235.5 31l-80 15l2 285h547q24 0 38.5 13.5t14.5 35.5v133q-78 -41 -134.5 -61.5t-108.5 -20.5h-58q-111 1 -186.5 18.5t-131 60.5t-81 118t-25.5 188v351q0 113 25.5 188t81 118
t131 60.5t186.5 18.5h37q107 0 264 -82v69h465zM526 805v-350q0 -22 14.5 -35.5t39.5 -13.5h18q35 0 188 20v408q-153 20 -188 20h-18q-25 0 -39.5 -13.5t-14.5 -35.5zM440 1505q0 91 65 153t157 62q93 0 157 -61.5t64 -153.5q0 -90 -64 -151.5t-157 -61.5q-92 0 -157 61.5
t-65 151.5z" />
    <glyph glyph-name="Gcommaaccent" unicode="&#x122;" horiz-adv-x="1445" 
d="M713 539v327h684l-21 -766q-1 -21 -8.5 -37t-17.5 -24t-20.5 -12.5t-17.5 -5.5l-7 -1q-468 -32 -795 -32q-107 0 -192.5 32t-138.5 86t-81 122.5t-28 144.5v688q0 76 28 144.5t81 122.5t138.5 86t192.5 32q146 0 347 -5t329 -11l129 -5l-4 -376h-668q-50 0 -72 -25.5
t-22 -65.5v-483q0 -90 94 -90h315v131zM612 -104h351v-164q0 -70 -49.5 -174.5t-98.5 -173.5l-49 -70l-186 70l32 301v211z" />
    <glyph glyph-name="gcommaaccent" unicode="&#x123;" horiz-adv-x="1323" 
d="M1251 1208v-1169q1 -115 -25.5 -190.5t-84 -118t-136 -59.5t-194.5 -17q-155 0 -311.5 15t-235.5 31l-80 15l2 285h547q24 0 38.5 13.5t14.5 35.5v133q-78 -41 -134.5 -61.5t-108.5 -20.5h-58q-111 1 -186.5 18.5t-131 60.5t-81 118t-25.5 188v351q0 113 25.5 188t81 118
t131 60.5t186.5 18.5h37q107 0 264 -82v69h465zM526 805v-350q0 -22 14.5 -35.5t39.5 -13.5h18q35 0 188 20v408q-153 20 -188 20h-18q-25 0 -39.5 -13.5t-14.5 -35.5zM866 1321h-350v164q0 44 20.5 103.5t49 112.5t57.5 100t49 75l21 27l186 -70l-33 -301v-211z" />
    <glyph glyph-name="Hbar" unicode="&#x126;" horiz-adv-x="1564" 
d="M-16 1067v215h102v152h479v-152h434v152h480v-152h102v-215h-102v-1067h-480v539h-434v-539h-479v1067h-102zM565 928h434v139h-434v-139z" />
    <glyph glyph-name="hbar" unicode="&#x127;" 
d="M-51 1260v194h121v113h465v-113h294v-194h-294v-121q157 82 264 82h37q111 -1 186.5 -18.5t131 -60.5t81 -118t25.5 -188v-836h-465v805q0 22 -14.5 35.5t-39.5 13.5h-18q-35 0 -188 -20v-834h-465v1260h-121z" />
    <glyph glyph-name="Imacron" unicode="&#x12a;" horiz-adv-x="651" 
d="M565 1434v-1434h-479v1434h479zM-74 1546v271h799v-271h-799z" />
    <glyph glyph-name="imacron" unicode="&#x12b;" horiz-adv-x="612" 
d="M539 1208v-1208h-465v1208h465zM-92 1321v270h799v-270h-799z" />
    <glyph glyph-name="Ibreve" unicode="&#x12c;" horiz-adv-x="651" 
d="M565 1434v-1434h-479v1434h479zM449 1823h258v-62q0 -98 -67 -166.5t-189 -68.5h-250q-122 0 -189 68.5t-67 166.5v62h258v-41q0 -16 15.5 -27.5t43.5 -11.5h127q28 0 44 11.5t16 27.5v41z" />
    <glyph glyph-name="ibreve" unicode="&#x12d;" horiz-adv-x="612" 
d="M539 1208v-1208h-465v1208h465zM430 1597h258v-61q0 -98 -67 -167t-189 -69h-250q-122 0 -189 69t-67 167v61h258v-41q0 -16 16 -27t44 -11h127q28 0 43.5 11t15.5 27v41z" />
    <glyph glyph-name="Iogonek" unicode="&#x12e;" horiz-adv-x="651" 
d="M317 0q-26 -30 -38 -49q-27 -42 -27 -66v-30q0 -13 18 -13h27q15 0 23.5 2t11.5 9.5t3.5 12t0.5 17.5v49h229v-163q0 -67 -54 -109.5t-142 -42.5h-234q-105 0 -140.5 41.5t-35.5 163.5v28q0 92 127 150v1434h479v-1434h-248z" />
    <glyph glyph-name="iogonek" unicode="&#x12f;" horiz-adv-x="612" 
d="M539 0h-177q-26 -30 -38 -49q-27 -42 -27 -66v-30q0 -13 18 -13h27q15 0 23.5 2t11.5 9.5t3.5 12t0.5 17.5v49h229v-163q0 -67 -54 -109.5t-142 -42.5h-234q-105 0 -140.5 41.5t-35.5 163.5v28q0 64 68 115q39 26 57 35h-55v1208h465v-1208zM68 1528q0 99 70 165t169 66
q101 0 170.5 -66t69.5 -165q0 -98 -70 -165t-170 -67q-99 0 -169 67t-70 165z" />
    <glyph glyph-name="Idotaccent" unicode="&#x130;" horiz-adv-x="651" 
d="M565 1434v-1434h-479v1434h479zM104 1731q0 91 65 153t157 62q93 0 157 -61.5t64 -153.5q0 -90 -64 -151.5t-157 -61.5q-92 0 -157 61.5t-65 151.5z" />
    <glyph glyph-name="dotlessi" unicode="&#x131;" horiz-adv-x="612" 
d="M539 1208v-1208h-465v1208h465z" />
    <glyph glyph-name="Kcommaaccent" unicode="&#x136;" horiz-adv-x="1480" 
d="M565 1434v-480h107l295 480h538l-420 -691l392 -743h-539l-229 455h-144v-455h-479v1434h479zM569 -104h351v-164q0 -44 -20.5 -103.5t-49 -112.5t-57.5 -100t-49 -74l-21 -28l-186 70l32 301v211z" />
    <glyph glyph-name="kcommaaccent" unicode="&#x137;" horiz-adv-x="1296" 
d="M70 0v1516h465v-705h57l221 397h530l-344 -569v-25l336 -614h-528l-229 393h-43v-393h-465zM477 -104h350v-164q0 -44 -20 -103.5t-49 -112.5t-58 -100t-49 -74l-20 -28l-187 70l33 301v211z" />
    <glyph glyph-name="Lacute" unicode="&#x139;" horiz-adv-x="1224" 
d="M86 0v1434h479v-1045h639v-389h-1118zM16 1739l566 274l133 -325l-584 -148z" />
    <glyph glyph-name="lacute" unicode="&#x13a;" horiz-adv-x="612" 
d="M539 1516v-1516h-465v1516h465zM-2 1821l565 274l133 -326l-583 -147z" />
    <glyph glyph-name="Lcommaaccent" unicode="&#x13b;" horiz-adv-x="1224" 
d="M86 0v1434h479v-1045h639v-389h-1118zM440 -104h351v-164q0 -70 -49.5 -174.5t-98.5 -173.5l-49 -70l-186 70l32 301v211z" />
    <glyph glyph-name="lcommaaccent" unicode="&#x13c;" horiz-adv-x="612" 
d="M539 1516v-1516h-465v1516h465zM135 -104h350v-164q0 -44 -20 -103.5t-49 -112.5t-58 -100t-49 -74l-20 -28l-187 70l33 301v211z" />
    <glyph glyph-name="Lcaron" unicode="&#x13d;" horiz-adv-x="1224" 
d="M86 0v1434h479v-1045h639v-389h-1118zM692 1434h355v-166q0 -45 -20.5 -105t-50 -113.5t-58.5 -100.5t-50 -75l-20 -28l-186 69l30 306v213z" />
    <glyph glyph-name="lcaron" unicode="&#x13e;" horiz-adv-x="657" 
d="M539 1516v-1516h-465v1516h465zM651 1516h355v-166q0 -71 -50 -176.5t-100 -175.5l-49 -70l-186 69l30 306v213z" />
    <glyph glyph-name="Ldot" unicode="&#x13f;" horiz-adv-x="1224" 
d="M86 0v1434h479v-1045h639v-389h-1118zM680 727q0 91 64.5 153t156.5 62q93 0 157 -61.5t64 -153.5q0 -90 -64 -151.5t-157 -61.5q-92 0 -156.5 61.5t-64.5 151.5z" />
    <glyph glyph-name="ldot" unicode="&#x140;" horiz-adv-x="1048" 
d="M539 1516v-1516h-465v1516h465zM618 727q0 91 65 153t157 62q93 0 157 -61.5t64 -153.5q0 -90 -64 -151.5t-157 -61.5q-92 0 -157 61.5t-65 151.5z" />
    <glyph glyph-name="Lslash" unicode="&#x141;" horiz-adv-x="1224" 
d="M86 0v434l-127 -47l-127 350l254 92v605h479v-428l230 86l127 -351l-357 -131v-221h639v-389h-1118z" />
    <glyph glyph-name="lslash" unicode="&#x142;" horiz-adv-x="612" 
d="M539 1516v-490l174 66l127 -351l-301 -110v-631h-465v459l-197 -72l-127 350l324 119v660h465z" />
    <glyph glyph-name="Nacute" unicode="&#x143;" horiz-adv-x="1568" 
d="M1483 1434v-1434h-381q-61 0 -87 12.5t-59 61.5q-32 45 -197 293t-177 266h-17v-633h-479v1434h385h30t24 -1.5t17.5 -2t14 -4t10 -4.5t8.5 -7t7 -8t7.5 -11t8.5 -12q2 -4 85 -123.5t176.5 -256.5t133.5 -199h11v629h479zM434 1739l565 274l134 -325l-584 -148z" />
    <glyph glyph-name="nacute" unicode="&#x144;" 
d="M70 0v1208h465v-69q157 82 264 82h37q111 -1 186.5 -18.5t131 -60.5t81 -118t25.5 -188v-836h-465v805q0 22 -14.5 35.5t-39.5 13.5h-18q-35 0 -188 -20v-834h-465zM311 1513l566 275l133 -326l-584 -147z" />
    <glyph glyph-name="Ncommaaccent" unicode="&#x145;" horiz-adv-x="1568" 
d="M1483 1434v-1434h-381q-61 0 -87 12.5t-59 61.5q-32 45 -197 293t-177 266h-17v-633h-479v1434h385h30t24 -1.5t17.5 -2t14 -4t10 -4.5t8.5 -7t7 -8t7.5 -11t8.5 -12q2 -4 85 -123.5t176.5 -256.5t133.5 -199h11v629h479zM612 -104h351v-164q0 -70 -49.5 -174.5
t-98.5 -173.5l-49 -70l-186 70l32 301v211z" />
    <glyph glyph-name="ncommaaccent" unicode="&#x146;" 
d="M70 0v1208h465v-69q157 82 264 82h37q111 -1 186.5 -18.5t131 -60.5t81 -118t25.5 -188v-836h-465v805q0 22 -14.5 35.5t-39.5 13.5h-18q-35 0 -188 -20v-834h-465zM489 -104h351v-164q0 -44 -20.5 -103.5t-49 -112.5t-57.5 -100t-49 -74l-21 -28l-186 70l32 301v211z
" />
    <glyph glyph-name="Ncaron" unicode="&#x147;" horiz-adv-x="1568" 
d="M1483 1434v-1434h-381q-61 0 -87 12.5t-59 61.5q-32 45 -197 293t-177 266h-17v-633h-479v1434h385h30t24 -1.5t17.5 -2t14 -4t10 -4.5t8.5 -7t7 -8t7.5 -11t8.5 -12q2 -4 85 -123.5t176.5 -256.5t133.5 -199h11v629h479zM1251 1851l-467 -276l-467 276l99 172l366 -129
l371 129z" />
    <glyph glyph-name="ncaron" unicode="&#x148;" 
d="M70 0v1208h465v-69q157 82 264 82h37q111 -1 186.5 -18.5t131 -60.5t81 -118t25.5 -188v-836h-465v805q0 22 -14.5 35.5t-39.5 13.5h-18q-35 0 -188 -20v-834h-465zM1126 1626l-467 -276l-466 276l98 172l366 -129l371 129z" />
    <glyph glyph-name="Omacron" unicode="&#x14c;" horiz-adv-x="1511" 
d="M510 0q-107 0 -192.5 32t-138.5 86t-81 122.5t-28 144.5v664q0 76 28 144.5t81 122.5t138.5 86t192.5 32h491q107 0 193 -32t139 -86t81 -122.5t28 -144.5v-664q0 -76 -28 -144.5t-81 -122.5t-139 -86t-193 -32h-491zM643 1057q-94 0 -94 -90v-500q0 -90 94 -90h225
q50 0 72.5 25t22.5 65v500q0 40 -22.5 65t-72.5 25h-225zM356 1546v271h799v-271h-799z" />
    <glyph glyph-name="omacron" unicode="&#x14d;" horiz-adv-x="1333" 
d="M852 1229q116 0 194 -17t135.5 -59.5t84 -118t26.5 -190.5v-471q0 -115 -26.5 -190.5t-84 -118t-135.5 -59.5t-194 -17h-350q-116 0 -194 17t-136 59.5t-84.5 118t-26.5 190.5v471q0 115 26.5 190.5t84.5 118t136 59.5t194 17h350zM774 324q24 0 38.5 13.5t14.5 35.5v471
q0 22 -14.5 35.5t-38.5 13.5h-194q-25 0 -39.5 -13.5t-14.5 -35.5v-471q0 -22 14.5 -35.5t39.5 -13.5h194zM266 1321v270h799v-270h-799z" />
    <glyph glyph-name="Obreve" unicode="&#x14e;" horiz-adv-x="1511" 
d="M510 0q-107 0 -192.5 32t-138.5 86t-81 122.5t-28 144.5v664q0 76 28 144.5t81 122.5t138.5 86t192.5 32h491q107 0 193 -32t139 -86t81 -122.5t28 -144.5v-664q0 -76 -28 -144.5t-81 -122.5t-139 -86t-193 -32h-491zM643 1057q-94 0 -94 -90v-500q0 -90 94 -90h225
q50 0 72.5 25t22.5 65v500q0 40 -22.5 65t-72.5 25h-225zM879 1823h258v-62q0 -98 -67 -166.5t-189 -68.5h-250q-122 0 -189 68.5t-67 166.5v62h258v-41q0 -16 15.5 -27.5t43.5 -11.5h127q28 0 44 11.5t16 27.5v41z" />
    <glyph glyph-name="obreve" unicode="&#x14f;" horiz-adv-x="1333" 
d="M852 1229q116 0 194 -17t135.5 -59.5t84 -118t26.5 -190.5v-471q0 -115 -26.5 -190.5t-84 -118t-135.5 -59.5t-194 -17h-350q-116 0 -194 17t-136 59.5t-84.5 118t-26.5 190.5v471q0 115 26.5 190.5t84.5 118t136 59.5t194 17h350zM774 324q24 0 38.5 13.5t14.5 35.5v471
q0 22 -14.5 35.5t-38.5 13.5h-194q-25 0 -39.5 -13.5t-14.5 -35.5v-471q0 -22 14.5 -35.5t39.5 -13.5h194zM788 1597h259v-61q0 -98 -67 -167t-189 -69h-250q-122 0 -189 69t-67 167v61h258v-41q0 -16 15.5 -27t43.5 -11h127q28 0 43.5 11t15.5 27v41z" />
    <glyph glyph-name="Ohungarumlaut" unicode="&#x150;" horiz-adv-x="1511" 
d="M510 0q-107 0 -192.5 32t-138.5 86t-81 122.5t-28 144.5v664q0 76 28 144.5t81 122.5t138.5 86t192.5 32h491q107 0 193 -32t139 -86t81 -122.5t28 -144.5v-664q0 -76 -28 -144.5t-81 -122.5t-139 -86t-193 -32h-491zM643 1057q-94 0 -94 -90v-500q0 -90 94 -90h225
q50 0 72.5 25t22.5 65v500q0 40 -22.5 65t-72.5 25h-225zM352 1640l291 455l279 -215l-371 -354zM793 1640l290 455l279 -215l-371 -354z" />
    <glyph glyph-name="ohungarumlaut" unicode="&#x151;" horiz-adv-x="1333" 
d="M852 1229q116 0 194 -17t135.5 -59.5t84 -118t26.5 -190.5v-471q0 -115 -26.5 -190.5t-84 -118t-135.5 -59.5t-194 -17h-350q-116 0 -194 17t-136 59.5t-84.5 118t-26.5 190.5v471q0 115 26.5 190.5t84.5 118t136 59.5t194 17h350zM774 324q24 0 38.5 13.5t14.5 35.5v471
q0 22 -14.5 35.5t-38.5 13.5h-194q-25 0 -39.5 -13.5t-14.5 -35.5v-471q0 -22 14.5 -35.5t39.5 -13.5h194zM264 1415l291 455l279 -215l-371 -355zM705 1415l290 455l279 -215l-371 -355z" />
    <glyph glyph-name="OE" unicode="&#x152;" horiz-adv-x="2168" 
d="M2083 1434v-379h-682v-140h557v-389h-557v-127h678v-399h-1569q-107 0 -192.5 32t-138.5 86t-81 122.5t-28 144.5v664q0 76 28 144.5t81 122.5t138.5 86t192.5 32h1573zM549 467q0 -90 94 -90h279v680h-279q-94 0 -94 -90v-500z" />
    <glyph glyph-name="oe" unicode="&#x153;" horiz-adv-x="1996" 
d="M791 1214q80 0 128.5 -13.5t94.5 -57.5q56 65 233 65h248q107 0 192.5 -32t138.5 -86t81 -122.5t28 -144.5v-340q0 -21 -2.5 -25.5t-17.5 -4.5h-684v-72q2 -20 16 -32.5t37 -12.5h586l-6 -285q-30 -7 -84.5 -17t-216 -27t-316.5 -17q-110 0 -164 12t-98 51
q-37 -35 -90 -46t-125 -11h-268q-116 0 -194 17t-136 59.5t-84.5 118t-26.5 190.5v448q0 115 26.5 190.5t84.5 118t136 59.5t194 17h289zM713 332q47 0 53 43v454q0 22 -14.5 36t-38.5 14h-133q-24 0 -39 -14t-15 -36v-448q0 -22 14.5 -35.5t39.5 -13.5h133zM1231 836v-107
l301 6v101q0 37 -22 58t-62 21h-133q-40 0 -62 -21t-22 -58z" />
    <glyph glyph-name="Racute" unicode="&#x154;" horiz-adv-x="1486" 
d="M565 418v-418h-479v1434h895q107 0 192.5 -32t138.5 -86t81 -122.5t28 -144.5v-246q0 -99 -46.5 -184t-135.5 -138l197 -481h-496l-172 418h-203zM848 774q94 0 94 90v103q0 90 -94 90h-283v-283h283zM393 1739l565 274l134 -325l-584 -148z" />
    <glyph glyph-name="racute" unicode="&#x155;" horiz-adv-x="937" 
d="M70 0v1208h465v-69q157 82 264 82h119v-408h-195q-74 0 -188 -41v-772h-465zM121 1513l565 275l133 -326l-583 -147z" />
    <glyph glyph-name="Rcommaaccent" unicode="&#x156;" horiz-adv-x="1486" 
d="M565 418v-418h-479v1434h895q107 0 192.5 -32t138.5 -86t81 -122.5t28 -144.5v-246q0 -99 -46.5 -184t-135.5 -138l197 -481h-496l-172 418h-203zM848 774q94 0 94 90v103q0 90 -94 90h-283v-283h283zM571 -104h351v-164q0 -44 -20.5 -103.5t-49 -112.5t-57.5 -100
t-49 -74l-21 -28l-186 70l32 301v211z" />
    <glyph glyph-name="rcommaaccent" unicode="&#x157;" horiz-adv-x="937" 
d="M70 0v1208h465v-69q157 82 264 82h119v-408h-195q-74 0 -188 -41v-772h-465zM135 -104h350v-164q0 -44 -20 -103.5t-49 -112.5t-58 -100t-49 -74l-20 -28l-187 70l33 301v211z" />
    <glyph glyph-name="Rcaron" unicode="&#x158;" horiz-adv-x="1486" 
d="M565 418v-418h-479v1434h895q107 0 192.5 -32t138.5 -86t81 -122.5t28 -144.5v-246q0 -99 -46.5 -184t-135.5 -138l197 -481h-496l-172 418h-203zM848 774q94 0 94 90v103q0 90 -94 90h-283v-283h283zM1169 1851l-467 -276l-466 276l98 172l366 -129l371 129z" />
    <glyph glyph-name="rcaron" unicode="&#x159;" horiz-adv-x="937" 
d="M70 0v1208h465v-69q157 82 264 82h119v-408h-195q-74 0 -188 -41v-772h-465zM977 1626l-467 -276l-467 276l98 172l367 -129l371 129z" />
    <glyph glyph-name="Sacute" unicode="&#x15a;" horiz-adv-x="1302" 
d="M1192 1405l-4 -367h-676q-9 0 -10.5 -2t-1.5 -14v-8q0 -12 12.5 -18t40.5 -11l403 -72q86 -16 145 -40t95 -54t55.5 -76t26 -94t6.5 -119v-157q0 -78 -15.5 -137.5t-52 -107.5t-95.5 -78t-145.5 -46t-203.5 -16q-100 0 -286 10t-322 20l-135 11l4 366h676q94 0 94 56v18
q0 27 -21 31l-313 55q-205 36 -268 57q-115 38 -157 117q-36 69 -36 191v141q0 131 48.5 213.5t164.5 127t309 44.5q100 0 265.5 -10t280.5 -20zM301 1739l565 274l133 -325l-583 -148z" />
    <glyph glyph-name="sacute" unicode="&#x15b;" horiz-adv-x="1230" 
d="M1116 885h-571q-5 0 -6.5 -1t-1.5 -7v-17q0 -8 5.5 -13t11.5 -6l5 -1q61 -13 182 -33q189 -30 241 -45q114 -34 157 -108q41 -71 41 -205v-46q0 -226 -106.5 -320.5t-334.5 -94.5q-155 0 -327 12t-266 24l-95 13l2 307h568q73 0 84 6q10 6 10 23v18q0 9 -14.5 13
t-68.5 13q-68 11 -120 21q-138 24 -190 35q-65 14 -106.5 32t-76.5 50.5t-51 85t-16 129.5v98q0 77 11.5 133.5t37.5 95.5t59.5 63.5t87 38t109 18t135.5 4.5q155 0 306.5 -7.5t225.5 -14.5l74 -7zM266 1513l565 275l134 -326l-584 -147z" />
    <glyph glyph-name="Scedilla" unicode="&#x15e;" horiz-adv-x="1302" 
d="M1192 1405l-4 -367h-676q-9 0 -10.5 -2t-1.5 -14v-8q0 -12 12.5 -18t40.5 -11l403 -72q86 -16 145 -40t95 -54t55.5 -76t26 -94t6.5 -119v-157q0 -78 -15.5 -137.5t-52 -107.5t-95.5 -78t-145.5 -46t-203.5 -16q-100 0 -286 10t-322 20l-135 11l4 366h676q94 0 94 56v18
q0 27 -21 31l-313 55q-205 36 -268 57q-115 38 -157 117q-36 69 -36 191v141q0 131 48.5 213.5t164.5 127t309 44.5q100 0 265.5 -10t280.5 -20zM385 -45h299q57 0 81.5 -1t58.5 -6.5t46 -17.5t26.5 -35t18 -57t3.5 -86v-90q0 -30 -4.5 -53.5t-16.5 -40.5t-23.5 -29
t-35 -19.5t-41.5 -12t-52 -6.5t-56.5 -2.5t-65.5 -0.5q-55 0 -145 10t-153 20l-63 11l6 174h357q15 0 17.5 1t2.5 7v25q0 8 -2.5 9t-17.5 1h-240v199z" />
    <glyph glyph-name="scedilla" unicode="&#x15f;" horiz-adv-x="1230" 
d="M1116 885h-571q-5 0 -6.5 -1t-1.5 -7v-17q0 -8 5.5 -13t11.5 -6l5 -1q61 -13 182 -33q189 -30 241 -45q114 -34 157 -108q41 -71 41 -205v-46q0 -226 -106.5 -320.5t-334.5 -94.5q-155 0 -327 12t-266 24l-95 13l2 307h568q73 0 84 6q10 6 10 23v18q0 9 -14.5 13
t-68.5 13q-68 11 -120 21q-138 24 -190 35q-65 14 -106.5 32t-76.5 50.5t-51 85t-16 129.5v98q0 77 11.5 133.5t37.5 95.5t59.5 63.5t87 38t109 18t135.5 4.5q155 0 306.5 -7.5t225.5 -14.5l74 -7zM369 -45h299q83 0 115.5 -3t66.5 -22.5t42.5 -60t8.5 -117.5v-90
q0 -30 -4.5 -53.5t-16.5 -40.5t-23.5 -29t-35 -19.5t-41.5 -12t-52 -6.5t-56.5 -2.5t-65.5 -0.5q-55 0 -145 10t-153 20l-62 11l6 174h356q15 0 18 1t3 7v25q0 7 -3 8.5t-18 1.5h-239v199z" />
    <glyph glyph-name="Scaron" unicode="&#x160;" horiz-adv-x="1302" 
d="M1192 1405l-4 -367h-676q-9 0 -10.5 -2t-1.5 -14v-8q0 -12 12.5 -18t40.5 -11l403 -72q86 -16 145 -40t95 -54t55.5 -76t26 -94t6.5 -119v-157q0 -78 -15.5 -137.5t-52 -107.5t-95.5 -78t-145.5 -46t-203.5 -16q-100 0 -286 10t-322 20l-135 11l4 366h676q94 0 94 56v18
q0 27 -21 31l-313 55q-205 36 -268 57q-115 38 -157 117q-36 69 -36 191v141q0 131 48.5 213.5t164.5 127t309 44.5q100 0 265.5 -10t280.5 -20zM1118 1851l-467 -276l-467 276l99 172l366 -129l371 129z" />
    <glyph glyph-name="scaron" unicode="&#x161;" horiz-adv-x="1230" 
d="M1116 885h-571q-5 0 -6.5 -1t-1.5 -7v-17q0 -8 5.5 -13t11.5 -6l5 -1q61 -13 182 -33q189 -30 241 -45q114 -34 157 -108q41 -71 41 -205v-46q0 -226 -106.5 -320.5t-334.5 -94.5q-155 0 -327 12t-266 24l-95 13l2 307h568q73 0 84 6q10 6 10 23v18q0 9 -14.5 13
t-68.5 13q-68 11 -120 21q-138 24 -190 35q-65 14 -106.5 32t-76.5 50.5t-51 85t-16 129.5v98q0 77 11.5 133.5t37.5 95.5t59.5 63.5t87 38t109 18t135.5 4.5q155 0 306.5 -7.5t225.5 -14.5l74 -7zM1081 1626l-467 -276l-467 276l99 172l366 -129l371 129z" />
    <glyph glyph-name="Tcommaaccent" unicode="&#x162;" horiz-adv-x="1404" 
d="M1378 1434v-390h-436v-1044h-479v1044h-436v390h1351zM530 -104h351v-164q0 -70 -49.5 -174.5t-98.5 -173.5l-49 -70l-186 70l32 301v211z" />
    <glyph glyph-name="tcommaaccent" unicode="&#x163;" horiz-adv-x="993" 
d="M25 850v360h157v224h465v-224h297v-360h-297v-465q0 -22 14.5 -35.5t38.5 -13.5h258l-6 -285q-268 -61 -432 -61q-62 0 -111.5 11t-84.5 30t-61 48t-41 60.5t-24.5 72.5t-12.5 79t-3 84v475h-157zM346 -104h350v-164q0 -44 -20 -103.5t-49 -112.5t-58 -100t-49 -74
l-20 -28l-187 70l33 301v211z" />
    <glyph glyph-name="Tcaron" unicode="&#x164;" horiz-adv-x="1404" 
d="M1378 1434v-390h-436v-1044h-479v1044h-436v390h1351zM1169 1851l-467 -276l-466 276l98 172l366 -129l371 129z" />
    <glyph glyph-name="tcaron" unicode="&#x165;" horiz-adv-x="1064" 
d="M25 850v360h157v224h465v-224h297v-360h-297v-465q0 -22 14.5 -35.5t38.5 -13.5h258l-6 -285q-268 -61 -432 -61q-62 0 -111.5 11t-84.5 30t-61 48t-41 60.5t-24.5 72.5t-12.5 79t-3 84v475h-157zM764 1864h354v-166q0 -45 -20.5 -105t-49.5 -113.5t-58 -100.5t-50 -75
l-20 -28l-187 70l31 305v213z" />
    <glyph glyph-name="Umacron" unicode="&#x16a;" horiz-adv-x="1490" 
d="M549 467q0 -90 94 -90h205q94 0 94 90v967h479v-1049q0 -76 -28 -144.5t-81 -122.5t-138.5 -86t-192.5 -32h-471q-107 0 -192.5 32t-138.5 86t-81 122.5t-28 144.5v1049h479v-967zM346 1546v271h799v-271h-799z" />
    <glyph glyph-name="umacron" unicode="&#x16b;" 
d="M1251 1208v-1208h-465v70q-157 -82 -264 -82h-37q-111 1 -186.5 18.5t-131 60.5t-81 118t-25.5 188v835h465v-805q0 -22 14.5 -35.5t39.5 -13.5h18q27 0 188 21v833h465zM260 1321v270h799v-270h-799z" />
    <glyph glyph-name="Ubreve" unicode="&#x16c;" horiz-adv-x="1490" 
d="M549 467q0 -90 94 -90h205q94 0 94 90v967h479v-1049q0 -76 -28 -144.5t-81 -122.5t-138.5 -86t-192.5 -32h-471q-107 0 -192.5 32t-138.5 86t-81 122.5t-28 144.5v1049h479v-967zM868 1823h258v-62q0 -98 -67 -166.5t-189 -68.5h-249q-122 0 -189 68.5t-67 166.5v62h258
v-41q0 -16 15.5 -27.5t43.5 -11.5h127q28 0 43.5 11.5t15.5 27.5v41z" />
    <glyph glyph-name="ubreve" unicode="&#x16d;" 
d="M1251 1208v-1208h-465v70q-157 -82 -264 -82h-37q-111 1 -186.5 18.5t-131 60.5t-81 118t-25.5 188v835h465v-805q0 -22 14.5 -35.5t39.5 -13.5h18q27 0 188 21v833h465zM782 1597h258v-61q0 -98 -67 -167t-189 -69h-249q-122 0 -189 69t-67 167v61h258v-41
q0 -16 15.5 -27t43.5 -11h127q28 0 43.5 11t15.5 27v41z" />
    <glyph glyph-name="Uring" unicode="&#x16e;" horiz-adv-x="1490" 
d="M549 467q0 -90 94 -90h205q94 0 94 90v967h479v-1049q0 -76 -28 -144.5t-81 -122.5t-138.5 -86t-192.5 -32h-471q-107 0 -192.5 32t-138.5 86t-81 122.5t-28 144.5v1049h479v-967zM866 2019q101 0 157 -57.5t56 -138.5v-86q0 -81 -56 -139t-157 -58h-241q-101 0 -157 58
t-56 139v86q0 81 56 138.5t157 57.5h241zM829 1726q23 0 23 21v65q0 19 -23 19h-170q-22 0 -22 -19v-65q0 -21 22 -21h170z" />
    <glyph glyph-name="uring" unicode="&#x16f;" 
d="M1251 1208v-1208h-465v70q-157 -82 -264 -82h-37q-111 1 -186.5 18.5t-131 60.5t-81 118t-25.5 188v835h465v-805q0 -22 14.5 -35.5t39.5 -13.5h18q27 0 188 21v833h465zM780 1794q101 0 157 -58t56 -139v-86q0 -81 -56 -138.5t-157 -57.5h-241q-101 0 -157 57.5
t-56 138.5v86q0 81 56 139t157 58h241zM743 1501q23 0 23 21v65q0 19 -23 19h-170q-22 0 -22 -19v-65q0 -21 22 -21h170z" />
    <glyph glyph-name="Uhungarumlaut" unicode="&#x170;" horiz-adv-x="1490" 
d="M549 467q0 -90 94 -90h205q94 0 94 90v967h479v-1049q0 -76 -28 -144.5t-81 -122.5t-138.5 -86t-192.5 -32h-471q-107 0 -192.5 32t-138.5 86t-81 122.5t-28 144.5v1049h479v-967zM362 1640l291 455l279 -215l-371 -354zM803 1640l291 455l278 -215l-371 -354z" />
    <glyph glyph-name="uhungarumlaut" unicode="&#x171;" 
d="M1251 1208v-1208h-465v70q-157 -82 -264 -82h-37q-111 1 -186.5 18.5t-131 60.5t-81 118t-25.5 188v835h465v-805q0 -22 14.5 -35.5t39.5 -13.5h18q27 0 188 21v833h465zM279 1415l290 455l279 -215l-371 -355zM719 1415l291 455l278 -215l-370 -355z" />
    <glyph glyph-name="Uogonek" unicode="&#x172;" horiz-adv-x="1490" 
d="M549 467q0 -90 94 -90h205q94 0 94 90v967h479v-1049q0 -76 -28 -144.5t-81 -122.5t-138.5 -86t-192.5 -32h-115q-65 -72 -65 -115v-30q0 -13 18 -13h27q15 0 23.5 2t11.5 9.5t3.5 12t0.5 17.5v49h229v-163q0 -67 -54 -109.5t-142 -42.5h-234q-105 0 -140.5 41.5
t-35.5 163.5v28q0 89 125 150h-123q-107 0 -192.5 32t-138.5 86t-81 122.5t-28 144.5v1049h479v-967z" />
    <glyph glyph-name="uogonek" unicode="&#x173;" 
d="M1251 1208v-1208h-247q-66 -74 -66 -115v-30q0 -13 18 -13h27q15 0 23.5 2t11.5 9.5t3.5 12t0.5 17.5v49h229v-163q0 -67 -54 -109.5t-142 -42.5h-234q-105 0 -140.5 41.5t-35.5 163.5v28q0 97 141 156v64q-157 -82 -264 -82h-37q-111 1 -186.5 18.5t-131 60.5t-81 118
t-25.5 188v835h465v-805q0 -22 14.5 -35.5t39.5 -13.5h18q27 0 188 21v833h465z" />
    <glyph glyph-name="Wcircumflex" unicode="&#x174;" horiz-adv-x="2121" 
d="M1468 467l123 967h541q-229 -1231 -258 -1381q-7 -36 -24 -47.5t-46 -11.5h-590q-60 0 -69 51l-82 610h-4q-66 -512 -82 -610q-9 -51 -70 -51h-590q-29 0 -45.5 11.5t-23.5 47.5l-258 1381h540l123 -967h2l146 967h520l145 -967h2zM1061 2044l467 -277l-98 -172l-371 127
l-367 -127l-98 172z" />
    <glyph glyph-name="wcircumflex" unicode="&#x175;" horiz-adv-x="1826" 
d="M834 39q-8 -45 -60 -45h-522q-47 0 -55 45l-209 1169h510l75 -780h27q90 694 100 780h426l101 -780h26l76 780h510q-182 -1026 -209 -1169q-8 -45 -55 -45h-522q-52 0 -60 45l-78 407h-4q-65 -344 -77 -407zM913 1819l467 -277l-98 -172l-371 127l-366 -127l-99 172z" />
    <glyph glyph-name="Ycircumflex" unicode="&#x176;" horiz-adv-x="1540" 
d="M508 1434l262 -480l262 480h541l-561 -1031v-403h-480v397l-565 1037h541zM770 2044l467 -277l-98 -172l-371 127l-367 -127l-98 172z" />
    <glyph glyph-name="ycircumflex" unicode="&#x177;" horiz-adv-x="1327" 
d="M258 -264l2 264h201q23 0 34.5 12.5t18.5 36.5l10 39h-73q-39 0 -72 28t-47 56l-13 27l-344 1009h521l174 -643h14l147 643h521l-365 -1169q-25 -81 -44 -130.5t-45.5 -94.5t-54.5 -68.5t-71.5 -41.5t-96 -24t-128.5 -6q-59 0 -131.5 15.5t-115.5 30.5zM664 1819
l466 -277l-98 -172l-370 127l-367 -127l-98 172z" />
    <glyph glyph-name="Ydieresis" unicode="&#x178;" horiz-adv-x="1540" 
d="M508 1434l262 -480l262 480h541l-561 -1031v-403h-480v397l-565 1037h541zM817 1772q0 91 64.5 153t156.5 62q93 0 157.5 -61.5t64.5 -153.5q0 -90 -64.5 -151.5t-157.5 -61.5q-92 0 -156.5 61.5t-64.5 151.5zM279 1772q0 91 64.5 153t156.5 62q93 0 157 -61.5t64 -153.5
q0 -90 -64 -151.5t-157 -61.5q-92 0 -156.5 61.5t-64.5 151.5z" />
    <glyph glyph-name="Zacute" unicode="&#x179;" horiz-adv-x="1470" 
d="M106 1055v379h1278v-359l-643 -686h643v-389h-1298v389l602 666h-582zM385 1739l565 274l133 -325l-583 -148z" />
    <glyph glyph-name="zacute" unicode="&#x17a;" horiz-adv-x="1200" 
d="M84 872v336h1073v-336l-512 -536h512v-336h-1114v336l532 536h-491zM250 1513l565 275l133 -326l-583 -147z" />
    <glyph glyph-name="Zdotaccent" unicode="&#x17b;" horiz-adv-x="1470" 
d="M106 1055v379h1278v-359l-643 -686h643v-389h-1298v389l602 666h-582zM514 1731q0 91 64.5 153t156.5 62q93 0 157 -61.5t64 -153.5q0 -90 -64 -151.5t-157 -61.5q-92 0 -156.5 61.5t-64.5 151.5z" />
    <glyph glyph-name="zdotaccent" unicode="&#x17c;" horiz-adv-x="1200" 
d="M84 872v336h1073v-336l-512 -536h512v-336h-1114v336l532 536h-491zM379 1505q0 91 64.5 153t156.5 62q93 0 157 -61.5t64 -153.5q0 -90 -64 -151.5t-157 -61.5q-92 0 -156.5 61.5t-64.5 151.5z" />
    <glyph glyph-name="Zcaron" unicode="&#x17d;" horiz-adv-x="1470" 
d="M106 1055v379h1278v-359l-643 -686h643v-389h-1298v389l602 666h-582zM1202 1851l-467 -276l-467 276l99 172l366 -129l371 129z" />
    <glyph glyph-name="zcaron" unicode="&#x17e;" horiz-adv-x="1200" 
d="M84 872v336h1073v-336l-512 -536h512v-336h-1114v336l532 536h-491zM1067 1626l-467 -276l-467 276l98 172l367 -129l371 129z" />
    <glyph glyph-name="Aringacute" unicode="&#x1fa;" horiz-adv-x="1564" 
d="M1075 0l-69 272h-447l-70 -272h-509q386 1245 423 1362q17 53 34 62.5t89 9.5h512q72 0 89 -9.5t34 -62.5l424 -1362h-510zM762 1077l-107 -415h254l-106 415h-41zM432 2251l565 274l133 -325l-583 -148zM903 2019q101 0 157 -57.5t56 -138.5v-86q0 -81 -56 -139
t-157 -58h-241q-101 0 -157 58t-56 139v86q0 81 56 138.5t157 57.5h241zM866 1726q23 0 23 21v65q0 19 -23 19h-170q-22 0 -22 -19v-65q0 -21 22 -21h170z" />
    <glyph glyph-name="aringacute" unicode="&#x1fb;" horiz-adv-x="1312" 
d="M174 1180q280 41 627 41q116 0 194.5 -17t136 -59.5t84 -118t25.5 -190.5v-836h-465v70q-157 -82 -264 -82h-37h-57q-59 0 -87 1t-73 5t-65 14t-49.5 28t-42 46t-26.5 68.5t-19 95.5t-5 127v102q0 52 6 93t14.5 73t27 56t35.5 40.5t48 28t56.5 18t69.5 10t77.5 4.5
t89.5 1h37q34 0 61 -1.5t56 -6.5t43.5 -8t51.5 -12t52 -13v61q-3 44 -23 60t-71 16h-506zM776 510q-153 20 -188 20h-19q-24 0 -38.5 -13.5t-14.5 -35.5v-139q0 -22 14.5 -35.5t38.5 -13.5h19q35 0 188 20v197zM776 1794q101 0 157 -58t56 -139v-86q0 -81 -56 -138.5
t-157 -57.5h-241q-101 0 -157 57.5t-56 138.5v86q0 81 56 139t157 58h241zM739 1501q23 0 23 21v65q0 19 -23 19h-170q-22 0 -22 -19v-65q0 -21 22 -21h170zM307 2025l565 275l134 -326l-584 -147z" />
    <glyph glyph-name="AEacute" unicode="&#x1fc;" horiz-adv-x="2191" 
d="M930 1739l565 274l133 -325l-584 -148zM944 0v272h-346l-109 -272h-509q499 1208 567 1370q27 64 115 64h1443v-379h-682v-140h557v-389h-557v-127h678v-399h-1157zM905 1049l-164 -400h203v400h-39z" />
    <glyph glyph-name="aeacute" unicode="&#x1fd;" horiz-adv-x="2007" 
d="M176 895l-2 285q259 41 606 41q88 0 147 -15t105 -61q56 63 205 63h268q107 0 193 -32t139 -86t81 -122.5t28 -144.5v-299q0 -21 -3 -25.5t-18 -4.5h-684v-109q0 -22 14.5 -35.5t38.5 -13.5h586l-6 -285q-35 -7 -95.5 -17t-233.5 -27t-328 -17q-129 0 -214 21t-137 73
q-71 -35 -185 -65.5t-169 -30.5h-37h-57q-59 0 -87 1t-73 5t-65 14t-49.5 28t-42 46t-26.5 68.5t-19 95.5t-5 127v102q0 52 6 93t14.5 73t27 56t35.5 40.5t48 28t56.5 18t69.5 10t77.5 4.5t89.5 1h37q107 0 264 -82v88q0 54 -19 72t-75 18h-506zM778 367l-2 147
q-161 21 -188 21h-19q-24 0 -38.5 -14t-14.5 -36v-143q0 -22 14.5 -35.5t38.5 -13.5h19q21 0 46.5 2t70 6.5t77.5 7.5q-4 44 -4 58zM1458 915h-133q-38 0 -60 -19.5t-24 -53.5v-133l301 6v121q0 37 -22 58t-62 21zM653 1513l566 275l133 -326l-584 -147z" />
    <glyph glyph-name="Oslashacute" unicode="&#x1fe;" horiz-adv-x="1511" 
d="M510 0q-52 0 -96 6l-115 -160l-211 154l86 121q-104 107 -104 264v664q0 76 28 144.5t81 122.5t138.5 86t192.5 32h491q49 0 109 -11l113 158l213 -145l-95 -131q101 -107 101 -256v-664q0 -76 -28 -144.5t-81 -122.5t-139 -86t-193 -32h-491zM406 1739l565 274l133 -325
l-584 -148zM643 1057q-94 0 -94 -90v-408l350 494q-20 4 -31 4h-225zM868 377q50 0 72.5 25t22.5 65v375l-326 -465h6h225z" />
    <glyph glyph-name="oslashacute" unicode="&#x1ff;" horiz-adv-x="1357" 
d="M852 1229q64 0 123 -6l108 151l213 -145l-79 -111q75 -87 75 -274v-471q0 -115 -26.5 -190.5t-84 -118t-135.5 -59.5t-194 -17h-350q-36 0 -94 4l-109 -152l-211 154l64 88q-91 88 -91 291v471q0 115 26.5 190.5t84.5 118t136 59.5t194 17h350zM317 1513l566 275
l133 -326l-584 -147zM526 844v-324l262 371q-4 2 -14 2h-194q-25 0 -39.5 -13.5t-14.5 -35.5zM774 324q24 0 38.5 13.5t14.5 35.5v270l-223 -319h170z" />
    <glyph glyph-name="Scommaaccent" unicode="&#x218;" horiz-adv-x="1302" 
d="M1192 1405l-4 -367h-676q-9 0 -10.5 -2t-1.5 -14v-8q0 -12 12.5 -18t40.5 -11l403 -72q86 -16 145 -40t95 -54t55.5 -76t26 -94t6.5 -119v-157q0 -78 -15.5 -137.5t-52 -107.5t-95.5 -78t-145.5 -46t-203.5 -16q-100 0 -286 10t-322 20l-135 11l4 366h676q94 0 94 56v18
q0 27 -21 31l-313 55q-205 36 -268 57q-115 38 -157 117q-36 69 -36 191v141q0 131 48.5 213.5t164.5 127t309 44.5q100 0 265.5 -10t280.5 -20zM487 -104h351v-164q0 -44 -20.5 -103.5t-49 -112.5t-57.5 -100t-49 -74l-21 -28l-186 70l32 301v211z" />
    <glyph glyph-name="scommaaccent" unicode="&#x219;" horiz-adv-x="1230" 
d="M1116 885h-571q-5 0 -6.5 -1t-1.5 -7v-17q0 -8 5.5 -13t11.5 -6l5 -1q61 -13 182 -33q189 -30 241 -45q114 -34 157 -108q41 -71 41 -205v-46q0 -226 -106.5 -320.5t-334.5 -94.5q-155 0 -327 12t-266 24l-95 13l2 307h568q73 0 84 6q10 6 10 23v18q0 9 -14.5 13
t-68.5 13q-68 11 -120 21q-138 24 -190 35q-65 14 -106.5 32t-76.5 50.5t-51 85t-16 129.5v98q0 77 11.5 133.5t37.5 95.5t59.5 63.5t87 38t109 18t135.5 4.5q155 0 306.5 -7.5t225.5 -14.5l74 -7zM444 -104h351v-164q0 -70 -49.5 -174.5t-98.5 -173.5l-49 -70l-186 70
l32 301v211z" />
    <glyph glyph-name="circumflex" unicode="&#x2c6;" horiz-adv-x="1024" 
d="M512 1819l467 -277l-98 -172l-371 127l-367 -127l-98 172z" />
    <glyph glyph-name="caron" unicode="&#x2c7;" horiz-adv-x="1024" 
d="M979 1626l-467 -276l-467 276l98 172l367 -129l371 129z" />
    <glyph glyph-name="breve" unicode="&#x2d8;" horiz-adv-x="1024" 
d="M635 1597h258v-61q0 -98 -67 -167t-189 -69h-250q-122 0 -189 69t-67 167v61h258v-41q0 -16 16 -27t44 -11h126q28 0 44 11t16 27v41z" />
    <glyph glyph-name="dotaccent" unicode="&#x2d9;" horiz-adv-x="1024" 
d="M291 1505q0 91 64.5 153t156.5 62q93 0 157 -61.5t64 -153.5q0 -90 -64 -151.5t-157 -61.5q-92 0 -156.5 61.5t-64.5 151.5z" />
    <glyph glyph-name="ring" unicode="&#x2da;" horiz-adv-x="1024" 
d="M633 1794q101 0 157 -58t56 -139v-86q0 -81 -56 -138.5t-157 -57.5h-242q-101 0 -157 57.5t-56 138.5v86q0 81 56 139t157 58h242zM596 1501q22 0 22 21v65q0 19 -22 19h-170q-23 0 -23 -19v-65q0 -21 23 -21h170z" />
    <glyph glyph-name="ogonek" unicode="&#x2db;" horiz-adv-x="1024" 
d="M498 59l174 43q-47 -41 -92 -90q-78 -86 -78 -127v-30q0 -13 18 -13h27q15 0 23.5 2t11.5 9.5t3.5 12t0.5 17.5v49h229v-163q0 -67 -54.5 -109.5t-142.5 -42.5h-233q-105 0 -140.5 41.5t-35.5 163.5v28q0 99 162 166q23 10 47 18.5t50.5 16t29.5 8.5z" />
    <glyph glyph-name="tilde" unicode="&#x2dc;" horiz-adv-x="1024" 
d="M838 1731l159 -105q-45 -71 -71.5 -109t-65.5 -82t-77 -62t-81 -17q-67 3 -124 26l-238 109l-156 -107l-157 105q42 68 70.5 108.5t65.5 82t75.5 60.5t80.5 19q63 0 127 -26l236 -109z" />
    <glyph glyph-name="hungarumlaut" unicode="&#x2dd;" horiz-adv-x="1024" 
d="M-6 1415l291 455l278 -215l-370 -355zM434 1415l291 455l279 -215l-371 -355z" />
    <glyph glyph-name="Wgrave" unicode="&#x1e80;" horiz-adv-x="2121" 
d="M1468 467l123 967h541q-229 -1231 -258 -1381q-7 -36 -24 -47.5t-46 -11.5h-590q-60 0 -69 51l-82 610h-4q-66 -512 -82 -610q-9 -51 -70 -51h-590q-29 0 -45.5 11.5t-23.5 47.5l-258 1381h540l123 -967h2l146 967h520l145 -967h2zM844 2013l565 -274l-115 -199l-583 148
z" />
    <glyph glyph-name="wgrave" unicode="&#x1e81;" horiz-adv-x="1826" 
d="M834 39q-8 -45 -60 -45h-522q-47 0 -55 45l-209 1169h510l75 -780h27q90 694 100 780h426l101 -780h26l76 780h510q-182 -1026 -209 -1169q-8 -45 -55 -45h-522q-52 0 -60 45l-78 407h-4q-65 -344 -77 -407zM696 1788l566 -275l-115 -198l-584 147z" />
    <glyph glyph-name="Wacute" unicode="&#x1e82;" horiz-adv-x="2121" 
d="M1468 467l123 967h541q-229 -1231 -258 -1381q-7 -36 -24 -47.5t-46 -11.5h-590q-60 0 -69 51l-82 610h-4q-66 -512 -82 -610q-9 -51 -70 -51h-590q-29 0 -45.5 11.5t-23.5 47.5l-258 1381h540l123 -967h2l146 967h520l145 -967h2zM711 1739l565 274l133 -325l-584 -148z
" />
    <glyph glyph-name="wacute" unicode="&#x1e83;" horiz-adv-x="1826" 
d="M834 39q-8 -45 -60 -45h-522q-47 0 -55 45l-209 1169h510l75 -780h27q90 694 100 780h426l101 -780h26l76 780h510q-182 -1026 -209 -1169q-8 -45 -55 -45h-522q-52 0 -60 45l-78 407h-4q-65 -344 -77 -407zM563 1513l565 275l134 -326l-584 -147z" />
    <glyph glyph-name="Wdieresis" unicode="&#x1e84;" horiz-adv-x="2121" 
d="M1468 467l123 967h541q-229 -1231 -258 -1381q-7 -36 -24 -47.5t-46 -11.5h-590q-60 0 -69 51l-82 610h-4q-66 -512 -82 -610q-9 -51 -70 -51h-590q-29 0 -45.5 11.5t-23.5 47.5l-258 1381h540l123 -967h2l146 967h520l145 -967h2zM1108 1772q0 91 64.5 153t156.5 62
q93 0 157 -61.5t64 -153.5q0 -90 -64 -151.5t-157 -61.5q-92 0 -156.5 61.5t-64.5 151.5zM569 1772q0 91 65 153t157 62q93 0 157 -61.5t64 -153.5q0 -90 -64 -151.5t-157 -61.5q-92 0 -157 61.5t-65 151.5z" />
    <glyph glyph-name="wdieresis" unicode="&#x1e85;" horiz-adv-x="1826" 
d="M834 39q-8 -45 -60 -45h-522q-47 0 -55 45l-209 1169h510l75 -780h27q90 694 100 780h426l101 -780h26l76 780h510q-182 -1026 -209 -1169q-8 -45 -55 -45h-522q-52 0 -60 45l-78 407h-4q-65 -344 -77 -407zM961 1546q0 91 64.5 153t156.5 62q93 0 157 -61.5t64 -153.5
q0 -90 -64 -151.5t-157 -61.5q-92 0 -156.5 61.5t-64.5 151.5zM422 1546q0 91 64.5 153t156.5 62q93 0 157 -61.5t64 -153.5q0 -90 -64 -151.5t-157 -61.5q-92 0 -156.5 61.5t-64.5 151.5z" />
    <glyph glyph-name="Ygrave" unicode="&#x1ef2;" horiz-adv-x="1540" 
d="M508 1434l262 -480l262 480h541l-561 -1031v-403h-480v397l-565 1037h541zM553 2013l565 -274l-114 -199l-584 148z" />
    <glyph glyph-name="ygrave" unicode="&#x1ef3;" horiz-adv-x="1327" 
d="M258 -264l2 264h201q23 0 34.5 12.5t18.5 36.5l10 39h-73q-39 0 -72 28t-47 56l-13 27l-344 1009h521l174 -643h14l147 643h521l-365 -1169q-25 -81 -44 -130.5t-45.5 -94.5t-54.5 -68.5t-71.5 -41.5t-96 -24t-128.5 -6q-59 0 -131.5 15.5t-115.5 30.5zM446 1788
l566 -275l-115 -198l-584 147z" />
    <glyph glyph-name="endash" unicode="&#x2013;" horiz-adv-x="1081" 
d="M61 541v372h959v-372h-959z" />
    <glyph glyph-name="emdash" unicode="&#x2014;" horiz-adv-x="1839" 
d="M61 541v372h1717v-372h-1717z" />
    <glyph glyph-name="quoteleft" unicode="&#x2018;" horiz-adv-x="653" 
d="M504 713h-453v211q0 57 26 134t63.5 146t75 129.5t63.5 96.5l26 36l240 -90q-41 -180 -41 -391v-272z" />
    <glyph glyph-name="quoteright" unicode="&#x2019;" horiz-adv-x="653" 
d="M150 1434h452v-211q0 -57 -26 -134t-63.5 -146t-75 -130t-63.5 -97l-26 -36l-239 90q41 180 41 391v273z" />
    <glyph glyph-name="quotesinglbase" unicode="&#x201a;" horiz-adv-x="653" 
d="M150 451h452v-211q0 -57 -26 -134t-63.5 -146t-75 -130t-63.5 -97l-26 -36l-239 90q41 180 41 391v273z" />
    <glyph glyph-name="quotedblleft" unicode="&#x201c;" horiz-adv-x="1206" 
d="M504 713h-453v211q0 57 26 134t63.5 146t75 129.5t63.5 96.5l26 36l240 -90q-41 -180 -41 -391v-272zM1057 713h-453v211q0 57 26 134t63.5 146t75 129.5t63.5 96.5l26 36l240 -90q-41 -180 -41 -391v-272z" />
    <glyph glyph-name="quotedblright" unicode="&#x201d;" horiz-adv-x="1206" 
d="M150 1434h452v-211q0 -57 -26 -134t-63.5 -146t-75 -130t-63.5 -97l-26 -36l-239 90q41 180 41 391v273zM702 1434h453v-211q0 -57 -26 -134t-63.5 -146t-75 -130t-63.5 -97l-26 -36l-239 90q40 180 40 391v273z" />
    <glyph glyph-name="quotedblbase" unicode="&#x201e;" horiz-adv-x="1206" 
d="M150 451h452v-211q0 -57 -26 -134t-63.5 -146t-75 -130t-63.5 -97l-26 -36l-239 90q41 180 41 391v273zM702 451h453v-211q0 -57 -26 -134t-63.5 -146t-75 -130t-63.5 -97l-26 -36l-239 90q40 180 40 391v273z" />
    <glyph glyph-name="dagger" unicode="&#x2020;" horiz-adv-x="956" 
d="M309 700l45 191l-268 -76h-55v342h55l309 -88l-86 309v56h342v-56l-88 -309l307 86h56v-342h-56l-264 76l45 -189l-88 -557h-168z" />
    <glyph glyph-name="daggerdbl" unicode="&#x2021;" horiz-adv-x="956" 
d="M86 815h-55v342h55l309 -88l-86 309v56h342v-56l-88 -309l307 86h56v-342h-56l-264 76l45 -168l-45 -176l264 76h56v-342h-56l-307 86l88 -310v-55h-342v55l86 310l-309 -89h-55v342h55l268 -75l-45 178l45 170z" />
    <glyph glyph-name="bullet" unicode="&#x2022;" horiz-adv-x="747" 
d="M373 424q-130 0 -221 86.5t-91 214.5t91 215.5t221 87.5t221.5 -87.5t91.5 -215.5t-91.5 -214.5t-221.5 -86.5z" />
    <glyph glyph-name="ellipsis" unicode="&#x2026;" horiz-adv-x="1867" 
d="M51 240q0 106 76 179t184 73t184 -73t76 -179t-76 -179t-184 -73t-184 73t-76 179zM674 240q0 106 76 179t184 73t184 -73t76 -179t-76 -179t-184 -73t-184 73t-76 179zM1296 240q0 106 76 179t184 73t184.5 -73t76.5 -179t-76.5 -179t-184.5 -73t-184 73t-76 179z" />
    <glyph glyph-name="perthousand" unicode="&#x2030;" horiz-adv-x="2746" 
d="M348 141l1065 1315l166 -145l-1065 -1315zM549 1434q118 0 184 -64.5t66 -155.5v-352q0 -91 -66 -155t-184 -64h-230q-118 0 -183.5 64t-65.5 155v352q0 91 65.5 155.5t183.5 64.5h230zM471 879q55 0 55 51v217q0 51 -55 51h-76q-53 0 -53 -51v-217q0 -51 53 -51h76z
M1608 791q118 0 184 -64.5t66 -155.5v-352q0 -91 -66 -155t-184 -64h-230q-118 0 -184 64t-66 155v352q0 91 66 155.5t184 64.5h230zM1530 236q55 0 55 51v217q0 51 -55 51h-76q-53 0 -53 -51v-217q0 -51 53 -51h76zM2427 791q118 0 184 -64.5t66 -155.5v-352
q0 -91 -66 -155t-184 -64h-229q-118 0 -184 64t-66 155v352q0 91 66 155.5t184 64.5h229zM2349 236q55 0 55 51v217q0 51 -55 51h-76q-53 0 -53 -51v-217q0 -51 53 -51h76z" />
    <glyph glyph-name="guilsinglleft" unicode="&#x2039;" horiz-adv-x="718" 
d="M672 262l-197 -160l-416 418v180l416 418l197 -160l-246 -348z" />
    <glyph glyph-name="guilsinglright" unicode="&#x203a;" horiz-adv-x="718" 
d="M244 102l-197 160l246 348l-246 348l197 160l415 -418v-180z" />
    <glyph glyph-name="fraction" unicode="&#x2044;" horiz-adv-x="921" 
d="M-131 12l539 774l487 738l162 -107l-527 -766l-501 -749z" />
    <glyph glyph-name="Euro" unicode="&#x20ac;" horiz-adv-x="1384" 
d="M1315 1419l-4 -381h-606q-47 0 -70 -22.5t-25 -57.5v-6h480v-196h-480v-49h480v-197h-480v-25q0 -40 22.5 -65t72.5 -25h606l4 -372q-417 -35 -744 -35q-107 0 -192.5 32t-138.5 86t-81 122.5t-28 144.5v116h-98v218h98v49h-98v217h98v88q0 76 28 144.5t81 122.5
t138.5 86t192.5 32q146 0 332 -7t299 -13z" />
    <glyph glyph-name="afii61352" unicode="&#x2116;" horiz-adv-x="2643" 
d="M2218 1438q87 0 145.5 -13t101.5 -45t63 -88.5t20 -142.5v-354q0 -86 -20 -142.5t-63 -88.5t-101.5 -45t-145.5 -13h-283q-87 0 -145.5 13t-102 45t-63.5 88.5t-20 142.5v354q0 86 20 142.5t63.5 88.5t102 45t145.5 13h283zM2159 799q18 0 29.5 11t11.5 26v272
q0 15 -11.5 26t-29.5 11h-166q-18 0 -28.5 -10.5t-10.5 -26.5v-272q0 -16 10.5 -26.5t28.5 -10.5h166zM1614 0v393h936v-393h-936zM1483 1434v-1434h-381q-61 0 -87 12.5t-59 61.5q-32 45 -197 293t-177 266h-17v-633h-479v1434h385h30t24 -1.5t17.5 -2t14 -4t10 -4.5
t8.5 -7t7 -8t7.5 -11t8.5 -12q2 -4 85 -123.5t176.5 -256.5t133.5 -199h11v629h479z" />
    <glyph glyph-name="trademark" unicode="&#x2122;" horiz-adv-x="1544" 
d="M1077 1120l117 303q2 11 12 11h260v-646h-215v277h-10l-72 -262q-4 -15 -18 -15h-152q-6 0 -10 4t-5 8l-1 3l-72 262h-12v-277h-215v646h260q5 0 8.5 -3t4.5 -5l1 -3l115 -303h4zM662 1434v-177h-197v-469h-215v469h-197v177h609z" />
    <glyph glyph-name="arrowleft" unicode="&#x2190;" horiz-adv-x="1433" 
d="M856 287l-238 -181l-477 498v58l477 497l238 -180l-96 -162h506v-368h-506z" />
    <glyph glyph-name="arrowup" unicode="&#x2191;" horiz-adv-x="1433" 
d="M1243 731l-180 -237l-162 96v-506h-369v506l-161 -96l-181 237l498 477h57z" />
    <glyph glyph-name="arrowright" unicode="&#x2192;" horiz-adv-x="1433" 
d="M788 106l-237 181l96 162h-506v368h506l-96 162l237 180l478 -497v-58z" />
    <glyph glyph-name="arrowdown" unicode="&#x2193;" horiz-adv-x="1433" 
d="M1063 799l180 -238l-498 -477h-57l-498 477l181 238l161 -97v506h369v-506z" />
    <glyph glyph-name="uni2196" unicode="&#x2196;" horiz-adv-x="1433" 
d="M1024 1165l37 -297l-184 -43l350 -362l-264 -258l-353 364l-49 -180l-295 45l27 688l41 41z" />
    <glyph glyph-name="uni2197" unicode="&#x2197;" horiz-adv-x="1433" 
d="M373 868l37 297l690 -2l41 -41l26 -688l-295 -45l-49 180l-352 -364l-264 258l350 362z" />
    <glyph glyph-name="uni2198" unicode="&#x2198;" horiz-adv-x="1433" 
d="M410 205l-37 297l184 43l-350 362l264 258l352 -364l49 180l295 -45l-26 -688l-41 -41z" />
    <glyph glyph-name="uni2199" unicode="&#x2199;" horiz-adv-x="1433" 
d="M1061 502l-37 -297l-690 2l-41 41l-27 688l295 45l49 -180l353 364l264 -258l-350 -362z" />
    <glyph glyph-name="minus" unicode="&#x2212;" horiz-adv-x="1351" 
d="M1243 539h-1134v389h1134v-389z" />
    <glyph glyph-name="commaaccent" unicode="&#xf6c3;" horiz-adv-x="1024" 
d="M344 -104h350v-164q0 -44 -20 -103.5t-49 -112.5t-58 -100t-49 -74l-20 -28l-187 70l33 301v211z" />
    <glyph glyph-name="a.alt" horiz-adv-x="1312" 
d="M1241 1208v-1208h-465v70q-157 -82 -254 -82h-37q-111 1 -186.5 18.5t-131 60.5t-81 118t-25.5 188v463q0 113 25.5 188t81 118t131 60.5t186.5 18.5h37q97 0 254 -82v69h465zM526 805v-402q0 -22 14.5 -35.5t39.5 -13.5h18q21 0 42 2t64 8.5t72 10.5v459
q-153 20 -178 20h-18q-25 0 -39.5 -13.5t-14.5 -35.5z" />
    <glyph glyph-name="g.alt" horiz-adv-x="1310" 
d="M1282 1282l61 -235l-126 -74q14 -72 14 -144v-79q0 -115 -26.5 -190.5t-84 -118t-135.5 -59.5t-194 -17h-289q-65 0 -96 2q-5 0 -5 -11v-16q0 -16 27 -16q51 -2 150.5 -2t203 1t111.5 1q121 0 167 -12q105 -27 140 -139q23 -71 23 -181v-98q0 -92 -17.5 -152.5
t-52.5 -94.5t-88 -50t-124 -18t-161 1q-128 4 -302.5 22t-285.5 34l-110 16l2 256h702q13 0 18.5 0.5t11 5t5.5 12.5v49q0 15 -8 18t-47 3h-545q-40 0 -70 7t-57.5 24.5t-42 53.5t-14.5 89v109q0 60 88 114q51 30 61 35q-125 85 -125 322v79q0 115 26.5 190.5t84.5 118
t136 59.5t194 17h289q27 0 49 -1.5t30 -2.5l9 -2zM713 879h-133q-24 0 -39 -14t-15 -36v-100q0 -22 14.5 -35.5t39.5 -13.5h133q24 0 38.5 13.5t14.5 35.5v100q0 22 -14.5 36t-38.5 14z" />
    <glyph glyph-name="y.alt" horiz-adv-x="1323" 
d="M61 1208h465v-753q0 -22 14.5 -35.5t39.5 -13.5h18q35 0 188 20v782h465v-1169q1 -115 -25.5 -190.5t-84 -118t-136 -59.5t-194.5 -17q-155 0 -311.5 15t-235.5 31l-80 15l2 285h547q24 0 38.5 13.5t14.5 35.5v133q-78 -41 -134.5 -61.5t-108.5 -20.5h-58
q-111 1 -186.5 18.5t-131 60.5t-81 118t-25.5 188v723z" />
    <glyph glyph-name="registered.alt" horiz-adv-x="1798" 
d="M119 686q0 158 61.5 302t166 249t249 167t303.5 62q158 0 302 -62t249 -167t167 -249t62 -302q0 -159 -62 -303.5t-167 -249t-249 -166t-302 -61.5q-159 0 -303.5 61.5t-249 166t-166 249t-61.5 303.5zM334 686q0 -117 44 -223.5t119 -183.5t180 -122.5t222 -45.5
t222 45.5t180 122.5t119 183.5t44 223.5q0 156 -74.5 288.5t-204.5 210t-286 77.5t-286 -77.5t-204.5 -210t-74.5 -288.5zM807 537v-230h-264v789h491q117 0 180.5 -61.5t63.5 -149.5v-135q0 -55 -26 -102.5t-74 -76.5l108 -264h-274l-94 230h-111zM1014 782v58q0 49 -51 49
h-156v-156h156q51 0 51 49z" />
    <glyph glyph-name="published" horiz-adv-x="1798" 
d="M119 686q0 158 61.5 302t166 249t249 167t303.5 62q158 0 302 -62t249 -167t167 -249t62 -302q0 -159 -62 -303.5t-167 -249t-249 -166t-302 -61.5q-159 0 -303.5 61.5t-249 166t-166 249t-61.5 303.5zM334 686q0 -117 44 -223.5t119 -183.5t180 -122.5t222 -45.5
t222 45.5t180 122.5t119 183.5t44 223.5q0 156 -74.5 288.5t-204.5 210t-286 77.5t-286 -77.5t-204.5 -210t-74.5 -288.5zM842 514v-207h-264v789h491q117 0 180.5 -61.5t63.5 -149.5v-158q0 -89 -63.5 -151t-180.5 -62h-227zM842 721h155q52 0 52 51v68q0 49 -52 49h-155
v-168z" />
    <glyph glyph-name="parenleft.case" horiz-adv-x="706" 
d="M78 360v719q0 167 178 389q45 56 98 111t83 82l30 27l184 -123q-49 -103 -94 -234q-70 -206 -70 -334v-555q0 -119 60 -297q21 -65 47 -132.5t42 -102.5l15 -35l-184 -123q-122 105 -231 246q-158 205 -158 362z" />
    <glyph glyph-name="parenright.case" horiz-adv-x="706" 
d="M629 360q0 -157 -158 -362q-48 -63 -106 -124.5t-91 -91.5l-34 -30l-185 123q58 123 105 270q59 175 59 297v555q0 131 -69 334q-20 58 -43.5 116.5t-37.5 88.5l-14 29l185 123q109 -93 211 -220q178 -222 178 -389v-719z" />
    <glyph glyph-name="hyphen.case" horiz-adv-x="876" 
d="M61 528v390h754v-390h-754z" />
    <glyph glyph-name="bracketleft.case" horiz-adv-x="880" 
d="M102 -205v1843h713v-307h-276v-1229h276v-307h-713z" />
    <glyph glyph-name="bracketright.case" horiz-adv-x="880" 
d="M778 1638v-1843h-712v307h276v1229h-276v307h712z" />
    <glyph glyph-name="braceleft.case" horiz-adv-x="776" 
d="M487 1749l185 -123q-35 -53 -66 -137q-66 -180 -37 -348q18 -105 18.5 -163.5t-20.5 -105.5q-18 -35 -54 -60.5t-99 -51.5l-80 -31q57 -22 84 -35q129 -61 157 -145q24 -78 -6 -230q-26 -125 25 -294q15 -48 34.5 -96t31.5 -71l12 -24l-185 -123q-98 72 -188 183
q-157 192 -139 364q8 77 13 146.5t6 99.5l1 31q0 24 -32.5 45t-127.5 53v194q95 32 127.5 53.5t32.5 45.5q-2 102 -20 276q-18 179 149 377q38 45 82.5 87.5t70.5 62.5z" />
    <glyph glyph-name="bar.case" horiz-adv-x="757" 
d="M195 -201v1876h368v-1876h-368z" />
    <glyph glyph-name="braceright.case" horiz-adv-x="776" 
d="M756 827v-194q-95 -32 -127.5 -53t-32.5 -45q2 -103 20 -277q18 -172 -139 -364q-40 -49 -87 -95t-74 -67l-27 -21l-185 123q45 82 78 191q51 169 25 294q-30 152 -6 230q28 84 157 145q27 13 84 35l-80 31q-63 26 -99 51.5t-54 60.5q-21 47 -20.5 105.5t18.5 163.5
q29 168 -37 348q-14 37 -30.5 71.5t-25.5 49.5l-10 16l185 123q92 -68 178 -170q167 -198 149 -377q-8 -77 -13 -146t-6 -100l-1 -30q0 -24 32.5 -45.5t127.5 -53.5z" />
    <glyph glyph-name="guilsinglleft.case" horiz-adv-x="718" 
d="M672 365l-197 -160l-416 418v180l416 418l197 -160l-246 -348z" />
    <glyph glyph-name="guilsinglright.case" horiz-adv-x="718" 
d="M244 205l-197 160l246 348l-246 348l197 160l415 -418v-180z" />
    <glyph glyph-name="aacute.alt" horiz-adv-x="1312" 
d="M1241 1208v-1208h-465v70q-157 -82 -254 -82h-37q-111 1 -186.5 18.5t-131 60.5t-81 118t-25.5 188v463q0 113 25.5 188t81 118t131 60.5t186.5 18.5h37q97 0 254 -82v69h465zM526 805v-402q0 -22 14.5 -35.5t39.5 -13.5h18q21 0 42 2t64 8.5t72 10.5v459
q-153 20 -178 20h-18q-25 0 -39.5 -13.5t-14.5 -35.5zM307 1513l565 275l134 -326l-584 -147z" />
    <glyph glyph-name="guillemotleft.case" horiz-adv-x="1271" 
d="M672 365l-197 -160l-416 418v180l416 418l197 -160l-246 -348zM1225 365l-197 -160l-416 418v180l416 418l197 -160l-246 -348z" />
    <glyph glyph-name="acircumflex.alt" horiz-adv-x="1312" 
d="M1241 1208v-1208h-465v70q-157 -82 -254 -82h-37q-111 1 -186.5 18.5t-131 60.5t-81 118t-25.5 188v463q0 113 25.5 188t81 118t131 60.5t186.5 18.5h37q97 0 254 -82v69h465zM526 805v-402q0 -22 14.5 -35.5t39.5 -13.5h18q21 0 42 2t64 8.5t72 10.5v459
q-153 20 -178 20h-18q-25 0 -39.5 -13.5t-14.5 -35.5zM696 1819l467 -277l-98 -172l-371 127l-366 -127l-99 172z" />
    <glyph glyph-name="adieresis.alt" horiz-adv-x="1312" 
d="M1241 1208v-1208h-465v70q-157 -82 -254 -82h-37q-111 1 -186.5 18.5t-131 60.5t-81 118t-25.5 188v463q0 113 25.5 188t81 118t131 60.5t186.5 18.5h37q97 0 254 -82v69h465zM526 805v-402q0 -22 14.5 -35.5t39.5 -13.5h18q21 0 42 2t64 8.5t72 10.5v459
q-153 20 -178 20h-18q-25 0 -39.5 -13.5t-14.5 -35.5zM715 1546q0 91 64.5 153t156.5 62q93 0 157 -61.5t64 -153.5q0 -90 -64 -151.5t-157 -61.5q-92 0 -156.5 61.5t-64.5 151.5zM176 1546q0 91 64.5 153t156.5 62q93 0 157 -61.5t64 -153.5q0 -90 -64 -151.5t-157 -61.5
q-92 0 -156.5 61.5t-64.5 151.5z" />
    <glyph glyph-name="agrave.alt" horiz-adv-x="1312" 
d="M1241 1208v-1208h-465v70q-157 -82 -254 -82h-37q-111 1 -186.5 18.5t-131 60.5t-81 118t-25.5 188v463q0 113 25.5 188t81 118t131 60.5t186.5 18.5h37q97 0 254 -82v69h465zM526 805v-402q0 -22 14.5 -35.5t39.5 -13.5h18q21 0 42 2t64 8.5t72 10.5v459
q-153 20 -178 20h-18q-25 0 -39.5 -13.5t-14.5 -35.5zM440 1788l566 -275l-115 -198l-584 147z" />
    <glyph glyph-name="guillemotright.case" horiz-adv-x="1271" 
d="M244 205l-197 160l246 348l-246 348l197 160l415 -418v-180zM797 205l-197 160l246 348l-246 348l197 160l415 -418v-180z" />
    <glyph glyph-name="amacron.alt" horiz-adv-x="1312" 
d="M1241 1208v-1208h-465v70q-157 -82 -254 -82h-37q-111 1 -186.5 18.5t-131 60.5t-81 118t-25.5 188v463q0 113 25.5 188t81 118t131 60.5t186.5 18.5h37q97 0 254 -82v69h465zM526 805v-402q0 -22 14.5 -35.5t39.5 -13.5h18q21 0 42 2t64 8.5t72 10.5v459
q-153 20 -178 20h-18q-25 0 -39.5 -13.5t-14.5 -35.5zM276 1321v270h799v-270h-799z" />
    <glyph glyph-name="abreve.alt" horiz-adv-x="1312" 
d="M1241 1208v-1208h-465v70q-157 -82 -254 -82h-37q-111 1 -186.5 18.5t-131 60.5t-81 118t-25.5 188v463q0 113 25.5 188t81 118t131 60.5t186.5 18.5h37q97 0 254 -82v69h465zM526 805v-402q0 -22 14.5 -35.5t39.5 -13.5h18q21 0 42 2t64 8.5t72 10.5v459
q-153 20 -178 20h-18q-25 0 -39.5 -13.5t-14.5 -35.5zM778 1597h258v-61q0 -98 -67 -167t-189 -69h-250q-122 0 -189 69t-67 167v61h258v-41q0 -16 16 -27t44 -11h127q28 0 43.5 11t15.5 27v41z" />
    <glyph glyph-name="endash.case" horiz-adv-x="1081" 
d="M61 551v373h959v-373h-959z" />
    <glyph glyph-name="aogonek.alt" horiz-adv-x="1312" 
d="M1241 1208v-1208h-244q-65 -72 -65 -115v-30q0 -13 18 -13h27q15 0 23.5 2t11.5 9.5t3.5 12t0.5 17.5v49h229v-163q0 -67 -54 -109.5t-142 -42.5h-234q-105 0 -140.5 41.5t-35.5 163.5v28q0 93 137 156v64q-157 -82 -254 -82h-37q-111 1 -186.5 18.5t-131 60.5t-81 118
t-25.5 188v463q0 113 25.5 188t81 118t131 60.5t186.5 18.5h37q97 0 254 -82v69h465zM526 805v-402q0 -22 14.5 -35.5t39.5 -13.5h18q21 0 42 2t64 8.5t72 10.5v459q-153 20 -178 20h-18q-25 0 -39.5 -13.5t-14.5 -35.5z" />
    <glyph glyph-name="aringacute.alt" horiz-adv-x="1312" 
d="M1241 1208v-1208h-465v70q-157 -82 -254 -82h-37q-111 1 -186.5 18.5t-131 60.5t-81 118t-25.5 188v463q0 113 25.5 188t81 118t131 60.5t186.5 18.5h37q97 0 254 -82v69h465zM526 805v-402q0 -22 14.5 -35.5t39.5 -13.5h18q21 0 42 2t64 8.5t72 10.5v459
q-153 20 -178 20h-18q-25 0 -39.5 -13.5t-14.5 -35.5zM307 2025l565 275l134 -326l-584 -147zM776 1794q101 0 157 -58t56 -139v-86q0 -81 -56 -138.5t-157 -57.5h-241q-101 0 -157 57.5t-56 138.5v86q0 81 56 139t157 58h241zM739 1501q23 0 23 21v65q0 19 -23 19h-170
q-22 0 -22 -19v-65q0 -21 22 -21h170z" />
    <glyph glyph-name="emdash.case" horiz-adv-x="1839" 
d="M61 551v373h1717v-373h-1717z" />
    <glyph glyph-name="atilde.alt" horiz-adv-x="1312" 
d="M1241 1208v-1208h-465v70q-157 -82 -254 -82h-37q-111 1 -186.5 18.5t-131 60.5t-81 118t-25.5 188v463q0 113 25.5 188t81 118t131 60.5t186.5 18.5h37q97 0 254 -82v69h465zM526 805v-402q0 -22 14.5 -35.5t39.5 -13.5h18q21 0 42 2t64 8.5t72 10.5v459
q-153 20 -178 20h-18q-25 0 -39.5 -13.5t-14.5 -35.5zM1022 1731l160 -105q-45 -71 -71.5 -109t-65.5 -82t-77 -62t-81 -17q-68 3 -125 26l-238 109l-155 -107l-158 105q41 67 70 108t66.5 82.5t76 60.5t80.5 19q63 0 127 -26l235 -109z" />
    <glyph glyph-name="aring.alt" horiz-adv-x="1312" 
d="M1241 1208v-1208h-465v70q-157 -82 -254 -82h-37q-111 1 -186.5 18.5t-131 60.5t-81 118t-25.5 188v463q0 113 25.5 188t81 118t131 60.5t186.5 18.5h37q97 0 254 -82v69h465zM526 805v-402q0 -22 14.5 -35.5t39.5 -13.5h18q21 0 42 2t64 8.5t72 10.5v459
q-153 20 -178 20h-18q-25 0 -39.5 -13.5t-14.5 -35.5zM827 1794q101 0 157 -58t56 -139v-86q0 -81 -56 -138.5t-157 -57.5h-241q-101 0 -157 57.5t-56 138.5v86q0 81 56 139t157 58h241zM791 1501q22 0 22 21v65q0 19 -22 19h-170q-23 0 -23 -19v-65q0 -21 23 -21h170z" />
    <glyph glyph-name="bullet.case" horiz-adv-x="747" 
d="M373 444q-130 0 -221 86.5t-91 214.5t91 216t221 88t221.5 -88t91.5 -216t-91.5 -214.5t-221.5 -86.5z" />
    <glyph glyph-name="gbreve.alt" horiz-adv-x="1310" 
d="M1282 1282l61 -235l-126 -74q14 -72 14 -144v-79q0 -115 -26.5 -190.5t-84 -118t-135.5 -59.5t-194 -17h-289q-65 0 -96 2q-5 0 -5 -11v-16q0 -16 27 -16q51 -2 150.5 -2t203 1t111.5 1q121 0 167 -12q105 -27 140 -139q23 -71 23 -181v-98q0 -92 -17.5 -152.5
t-52.5 -94.5t-88 -50t-124 -18t-161 1q-128 4 -302.5 22t-285.5 34l-110 16l2 256h702q13 0 18.5 0.5t11 5t5.5 12.5v49q0 15 -8 18t-47 3h-545q-40 0 -70 7t-57.5 24.5t-42 53.5t-14.5 89v109q0 60 88 114q51 30 61 35q-125 85 -125 322v79q0 115 26.5 190.5t84.5 118
t136 59.5t194 17h289q27 0 49 -1.5t30 -2.5l9 -2zM713 879h-133q-24 0 -39 -14t-15 -36v-100q0 -22 14.5 -35.5t39.5 -13.5h133q24 0 38.5 13.5t14.5 35.5v100q0 22 -14.5 36t-38.5 14zM778 1597h258v-61q0 -98 -67 -167t-189 -69h-250q-122 0 -189 69t-67 167v61h258v-41
q0 -16 16 -27t44 -11h127q28 0 43.5 11t15.5 27v41z" />
    <glyph glyph-name="gdotaccent.alt" horiz-adv-x="1310" 
d="M1282 1282l61 -235l-126 -74q14 -72 14 -144v-79q0 -115 -26.5 -190.5t-84 -118t-135.5 -59.5t-194 -17h-289q-65 0 -96 2q-5 0 -5 -11v-16q0 -16 27 -16q51 -2 150.5 -2t203 1t111.5 1q121 0 167 -12q105 -27 140 -139q23 -71 23 -181v-98q0 -92 -17.5 -152.5
t-52.5 -94.5t-88 -50t-124 -18t-161 1q-128 4 -302.5 22t-285.5 34l-110 16l2 256h702q13 0 18.5 0.5t11 5t5.5 12.5v49q0 15 -8 18t-47 3h-545q-40 0 -70 7t-57.5 24.5t-42 53.5t-14.5 89v109q0 60 88 114q51 30 61 35q-125 85 -125 322v79q0 115 26.5 190.5t84.5 118
t136 59.5t194 17h289q27 0 49 -1.5t30 -2.5l9 -2zM713 879h-133q-24 0 -39 -14t-15 -36v-100q0 -22 14.5 -35.5t39.5 -13.5h133q24 0 38.5 13.5t14.5 35.5v100q0 22 -14.5 36t-38.5 14zM440 1505q0 91 65 153t157 62q93 0 157 -61.5t64 -153.5q0 -90 -64 -151.5t-157 -61.5
q-92 0 -157 61.5t-65 151.5z" />
    <glyph glyph-name="periodcentered.case" horiz-adv-x="622" 
d="M51 731q0 106 76 179t184 73t184 -73t76 -179t-76 -179t-184 -73t-184 73t-76 179z" />
    <glyph glyph-name="gcommaaccent.alt" horiz-adv-x="1310" 
d="M1282 1282l61 -235l-126 -74q14 -72 14 -144v-79q0 -115 -26.5 -190.5t-84 -118t-135.5 -59.5t-194 -17h-289q-65 0 -96 2q-5 0 -5 -11v-16q0 -16 27 -16q51 -2 150.5 -2t203 1t111.5 1q121 0 167 -12q105 -27 140 -139q23 -71 23 -181v-98q0 -92 -17.5 -152.5
t-52.5 -94.5t-88 -50t-124 -18t-161 1q-128 4 -302.5 22t-285.5 34l-110 16l2 256h702q13 0 18.5 0.5t11 5t5.5 12.5v49q0 15 -8 18t-47 3h-545q-40 0 -70 7t-57.5 24.5t-42 53.5t-14.5 89v109q0 60 88 114q51 30 61 35q-125 85 -125 322v79q0 115 26.5 190.5t84.5 118
t136 59.5t194 17h289q27 0 49 -1.5t30 -2.5l9 -2zM713 879h-133q-24 0 -39 -14t-15 -36v-100q0 -22 14.5 -35.5t39.5 -13.5h133q24 0 38.5 13.5t14.5 35.5v100q0 22 -14.5 36t-38.5 14zM866 1321h-350v164q0 44 20.5 103.5t49 112.5t57.5 100t49 75l21 27l186 -70l-33 -301
v-211z" />
    <glyph glyph-name="yacute.alt" horiz-adv-x="1323" 
d="M61 1208h465v-753q0 -22 14.5 -35.5t39.5 -13.5h18q35 0 188 20v782h465v-1169q1 -115 -25.5 -190.5t-84 -118t-136 -59.5t-194.5 -17q-155 0 -311.5 15t-235.5 31l-80 15l2 285h547q24 0 38.5 13.5t14.5 35.5v133q-78 -41 -134.5 -61.5t-108.5 -20.5h-58
q-111 1 -186.5 18.5t-131 60.5t-81 118t-25.5 188v723zM307 1513l565 275l134 -326l-584 -147z" />
    <glyph glyph-name="ydieresis.alt" horiz-adv-x="1323" 
d="M61 1208h465v-753q0 -22 14.5 -35.5t39.5 -13.5h18q35 0 188 20v782h465v-1169q1 -115 -25.5 -190.5t-84 -118t-136 -59.5t-194.5 -17q-155 0 -311.5 15t-235.5 31l-80 15l2 285h547q24 0 38.5 13.5t14.5 35.5v133q-78 -41 -134.5 -61.5t-108.5 -20.5h-58
q-111 1 -186.5 18.5t-131 60.5t-81 118t-25.5 188v723zM715 1546q0 91 64.5 153t156.5 62q93 0 157 -61.5t64 -153.5q0 -90 -64 -151.5t-157 -61.5q-92 0 -156.5 61.5t-64.5 151.5zM176 1546q0 91 64.5 153t156.5 62q93 0 157 -61.5t64 -153.5q0 -90 -64 -151.5t-157 -61.5
q-92 0 -156.5 61.5t-64.5 151.5z" />
    <glyph glyph-name="ycircumflex.alt" horiz-adv-x="1323" 
d="M61 1208h465v-753q0 -22 14.5 -35.5t39.5 -13.5h18q35 0 188 20v782h465v-1169q1 -115 -25.5 -190.5t-84 -118t-136 -59.5t-194.5 -17q-155 0 -311.5 15t-235.5 31l-80 15l2 285h547q24 0 38.5 13.5t14.5 35.5v133q-78 -41 -134.5 -61.5t-108.5 -20.5h-58
q-111 1 -186.5 18.5t-131 60.5t-81 118t-25.5 188v723zM655 1819l467 -277l-98 -172l-371 127l-366 -127l-99 172z" />
    <glyph glyph-name="ygrave.alt" horiz-adv-x="1323" 
d="M61 1208h465v-753q0 -22 14.5 -35.5t39.5 -13.5h18q35 0 188 20v782h465v-1169q1 -115 -25.5 -190.5t-84 -118t-136 -59.5t-194.5 -17q-155 0 -311.5 15t-235.5 31l-80 15l2 285h547q24 0 38.5 13.5t14.5 35.5v133q-78 -41 -134.5 -61.5t-108.5 -20.5h-58
q-111 1 -186.5 18.5t-131 60.5t-81 118t-25.5 188v723zM440 1788l566 -275l-115 -198l-584 147z" />
    <glyph glyph-name="RB" horiz-adv-x="1843" 
d="M922 1446q197 0 365 -98t266 -266t98 -365t-98 -365t-266 -266t-365 -98t-365 98t-266 266t-98 365t98 365t266 266t365 98zM860 494l-100 133q64 15 113 64t63 112q20 76 -20 130t-117 54h-185l-125 -493h371zM1323 864q13 46 -15.5 82t-78.5 41h-221l-121 -493h256
q56 0 106 39t62 94q12 48 -12.5 83.5t-75.5 41.5q37 13 64 43.5t36 68.5z" />
    <glyph glyph-name="idotaccent" horiz-adv-x="612" 
d="M539 1208v-1208h-465v1208h465zM86 1546q0 91 64.5 153t156.5 62q93 0 157 -61.5t64 -153.5q0 -90 -64 -151.5t-157 -61.5q-92 0 -156.5 61.5t-64.5 151.5z" />
    <glyph glyph-name="germandbls.case" horiz-adv-x="2592" 
d="M1192 1405l-4 -367h-676q-9 0 -10.5 -2t-1.5 -14v-8q0 -12 12.5 -18t40.5 -11l403 -72q86 -16 145 -40t95 -54t55.5 -76t26 -94t6.5 -119v-157q0 -78 -15.5 -137.5t-52 -107.5t-95.5 -78t-145.5 -46t-203.5 -16q-100 0 -286 10t-322 20l-135 11l4 366h676q94 0 94 56v18
q0 27 -21 31l-313 55q-205 36 -268 57q-115 38 -157 117q-36 69 -36 191v141q0 131 48.5 213.5t164.5 127t309 44.5q100 0 265.5 -10t280.5 -20zM2482 1405l-4 -367h-676q-9 0 -10.5 -2t-1.5 -14v-8q0 -12 12.5 -18t40.5 -11l404 -72q72 -13 124.5 -31t88.5 -44t58.5 -54.5
t35 -70t16.5 -83t4 -100.5v-157q0 -78 -15.5 -137.5t-52 -107.5t-95.5 -78t-145.5 -46t-203.5 -16q-100 0 -286 10t-322 20l-135 11l4 366h676q94 0 94 56v18q0 28 -20 31l-314 55q-205 36 -268 57q-115 38 -157 117q-36 69 -36 191v141q0 131 48.5 213.5t165 127
t309.5 44.5q100 0 265 -10t280 -20z" />
    <glyph glyph-name="i.dot" horiz-adv-x="612" 
d="M86 1546q0 91 64.5 153t156.5 62q93 0 157 -61.5t64 -153.5q0 -90 -64 -151.5t-157 -61.5q-92 0 -156.5 61.5t-64.5 151.5zM539 1208v-1208h-465v1208h465z" />
    <glyph glyph-name="gcircumflex.alt" horiz-adv-x="1310" 
d="M1282 1282l61 -235l-126 -74q14 -72 14 -144v-79q0 -115 -26.5 -190.5t-84 -118t-135.5 -59.5t-194 -17h-289q-65 0 -96 2q-5 0 -5 -11v-16q0 -16 27 -16q51 -2 150.5 -2t203 1t111.5 1q121 0 167 -12q105 -27 140 -139q23 -71 23 -181v-98q0 -92 -17.5 -152.5
t-52.5 -94.5t-88 -50t-124 -18t-161 1q-128 4 -302.5 22t-285.5 34l-110 16l2 256h702q13 0 18.5 0.5t11 5t5.5 12.5v49q0 15 -8 18t-47 3h-545q-40 0 -70 7t-57.5 24.5t-42 53.5t-14.5 89v109q0 60 88 114q51 30 61 35q-125 85 -125 322v79q0 115 26.5 190.5t84.5 118
t136 59.5t194 17h289q27 0 49 -1.5t30 -2.5l9 -2zM713 879h-133q-24 0 -39 -14t-15 -36v-100q0 -22 14.5 -35.5t39.5 -13.5h133q24 0 38.5 13.5t14.5 35.5v100q0 22 -14.5 36t-38.5 14zM696 1819l467 -277l-98 -172l-371 127l-366 -127l-99 172z" />
    <glyph glyph-name="caron.alt" horiz-adv-x="1024" 
d="M344 1638h354v-165q0 -45 -20.5 -105t-49.5 -113.5t-58 -100.5t-50 -75l-20 -28l-187 69l31 305v213z" />
    </font>
</defs>
</svg>
